<?xml version="1.0" encoding="UTF-8"?>
<svg version="1.1" viewBox="0 0 24 24" xmlns="http://www.w3.org/2000/svg" xmlns:cc="http://creativecommons.org/ns#" xmlns:dc="http://purl.org/dc/elements/1.1/" xmlns:rdf="http://www.w3.org/1999/02/22-rdf-syntax-ns#">
 <metadata>
  <rdf:RDF>
   <cc:Work rdf:about="">
    <dc:format>image/svg+xml</dc:format>
    <dc:type rdf:resource="http://purl.org/dc/dcmitype/StillImage"/>
    <dc:title/>
   </cc:Work>
  </rdf:RDF>
 </metadata>
 <defs>
  <style id="current-color-scheme" type="text/css">.ColorScheme-Text {
        color:#232629;
      }</style>
  <filter id="filter818" x="-.24" y="-.24" width="1.48" height="1.48" color-interpolation-filters="sRGB">
   <feGaussianBlur stdDeviation="1.6"/>
  </filter>
 </defs>
 <g transform="matrix(.88559 0 0 .88559 2.2585 2.2585)" fill="#ffde17" filter="url(#filter818)" stroke="#ffde17">
  <path class="ColorScheme-Text" d="m10 3v7h2v-7zm-1 0.26562c-3.4555 0.88459-6 3.9954-6 7.7344 0 4.432 3.568 8 8 8s8-3.568 8-8c0-3.739-2.5445-6.8498-6-7.7344v1.0371c2.895 0.85719 5 3.5169 5 6.6973 0 3.878-3.122 7-7 7s-7-3.122-7-7c0-3.1804 2.105-5.8401 5-6.6973z" color="#232629" fill="#ffde17" stroke="#ffde17"/>
 </g>
 <g transform="matrix(.88559 0 0 .88559 2.2585 2.2585)" fill="#ffde17">
  <path class="ColorScheme-Text" d="m10 3v7h2v-7zm-1 0.26562c-3.4555 0.88459-6 3.9954-6 7.7344 0 4.432 3.568 8 8 8s8-3.568 8-8c0-3.739-2.5445-6.8498-6-7.7344v1.0371c2.895 0.85719 5 3.5169 5 6.6973 0 3.878-3.122 7-7 7s-7-3.122-7-7c0-3.1804 2.105-5.8401 5-6.6973z" color="#232629" fill="#ffde17"/>
 </g>
</svg>
