<?xml version="1.0" encoding="UTF-8"?>
<svg width="24px" height="24px" version="1.1" viewBox="0 0 24 24" xmlns="http://www.w3.org/2000/svg" xmlns:cc="http://creativecommons.org/ns#" xmlns:dc="http://purl.org/dc/elements/1.1/" xmlns:rdf="http://www.w3.org/1999/02/22-rdf-syntax-ns#">
 <metadata>
  <rdf:RDF>
   <cc:Work rdf:about="">
    <dc:format>image/svg+xml</dc:format>
    <dc:type rdf:resource="http://purl.org/dc/dcmitype/StillImage"/>
    <dc:title>kdenlive-zindex-down</dc:title>
   </cc:Work>
  </rdf:RDF>
 </metadata>
 <!-- Generator: Sketch 51.3 (57544) - http://www.bohemiancoding.com/sketch -->
 <title>kdenlive-zindex-down</title>
 <desc>Created with Sketch.</desc>
 <g fill="#ffde17" fill-rule="evenodd" filter="url(#filter838)" stroke="#ffde17">
  <g transform="translate(5 3)" fill="#ffde17" fill-rule="nonzero" stroke="#ffde17">
   <path d="m6.5 1.9961c-0.55229 0-1 0.44771-1 1s0.44771 1 1 1 1-0.44771 1-1c0-0.5523-0.4477-1-1-1zm0-1c1.1046 0 2 0.8954 2 2 0 1.1046-0.89543 2-2 2s-2-0.89543-2-2 0.89543-2 2-2z"/>
   <rect transform="translate(6.5 10.5) rotate(-90) translate(-6.5 -10.5)" x="2" y="10" width="9" height="1"/>
   <path transform="translate(6.5219 10.742) rotate(-45) translate(-6.5219 -10.742)" d="m3.8754 13.389h7v1h-7-1v-8h1v7z"/>
  </g>
 </g>
 <defs>
  <filter id="filter838" x="-.27807" y="-.2111" width="1.5561" height="1.4222" color-interpolation-filters="sRGB">
   <feGaussianBlur stdDeviation="1.3108406"/>
  </filter>
 </defs>
 <g id="kdenlive-zindex-down" fill="#ffde17" fill-rule="evenodd">
  <g transform="translate(5 3)" fill="#ffde17" fill-rule="nonzero">
   <path id="Path" d="m6.5 1.9961c-0.55229 0-1 0.44771-1 1s0.44771 1 1 1 1-0.44771 1-1c0-0.5523-0.4477-1-1-1zm0-1c1.1046 0 2 0.8954 2 2 0 1.1046-0.89543 2-2 2s-2-0.89543-2-2 0.89543-2 2-2z"/>
   <rect id="Rectangle" transform="translate(6.5 10.5) rotate(-90) translate(-6.5 -10.5)" x="2" y="10" width="9" height="1"/>
   <path id="Combined-Shape" transform="translate(6.5219 10.742) rotate(-45) translate(-6.5219 -10.742)" d="m3.8754 13.389h7v1h-7-1v-8h1v7z"/>
  </g>
 </g>
</svg>
