<?xml version="1.0" encoding="UTF-8" standalone="no"?>
<svg
   xmlns:dc="http://purl.org/dc/elements/1.1/"
   xmlns:cc="http://creativecommons.org/ns#"
   xmlns:rdf="http://www.w3.org/1999/02/22-rdf-syntax-ns#"
   xmlns:svg="http://www.w3.org/2000/svg"
   xmlns="http://www.w3.org/2000/svg"
   xmlns:sodipodi="http://sodipodi.sourceforge.net/DTD/sodipodi-0.dtd"
   xmlns:inkscape="http://www.inkscape.org/namespaces/inkscape"
   width="24px"
   height="24px"
   viewBox="0 0 24 24"
   version="1.1"
   id="svg12"
   sodipodi:docname="lock_blur.svg"
   inkscape:version="0.92.4 5da689c313, 2019-01-14">
  <metadata
     id="metadata16">
    <rdf:RDF>
      <cc:Work
         rdf:about="">
        <dc:format>image/svg+xml</dc:format>
        <dc:type
           rdf:resource="http://purl.org/dc/dcmitype/StillImage" />
        <dc:title>document-edit copy</dc:title>
      </cc:Work>
    </rdf:RDF>
  </metadata>
  <sodipodi:namedview
     pagecolor="#ffffff"
     bordercolor="#666666"
     borderopacity="1"
     objecttolerance="10"
     gridtolerance="10"
     guidetolerance="10"
     inkscape:pageopacity="0"
     inkscape:pageshadow="2"
     inkscape:window-width="1920"
     inkscape:window-height="1080"
     id="namedview14"
     showgrid="false"
     inkscape:pagecheckerboard="true"
     inkscape:zoom="27.812867"
     inkscape:cx="5.4677398"
     inkscape:cy="10.602744"
     inkscape:window-x="0"
     inkscape:window-y="0"
     inkscape:window-maximized="0"
     inkscape:current-layer="svg12" />
  <!-- Generator: Sketch 51.3 (57544) - http://www.bohemiancoding.com/sketch -->
  <title
     id="title2">document-edit copy</title>
  <desc
     id="desc4">Created with Sketch.</desc>
  <g
     style="fill:none;fill-rule:evenodd;stroke:#ffffff;stroke-width:1;stroke-opacity:1;filter:url(#filter4591)"
     id="document-edit-copy-3">
    <g
       style="fill:#dddddd;fill-rule:nonzero;stroke:#ffffff;stroke-opacity:1"
       id="27-6"
       transform="translate(6,5)">
      <path
         inkscape:connector-curvature="0"
         d="M 6,1 C 4.3434673,1 3,2.3667179 3,4.0625 V 7 H 1 v 6 H 11 V 7 H 9 V 4.0625 C 9,2.3672731 7.6561924,1 6,1 Z M 6,0 c 2.216,0 4,1.8225 4,4.0625 V 6 h 1 c 0.554,0 1,0.446 1,1 v 6 c 0,0.554 -0.446,1 -1,1 H 1 C 0.446,14 0,13.554 0,13 V 7 C 0,6.446 0.446,6 1,6 H 2 V 4.0625 C 2,1.8216 3.784,0 6,0 Z"
         id="Combined-Shape-7"
         style="stroke:#ffffff;stroke-opacity:1" />
      <rect
         id="Rectangle-5"
         x="2"
         y="6"
         width="8"
         height="1"
         style="stroke:#ffffff;stroke-opacity:1" />
    </g>
  </g>
  <defs
     id="defs6">
    <filter
       inkscape:collect="always"
       style="color-interpolation-filters:sRGB"
       id="filter4591"
       x="-0.13"
       width="1.26"
       y="-0.11142857"
       height="1.2228571">
      <feGaussianBlur
         inkscape:collect="always"
         stdDeviation="0.65"
         id="feGaussianBlur4593" />
    </filter>
  </defs>
  <g
     id="document-edit-copy"
     stroke="none"
     stroke-width="1"
     fill="none"
     fill-rule="evenodd">
    <g
       id="27"
       transform="translate(6.000000, 5.000000)"
       fill="#DDDDDD"
       fill-rule="nonzero">
      <path
         d="M6,1 C4.34346732,1 3,2.36671785 3,4.0625 L3,7 L1,7 L1,13 L11,13 L11,7 L9,7 L9,4.0625 C9,2.36727307 7.65619244,1 6,1 Z M6,0 C8.216,0 10,1.8225 10,4.0625 L10,6 L11,6 C11.554,6 12,6.446 12,7 L12,13 C12,13.554 11.554,14 11,14 L1,14 C0.446,14 0,13.554 0,13 L0,7 C0,6.446 0.446,6 1,6 L2,6 L2,4.0625 C2,1.8216 3.784,0 6,0 Z"
         id="Combined-Shape" />
      <rect
         id="Rectangle"
         x="2"
         y="6"
         width="8"
         height="1" />
    </g>
  </g>
</svg>
