<?xml version="1.0" encoding="UTF-8" standalone="no"?>
<svg
   xmlns:dc="http://purl.org/dc/elements/1.1/"
   xmlns:cc="http://creativecommons.org/ns#"
   xmlns:rdf="http://www.w3.org/1999/02/22-rdf-syntax-ns#"
   xmlns:svg="http://www.w3.org/2000/svg"
   xmlns="http://www.w3.org/2000/svg"
   xmlns:sodipodi="http://sodipodi.sourceforge.net/DTD/sodipodi-0.dtd"
   xmlns:inkscape="http://www.inkscape.org/namespaces/inkscape"
   viewBox="0 0 24 24"
   version="1.1"
   id="svg8"
   sodipodi:docname="shutdown_blur.svg"
   inkscape:version="0.92.4 5da689c313, 2019-01-14">
  <metadata
     id="metadata12">
    <rdf:RDF>
      <cc:Work
         rdf:about="">
        <dc:format>image/svg+xml</dc:format>
        <dc:type
           rdf:resource="http://purl.org/dc/dcmitype/StillImage" />
        <dc:title></dc:title>
      </cc:Work>
    </rdf:RDF>
  </metadata>
  <sodipodi:namedview
     pagecolor="#ffffff"
     bordercolor="#666666"
     borderopacity="1"
     objecttolerance="10"
     gridtolerance="10"
     guidetolerance="10"
     inkscape:pageopacity="0"
     inkscape:pageshadow="2"
     inkscape:window-width="1920"
     inkscape:window-height="1080"
     id="namedview10"
     showgrid="false"
     inkscape:zoom="9.8333333"
     inkscape:cx="-8.4406775"
     inkscape:cy="12"
     inkscape:window-x="0"
     inkscape:window-y="0"
     inkscape:window-maximized="1"
     inkscape:current-layer="svg8"
     inkscape:pagecheckerboard="true" />
  <defs
     id="defs3051">
    <style
       type="text/css"
       id="current-color-scheme">
      .ColorScheme-Text {
        color:#232629;
      }
      </style>
    <filter
       inkscape:collect="always"
       style="color-interpolation-filters:sRGB"
       id="filter818"
       x="-0.12"
       width="1.24"
       y="-0.12"
       height="1.24">
      <feGaussianBlur
         inkscape:collect="always"
         stdDeviation="0.8"
         id="feGaussianBlur820" />
    </filter>
  </defs>
  <g
     style="fill:#fffffb;fill-opacity:1;stroke:#ffffff;stroke-opacity:1;filter:url(#filter818)"
     id="g816"
     transform="translate(1,1)">
    <path
       id="path814"
       class="ColorScheme-Text"
       d="M 10 3 L 10 10 L 12 10 L 12 3 L 10 3 z M 9 3.265625 C 5.5444518 4.1502188 3 7.2610109 3 11 C 3 15.432 6.568 19 11 19 C 15.432 19 19 15.432 19 11 C 19 7.2610109 16.455548 4.1502188 13 3.265625 L 13 4.3027344 C 15.895041 5.15992 18 7.819625 18 11 C 18 14.878 14.878 18 11 18 C 7.122 18 4 14.878 4 11 C 4 7.819625 6.1049587 5.15992 9 4.3027344 L 9 3.265625 z "
       style="fill:#fffffb;fill-opacity:1;stroke:#ffffff;stroke-opacity:1" />
  </g>
  <g
     transform="translate(1,1)"
     id="g6"
     style="fill:#fffffb;fill-opacity:1">
    <path
       style="fill:#fffffb;fill-opacity:1;stroke:none"
       d="M 10 3 L 10 10 L 12 10 L 12 3 L 10 3 z M 9 3.265625 C 5.5444518 4.1502188 3 7.2610109 3 11 C 3 15.432 6.568 19 11 19 C 15.432 19 19 15.432 19 11 C 19 7.2610109 16.455548 4.1502188 13 3.265625 L 13 4.3027344 C 15.895041 5.15992 18 7.819625 18 11 C 18 14.878 14.878 18 11 18 C 7.122 18 4 14.878 4 11 C 4 7.819625 6.1049587 5.15992 9 4.3027344 L 9 3.265625 z "
       class="ColorScheme-Text"
       id="path4" />
  </g>
</svg>
