<?xml version="1.0" encoding="UTF-8" standalone="no"?>
<svg
   xmlns:dc="http://purl.org/dc/elements/1.1/"
   xmlns:cc="http://creativecommons.org/ns#"
   xmlns:rdf="http://www.w3.org/1999/02/22-rdf-syntax-ns#"
   xmlns:svg="http://www.w3.org/2000/svg"
   xmlns="http://www.w3.org/2000/svg"
   xmlns:sodipodi="http://sodipodi.sourceforge.net/DTD/sodipodi-0.dtd"
   xmlns:inkscape="http://www.inkscape.org/namespaces/inkscape"
   sodipodi:docname="lock_blur.svg"
   inkscape:version="1.0 (4035a4fb49, 2020-05-01)"
   width="64mm"
   height="64mm"
   viewBox="0 0 64 64"
   version="1.1"
   id="SVGRoot">
  <defs
     id="defs18">
    <filter
       inkscape:collect="always"
       style="color-interpolation-filters:sRGB"
       id="filter854"
       x="-0.33294369"
       width="1.6658874"
       y="-0.32486833"
       height="1.6497367">
      <feGaussianBlur
         inkscape:collect="always"
         stdDeviation="5.6464191"
         id="feGaussianBlur856" />
    </filter>
    <filter
       inkscape:collect="always"
       style="color-interpolation-filters:sRGB"
       id="filter858"
       x="-0.35994438"
       width="1.7198888"
       y="-0.43367258"
       height="1.8673452">
      <feGaussianBlur
         inkscape:collect="always"
         stdDeviation="5.6464191"
         id="feGaussianBlur860" />
    </filter>
    <filter
       inkscape:collect="always"
       style="color-interpolation-filters:sRGB"
       id="filter862"
       x="-0.54791122"
       width="2.0958224"
       y="-0.68805576"
       height="2.3761115">
      <feGaussianBlur
         inkscape:collect="always"
         stdDeviation="5.6464191"
         id="feGaussianBlur864" />
    </filter>
    <filter
       height="2.3761115"
       y="-0.68805575"
       width="2.0958223"
       x="-0.54791123"
       id="filter862-3"
       style="color-interpolation-filters:sRGB"
       inkscape:collect="always">
      <feGaussianBlur
         id="feGaussianBlur864-6"
         stdDeviation="5.6464191"
         inkscape:collect="always" />
    </filter>
  </defs>
  <sodipodi:namedview
     inkscape:pagecheckerboard="false"
     inkscape:window-maximized="1"
     inkscape:window-y="0"
     inkscape:window-x="1920"
     inkscape:window-height="1052"
     inkscape:window-width="1920"
     showgrid="false"
     inkscape:document-rotation="0"
     inkscape:current-layer="layer1"
     inkscape:document-units="mm"
     inkscape:cy="72.894475"
     inkscape:cx="57.482729"
     inkscape:zoom="1.4"
     inkscape:pageshadow="2"
     inkscape:pageopacity="0"
     borderopacity="1.0"
     bordercolor="#666666"
     pagecolor="#000000"
     id="base" />
  <metadata
     id="metadata21">
    <rdf:RDF>
      <cc:Work
         rdf:about="">
        <dc:format>image/svg+xml</dc:format>
        <dc:type
           rdf:resource="http://purl.org/dc/dcmitype/StillImage" />
        <dc:title />
      </cc:Work>
    </rdf:RDF>
  </metadata>
  <g
     id="layer1"
     inkscape:groupmode="layer"
     inkscape:label="Layer 1">
    <path
       d="m 37.599383,9.0777718 c -2.731007,2.6480322 -5.784169,4.9462302 -8.781005,7.2812382 -3.001971,2.292486 -6.10088,4.45686 -9.295304,6.472182 -0.433014,0.266178 -0.863512,0.537433 -1.308771,0.782971 -2.844336,1.579705 -0.610296,5.602205 2.234041,4.0225 v 0 c 0.519096,-0.289546 1.026174,-0.599854 1.530467,-0.914353 3.322158,-2.097371 6.546377,-4.347598 9.66781,-6.733909 3.137994,-2.445633 6.330493,-4.857002 9.185074,-7.635938 2.315553,-2.285589 -0.916756,-5.56028 -3.232312,-3.2746912 z"
       id="path231"
       style="fill:#ffffff;stroke-width:0.306749" />
    <path
       d="m 18.868861,26.49745 c 3.104812,1.814349 6.167834,3.709274 9.121819,5.762002 0.948035,0.658791 1.875041,1.347339 2.81256,2.021011 5.132091,3.858099 10.000938,8.052442 14.808152,12.30416 1.241106,1.13405 2.487092,2.264312 3.691161,3.438061 0.447063,0.435805 0.834595,0.855608 1.199259,1.356484 0.207286,0.293043 0.203461,0.471682 0.07123,0.04915 0.756837,3.164321 5.231859,2.093992 4.475026,-1.070327 v 0 c -0.177565,-0.629653 -0.472498,-1.205063 -0.860794,-1.733589 -1.5753,-2.076612 -3.654157,-3.694336 -5.527703,-5.486516 -4.924036,-4.354277 -9.911926,-8.649047 -15.172673,-12.594985 -0.978886,-0.702354 -1.94702,-1.419942 -2.936657,-2.107065 -3.099181,-2.151814 -6.311813,-4.142011 -9.577079,-6.030244 -2.893384,-1.487969 -4.99769,2.603893 -2.104306,4.091863 z"
       id="path233"
       style="fill:#ffffff;stroke-width:0.306749" />
    <path
       d="M 45.893102,13.172439 C 45.298852,12.11699 44.493346,11.207615 43.695144,10.304684 43.041936,9.7019978 41.909949,8.5038833 40.857425,9.5110011 c -0.904967,0.8659249 -0.951246,2.3703959 -1.000308,3.6219479 -0.01816,0.463253 0.534628,0.757769 0.814129,1.127649 0.689864,0.912938 1.412131,1.800934 2.116651,2.70261 0.358861,0.467342 0.718773,0.933878 1.076578,1.402027 0.110952,0.145161 1.494818,1.96399 1.690592,2.230588 0.03027,0.04122 0.580386,0.767647 0.656604,1.008928 0.02755,0.08723 -0.09757,-0.154781 -0.146363,-0.232171 -0.0053,-0.437632 0.114603,-0.895185 -0.01605,-1.312899 -0.04035,-0.129017 -0.212302,0.167545 -0.314504,0.25602 -0.269928,0.233674 -0.52646,0.482857 -0.801687,0.710262 -1.893498,1.564479 -3.926229,2.942851 -5.940162,4.34414 -6.997192,4.711136 -13.947198,9.492954 -20.742917,14.491149 -2.485163,1.897722 -4.982342,3.820161 -7.105021,6.128955 -0.400241,0.432716 -0.7498,0.898856 -1.035429,1.412919 -1.4085592,2.932863 2.739134,4.924867 4.147694,1.992003 v 0 c -0.360503,0.614534 0.184034,-0.27751 0.285102,-0.301804 1.901734,-2.101575 4.210863,-3.789133 6.434091,-5.525593 6.762933,-4.975383 13.682279,-9.731363 20.645476,-14.421413 2.16698,-1.509488 4.359951,-2.992841 6.383738,-4.695341 0.312268,-0.262694 1.768171,-1.551396 1.955814,-1.969278 0.316252,-0.704302 0.374796,-1.497919 0.562191,-2.246878 -0.107515,-0.307557 -0.188137,-0.625887 -0.322574,-0.922671 -0.188055,-0.41516 -0.725741,-1.150892 -0.973898,-1.488868 -0.91585,-1.247344 -1.880651,-2.458667 -2.813584,-3.693043 -1.356051,-1.735489 -0.801561,-1.029156 -2.052439,-2.618448 -0.159545,-0.202709 -0.315993,-0.808057 -0.478828,-0.607979 -0.678959,0.834252 -0.505416,2.30472 -1.394618,2.90993 -2.491049,1.695455 -2.324573,0.297462 -2.238993,-0.460508 0.590294,0.666871 1.203674,1.325893 1.649426,2.102146 1.614285,2.824855 5.609235,0.541914 3.99495,-2.282942 z"
       id="path235"
       style="fill:#ffffff;stroke-width:0.306749" />
    <path
       style="fill:#ffffff;stroke-width:0.30675;filter:url(#filter862)"
       id="path231-3"
       d="m 37.599383,9.077771 c -2.731006,2.648033 -5.784168,4.946231 -8.781005,7.281239 -3.001971,2.292486 -6.10088,4.45686 -9.295304,6.472182 -0.433014,0.266178 -0.863511,0.537433 -1.308771,0.782971 -2.844335,1.579705 -0.610295,5.602205 2.234041,4.0225 v 0 c 0.519096,-0.289546 1.026174,-0.599854 1.530467,-0.914353 3.322158,-2.097372 6.546378,-4.347599 9.667811,-6.733909 3.137994,-2.445633 6.330494,-4.857002 9.185073,-7.635938 2.315554,-2.285589 -0.916755,-5.56028 -3.232312,-3.274692 z" />
    <path
       style="fill:#ffffff;stroke-width:0.30675;filter:url(#filter858)"
       id="path233-6"
       d="m 18.868861,26.49745 c 3.104812,1.814349 6.167834,3.709274 9.121819,5.762002 0.948035,0.658791 1.875041,1.347339 2.81256,2.021011 5.132092,3.858099 10.000938,8.052441 14.808153,12.30416 1.241104,1.134049 2.487091,2.264312 3.691162,3.43806 0.447061,0.435805 0.834594,0.855609 1.199258,1.356484 0.207285,0.293045 0.20346,0.471683 0.07123,0.04915 0.756838,3.164321 5.23186,2.093992 4.475027,-1.070327 v 0 C 54.870506,49.728337 54.575572,49.152926 54.187275,48.6244 52.611975,46.547789 50.53312,44.930063 48.659573,43.137884 43.735537,38.783607 38.747647,34.488837 33.4869,30.542899 32.508014,29.840545 31.53988,29.122957 30.550242,28.435834 27.451061,26.28402 24.238429,24.293823 20.973163,22.40559 c -2.893384,-1.48797 -4.997689,2.603893 -2.104306,4.091863 z" />
    <path
       style="fill:#ffffff;stroke-width:0.30675;filter:url(#filter854)"
       id="path235-7"
       d="M 45.893102,13.172439 C 45.298853,12.11699 44.493345,11.207615 43.695145,10.304684 43.041936,9.701998 41.909948,8.503883 40.857425,9.511001 c -0.904967,0.865925 -0.951246,2.370396 -1.000307,3.621948 -0.01815,0.463253 0.534627,0.757769 0.814128,1.127649 0.689864,0.912938 1.412132,1.800934 2.116651,2.70261 0.358862,0.467342 0.718775,0.933878 1.076579,1.402026 0.110953,0.145161 1.494819,1.963991 1.690592,2.230588 0.03027,0.04122 0.580385,0.767647 0.656603,1.008929 0.02755,0.08723 -0.09757,-0.154781 -0.146362,-0.232171 -0.0053,-0.437632 0.114602,-0.895186 -0.01606,-1.312899 -0.04035,-0.129017 -0.212302,0.167545 -0.314505,0.25602 -0.269928,0.233674 -0.52646,0.482857 -0.801688,0.710261 -1.893498,1.56448 -3.926228,2.942852 -5.94016,4.344141 -6.997193,4.711136 -13.947199,9.492955 -20.742918,14.491148 -2.485163,1.897722 -4.982342,3.820163 -7.105021,6.128957 -0.400241,0.432715 -0.7498,0.898855 -1.035429,1.412917 -1.408559,2.932864 2.739134,4.924867 4.147694,1.992003 v 0 c -0.360503,0.614534 0.184034,-0.277508 0.285102,-0.301802 1.901734,-2.101575 4.210863,-3.789135 6.434091,-5.525593 6.762933,-4.975384 13.682279,-9.731364 20.645476,-14.421414 2.16698,-1.509488 4.35995,-2.992841 6.383737,-4.695341 0.312269,-0.262694 1.768171,-1.551396 1.955816,-1.969278 0.316251,-0.704302 0.374796,-1.49792 0.562189,-2.246878 -0.107513,-0.307557 -0.188137,-0.625887 -0.322572,-0.922671 -0.188055,-0.41516 -0.725741,-1.150892 -0.973899,-1.488868 -0.91585,-1.247344 -1.88065,-2.458667 -2.813585,-3.693043 -1.35605,-1.735489 -0.80156,-1.029156 -2.052439,-2.618448 -0.159543,-0.202709 -0.315991,-0.808057 -0.478827,-0.607979 -0.67896,0.834252 -0.505415,2.30472 -1.394618,2.90993 -2.49105,1.695455 -2.324574,0.297462 -2.238992,-0.460508 0.590293,0.666871 1.203672,1.325893 1.649426,2.102146 1.614284,2.824855 5.609235,0.541914 3.994949,-2.282942 z" />
    <path
       style="fill:#ffffff;stroke-width:0.30675"
       id="path231-7"
       d="m 37.599383,9.0777728 c -2.731005,2.6480322 -5.784167,4.9462302 -8.781005,7.2812382 -3.001971,2.292486 -6.10088,4.45686 -9.295304,6.472181 -0.433014,0.266179 -0.863512,0.537435 -1.308771,0.782971 -2.844336,1.579705 -0.610296,5.602205 2.234041,4.0225 v 0 c 0.519096,-0.289544 1.026174,-0.599853 1.530467,-0.914353 3.322158,-2.09737 6.546377,-4.347596 9.667809,-6.733908 3.137996,-2.445633 6.330495,-4.857002 9.185074,-7.635938 2.315554,-2.285589 -0.916754,-5.5602802 -3.232311,-3.2746912 z" />
    <path
       style="fill:#ffffff;stroke-width:0.30675"
       id="path233-5"
       d="m 18.868861,26.497452 c 3.104812,1.814348 6.167834,3.709273 9.121819,5.762 0.948035,0.658792 1.875041,1.347341 2.81256,2.021012 5.132091,3.858099 10.000938,8.052442 14.808152,12.304162 1.241108,1.13405 2.487092,2.26431 3.691163,3.43806 0.447061,0.43581 0.834593,0.85561 1.199258,1.35648 0.207285,0.29305 0.203459,0.47169 0.07123,0.0491 0.756838,3.16433 5.23186,2.094 4.475027,-1.07032 v 0 c -0.177564,-0.62966 -0.472498,-1.20507 -0.860795,-1.73359 -1.5753,-2.07661 -3.654155,-3.69434 -5.527702,-5.48652 -4.924036,-4.35428 -9.911926,-8.649046 -15.172674,-12.594983 -0.978887,-0.702355 -1.947018,-1.419942 -2.936655,-2.107065 -3.099183,-2.151814 -6.311815,-4.14201 -9.577081,-6.030243 -2.893384,-1.48797 -4.99769,2.603891 -2.104306,4.091863 z" />
    <path
       style="fill:#ffffff;stroke-width:0.30675"
       id="path235-3"
       d="M 45.893102,13.17244 C 45.298853,12.116991 44.493348,11.207616 43.695145,10.304685 43.041936,9.7019988 41.909951,8.5038838 40.857425,9.5110018 39.952458,10.376927 39.906179,11.881398 39.857118,13.13295 c -0.01815,0.463253 0.534627,0.757769 0.814128,1.127649 0.689864,0.912938 1.412131,1.800934 2.116651,2.70261 0.358862,0.467342 0.718775,0.933878 1.076579,1.402027 0.110953,0.145161 1.494819,1.96399 1.690592,2.230588 0.03027,0.04122 0.580385,0.767647 0.656603,1.008929 0.02755,0.08723 -0.09757,-0.154781 -0.146362,-0.232172 -0.0053,-0.437632 0.114601,-0.895185 -0.01606,-1.312899 -0.04035,-0.129017 -0.212302,0.167545 -0.314505,0.25602 -0.269928,0.233674 -0.52646,0.482857 -0.801688,0.710262 -1.893496,1.564478 -3.926229,2.942852 -5.94016,4.34414 -6.997192,4.711137 -13.947199,9.492954 -20.742918,14.491152 -2.485163,1.89772 -4.982343,3.82016 -7.105022,6.12895 -0.400241,0.43272 -0.7498,0.89886 -1.035429,1.41292 -1.408559,2.93286 2.739134,4.92487 4.147695,1.99201 v 0 c -0.360503,0.61453 0.184034,-0.27752 0.285102,-0.30181 1.901734,-2.10157 4.210863,-3.78913 6.434091,-5.52559 6.762933,-4.975386 13.682278,-9.731367 20.645476,-14.421416 2.16698,-1.509488 4.35995,-2.99284 6.383737,-4.695341 0.312269,-0.262694 1.768171,-1.551395 1.955816,-1.969278 0.316251,-0.704302 0.374795,-1.497919 0.562189,-2.246878 -0.107513,-0.307557 -0.188137,-0.625887 -0.322572,-0.922671 -0.188055,-0.41516 -0.725741,-1.150892 -0.973899,-1.488868 -0.91585,-1.247344 -1.880651,-2.458667 -2.813585,-3.693043 -1.35605,-1.735489 -0.80156,-1.029156 -2.052439,-2.618448 -0.159544,-0.202709 -0.315992,-0.808057 -0.478827,-0.607979 -0.678958,0.834252 -0.505415,2.30472 -1.394619,2.90993 -2.491049,1.695455 -2.324573,0.297462 -2.238991,-0.460508 0.590293,0.666871 1.203674,1.325893 1.649426,2.102146 1.614283,2.824855 5.609235,0.541914 3.994949,-2.282942 z" />
    <path
       d="m 37.599383,9.0777718 c -2.731006,2.6480332 -5.784168,4.9462312 -8.781005,7.2812392 -3.001971,2.292486 -6.10088,4.45686 -9.295304,6.472182 -0.433014,0.266178 -0.863511,0.537433 -1.308771,0.782971 -2.844335,1.579705 -0.610295,5.602205 2.234041,4.0225 v 0 c 0.519096,-0.289546 1.026174,-0.599854 1.530467,-0.914353 3.322158,-2.097372 6.546378,-4.347599 9.667811,-6.733909 3.137994,-2.445633 6.330494,-4.857002 9.185074,-7.635938 C 43.14725,10.066875 39.91494,6.7921838 37.599383,9.0777718 Z"
       id="path231-3-5"
       style="fill:#ffffff;stroke-width:0.30675;filter:url(#filter862-3)" />
  </g>
</svg>
