<?xml version="1.0" encoding="UTF-8" standalone="no"?>
<svg
   xmlns:dc="http://purl.org/dc/elements/1.1/"
   xmlns:cc="http://creativecommons.org/ns#"
   xmlns:rdf="http://www.w3.org/1999/02/22-rdf-syntax-ns#"
   xmlns:svg="http://www.w3.org/2000/svg"
   xmlns="http://www.w3.org/2000/svg"
   xmlns:sodipodi="http://sodipodi.sourceforge.net/DTD/sodipodi-0.dtd"
   xmlns:inkscape="http://www.inkscape.org/namespaces/inkscape"
   sodipodi:docname="restart_blur.svg"
   inkscape:version="1.0 (4035a4fb49, 2020-05-01)"
   width="64mm"
   height="64mm"
   viewBox="0 0 64 64"
   version="1.1"
   id="SVGRoot">
  <defs
     id="defs18">
    <filter
       inkscape:collect="always"
       style="color-interpolation-filters:sRGB"
       id="filter858"
       x="-0.30849965"
       width="1.6169993"
       y="-0.81865294"
       height="2.6373059">
      <feGaussianBlur
         inkscape:collect="always"
         stdDeviation="5.4128288"
         id="feGaussianBlur860" />
    </filter>
    <filter
       inkscape:collect="always"
       style="color-interpolation-filters:sRGB"
       id="filter862"
       x="-0.45151887"
       width="1.9030377"
       y="-0.9422686"
       height="2.8845372">
      <feGaussianBlur
         inkscape:collect="always"
         stdDeviation="5.4128288"
         id="feGaussianBlur864" />
    </filter>
    <filter
       inkscape:collect="always"
       style="color-interpolation-filters:sRGB"
       id="filter866"
       x="-0.45216078"
       width="1.9043216"
       y="-1.0135237"
       height="3.0270474">
      <feGaussianBlur
         inkscape:collect="always"
         stdDeviation="5.4128288"
         id="feGaussianBlur868" />
    </filter>
    <filter
       inkscape:collect="always"
       style="color-interpolation-filters:sRGB"
       id="filter870"
       x="-0.53911079"
       width="2.0782216"
       y="-0.64637561"
       height="2.2927512">
      <feGaussianBlur
         inkscape:collect="always"
         stdDeviation="5.4128288"
         id="feGaussianBlur872" />
    </filter>
    <filter
       height="2.637306"
       y="-0.81865293"
       width="1.6169993"
       x="-0.30849966"
       id="filter858-3"
       style="color-interpolation-filters:sRGB"
       inkscape:collect="always">
      <feGaussianBlur
         id="feGaussianBlur860-6"
         stdDeviation="5.4128288"
         inkscape:collect="always" />
    </filter>
    <filter
       height="2.8845372"
       y="-0.94226861"
       width="1.9030377"
       x="-0.45151886"
       id="filter862-7"
       style="color-interpolation-filters:sRGB"
       inkscape:collect="always">
      <feGaussianBlur
         id="feGaussianBlur864-5"
         stdDeviation="5.4128288"
         inkscape:collect="always" />
    </filter>
    <filter
       height="3.0270474"
       y="-1.0135237"
       width="1.9043216"
       x="-0.45216078"
       id="filter866-3"
       style="color-interpolation-filters:sRGB"
       inkscape:collect="always">
      <feGaussianBlur
         id="feGaussianBlur868-5"
         stdDeviation="5.4128288"
         inkscape:collect="always" />
    </filter>
    <filter
       height="2.2927513"
       y="-0.6463756"
       width="2.0782216"
       x="-0.53911078"
       id="filter870-6"
       style="color-interpolation-filters:sRGB"
       inkscape:collect="always">
      <feGaussianBlur
         id="feGaussianBlur872-2"
         stdDeviation="5.4128288"
         inkscape:collect="always" />
    </filter>
  </defs>
  <sodipodi:namedview
     inkscape:pagecheckerboard="false"
     inkscape:window-maximized="1"
     inkscape:window-y="0"
     inkscape:window-x="1920"
     inkscape:window-height="1052"
     inkscape:window-width="1920"
     showgrid="false"
     inkscape:document-rotation="0"
     inkscape:current-layer="layer1"
     inkscape:document-units="mm"
     inkscape:cy="70.037332"
     inkscape:cx="57.482729"
     inkscape:zoom="1.4"
     inkscape:pageshadow="2"
     inkscape:pageopacity="0"
     borderopacity="1.0"
     bordercolor="#666666"
     pagecolor="#000000"
     id="base" />
  <metadata
     id="metadata21">
    <rdf:RDF>
      <cc:Work
         rdf:about="">
        <dc:format>image/svg+xml</dc:format>
        <dc:type
           rdf:resource="http://purl.org/dc/dcmitype/StillImage" />
        <dc:title />
      </cc:Work>
    </rdf:RDF>
  </metadata>
  <g
     id="layer1"
     inkscape:groupmode="layer"
     inkscape:label="Layer 1">
    <path
       d="m 30.034113,15.067052 c 3.366437,2.699366 6.750698,5.375975 10.108009,8.086808 3.004416,2.437863 6.006793,4.878217 9.031727,7.290619 0.553781,0.435893 0.298413,0.241695 0.762902,0.586783 2.25656,1.668359 4.615977,-1.522902 2.359414,-3.191259 v 0 c -0.363207,-0.266644 -0.14537,-0.103029 -0.64779,-0.498377 -3.018708,-2.407397 -6.014767,-4.842853 -9.013028,-7.275615 -3.405534,-2.749695 -6.836503,-5.467094 -10.255319,-8.200155 -2.263587,-1.658813 -4.609502,1.542383 -2.345915,3.201196 z"
       id="path325"
       style="fill:#ffffff;stroke-width:0.264583" />
    <path
       d="m 49.215815,27.599716 c -2.069082,0.813676 -4.101825,1.716067 -6.169308,2.534108 -1.996213,0.789842 -2.674186,1.022898 -4.698095,1.763519 -3.52833,1.265225 -7.098332,2.408008 -10.678351,3.516601 -1.003887,0.270518 -1.974619,0.644822 -2.962214,0.964504 -2.665938,0.876507 -1.42637,4.646711 1.239568,3.770204 v 0 c 0.963657,-0.319987 1.916371,-0.673888 2.896645,-0.943573 3.643952,-1.128445 7.27752,-2.29231 10.86862,-3.580841 3.628218,-1.328592 7.216595,-2.751778 10.772214,-4.264147 2.658986,-0.897374 1.389906,-4.657749 -1.269079,-3.760375 z"
       id="path327"
       style="fill:#ffffff;stroke-width:0.264583" />
    <path
       d="M 34.245528,25.769936 C 29.630296,27.382869 25.0394,29.061005 20.47148,30.803418 16.945471,32.216944 13.4157,33.641395 9.9864848,35.280057 9.8052431,35.38483 9.6240017,35.489605 9.44276,35.594377 c -2.4110987,1.435999 -0.3802901,4.845807 2.030808,3.40981 v 0 c 0.07542,-0.04809 0.150833,-0.09617 0.22625,-0.144262 3.32928,-1.596194 6.763277,-2.969945 10.186217,-4.348406 4.618595,-1.762032 9.264268,-3.447513 13.92484,-5.094576 2.578825,-1.106868 1.013476,-4.753876 -1.565347,-3.647007 z"
       id="path329"
       style="fill:#ffffff;stroke-width:0.264583" />
    <path
       d="m 9.0680065,40.366558 c 4.1759935,1.179309 8.2966815,2.544249 12.4238145,3.881818 6.774354,2.222252 13.567185,4.387443 20.386577,6.467388 1.725456,0.485775 3.423592,1.075108 5.160383,1.521127 2.720091,0.690356 3.696401,-3.156435 0.976309,-3.846791 v 0 C 46.336505,47.971662 44.704809,47.373243 43.036198,46.919649 36.238759,44.846507 29.467921,42.687999 22.715392,40.47295 18.552539,39.123831 14.396012,37.747717 10.183965,36.557934 7.4908615,35.768833 6.374903,39.577454 9.0680065,40.366558 Z"
       id="path331"
       style="fill:#ffffff;stroke-width:0.264583" />
    <path
       style="fill:#ffffff;stroke-width:0.264583;filter:url(#filter870)"
       id="path325-3"
       d="m 30.034112,15.067052 c 3.366437,2.699366 6.750699,5.375975 10.10801,8.086808 3.004415,2.437863 6.006793,4.878217 9.031727,7.290619 0.553781,0.435893 0.298413,0.241695 0.762902,0.586783 2.25656,1.668359 4.615977,-1.522902 2.359414,-3.191259 v 0 c -0.363207,-0.266644 -0.14537,-0.103029 -0.64779,-0.498377 -3.018708,-2.407397 -6.014767,-4.842853 -9.013028,-7.275615 -3.405535,-2.749695 -6.836503,-5.467094 -10.25532,-8.200155 -2.263587,-1.658813 -4.609502,1.542383 -2.345915,3.201196 z" />
    <path
       style="fill:#ffffff;stroke-width:0.264583;filter:url(#filter866)"
       id="path327-6"
       d="m 49.215815,27.599716 c -2.069082,0.813676 -4.101825,1.716067 -6.169309,2.534108 -1.996212,0.789842 -2.674186,1.022898 -4.698095,1.763519 -3.52833,1.265225 -7.098332,2.408008 -10.678351,3.516601 -1.003887,0.270518 -1.974619,0.644822 -2.962214,0.964504 -2.665938,0.876507 -1.42637,4.646712 1.239568,3.770203 v 0 c 0.963657,-0.319987 1.916371,-0.673886 2.896645,-0.943573 3.643952,-1.128445 7.277521,-2.292309 10.868621,-3.58084 3.628218,-1.328592 7.216595,-2.751778 10.772214,-4.264147 2.658986,-0.897374 1.389906,-4.657749 -1.269079,-3.760375 z" />
    <path
       style="fill:#ffffff;stroke-width:0.264583;filter:url(#filter862)"
       id="path329-7"
       d="m 34.245528,25.769936 c -4.615233,1.612933 -9.206129,3.291069 -13.774049,5.033482 -3.526009,1.413526 -7.05578,2.837977 -10.484995,4.476639 -0.1812417,0.104773 -0.3624831,0.209548 -0.5437248,0.31432 -2.4110988,1.435999 -0.3802901,4.845808 2.0308078,3.409811 v 0 c 0.07542,-0.04809 0.150833,-0.09617 0.22625,-0.144264 3.32928,-1.596193 6.763277,-2.969944 10.186217,-4.348405 4.618595,-1.762032 9.264268,-3.447513 13.924841,-5.094576 2.578825,-1.106868 1.013475,-4.753876 -1.565347,-3.647007 z" />
    <path
       style="fill:#ffffff;stroke-width:0.264583;filter:url(#filter858)"
       id="path331-5"
       d="m 9.0680057,40.366559 c 4.1759933,1.179309 8.2966813,2.544249 12.4238143,3.881816 6.774354,2.222254 13.567185,4.387445 20.386577,6.46739 1.725457,0.485775 3.423592,1.075108 5.160384,1.521127 2.720091,0.690356 3.696401,-3.156437 0.976309,-3.846793 v 0 C 46.336505,47.971663 44.704809,47.373244 43.036198,46.919648 36.238759,44.846508 29.46792,42.688 22.715391,40.472951 18.552538,39.12383 14.396011,37.747717 10.183964,36.557934 7.4908606,35.768833 6.3749022,39.577455 9.0680057,40.366559 Z" />
    <path
       style="fill:#ffffff;stroke-width:0.264583"
       id="path325-9"
       d="m 30.034113,15.067052 c 3.366437,2.699366 6.750698,5.375975 10.10801,8.086808 3.004415,2.437862 6.006793,4.878217 9.031726,7.290619 0.553781,0.435893 0.298413,0.241694 0.762903,0.586782 2.256559,1.66836 4.615976,-1.522902 2.359413,-3.191258 v 0 c -0.363206,-0.266645 -0.14537,-0.103029 -0.647789,-0.498377 -3.018708,-2.407396 -6.014768,-4.842853 -9.013029,-7.275615 -3.405534,-2.749695 -6.836503,-5.467094 -10.255319,-8.200155 -2.263587,-1.658813 -4.609502,1.542383 -2.345915,3.201196 z" />
    <path
       style="fill:#ffffff;stroke-width:0.264583"
       id="path327-1"
       d="m 49.215815,27.599716 c -2.069081,0.813676 -4.101825,1.716067 -6.169308,2.534108 -1.996213,0.789842 -2.674186,1.022898 -4.698095,1.763519 -3.52833,1.265225 -7.098332,2.408008 -10.678351,3.516601 -1.003887,0.270518 -1.97462,0.644821 -2.962214,0.964504 -2.665939,0.876507 -1.426371,4.646711 1.239568,3.770204 v 0 c 0.963657,-0.319987 1.916371,-0.673888 2.896645,-0.943573 3.643953,-1.128445 7.27752,-2.29231 10.86862,-3.580841 3.628218,-1.328592 7.216595,-2.751778 10.772214,-4.264147 2.658986,-0.897374 1.389907,-4.657749 -1.269079,-3.760375 z" />
    <path
       style="fill:#ffffff;stroke-width:0.264583"
       id="path329-2"
       d="m 34.245528,25.769937 c -4.615232,1.612932 -9.206129,3.291068 -13.774048,5.033481 -3.526009,1.413526 -7.05578,2.837977 -10.484995,4.476639 -0.181242,0.104772 -0.362484,0.209547 -0.543725,0.31432 -2.411099,1.435999 -0.38029,4.845806 2.030808,3.40981 v 0 c 0.07542,-0.04809 0.150833,-0.09617 0.22625,-0.144262 3.32928,-1.596194 6.763277,-2.969945 10.186216,-4.348406 4.618596,-1.762032 9.264269,-3.447513 13.924841,-5.094576 2.578825,-1.106868 1.013476,-4.753876 -1.565347,-3.647006 z" />
    <path
       style="fill:#ffffff;stroke-width:0.264583"
       id="path331-7"
       d="m 9.068006,40.366558 c 4.175994,1.179309 8.296682,2.544249 12.423815,3.881818 6.774354,2.222252 13.567185,4.387443 20.386577,6.467388 1.725456,0.485775 3.423592,1.075108 5.160383,1.521127 2.720091,0.690356 3.696401,-3.156435 0.97631,-3.846791 v 0 c -1.678586,-0.418438 -3.310282,-1.016857 -4.978892,-1.470451 -6.79744,-2.073142 -13.568278,-4.23165 -20.320807,-6.4467 -4.162853,-1.349118 -8.31938,-2.725232 -12.531427,-3.915015 -2.693104,-0.789102 -3.809062,3.01952 -1.115959,3.808624 z" />
    <path
       d="m 30.034112,15.067052 c 3.366437,2.699366 6.750699,5.375975 10.10801,8.086808 3.004415,2.437863 6.006793,4.878217 9.031727,7.290619 0.553781,0.435893 0.298413,0.241695 0.762902,0.586783 2.25656,1.668359 4.615977,-1.522902 2.359414,-3.191259 v 0 c -0.363207,-0.266644 -0.14537,-0.103029 -0.64779,-0.498377 -3.018708,-2.407397 -6.014767,-4.842853 -9.013028,-7.275615 -3.405535,-2.749695 -6.836503,-5.467094 -10.25532,-8.200155 -2.263587,-1.658813 -4.609502,1.542383 -2.345915,3.201196 z"
       id="path325-3-0"
       style="fill:#ffffff;stroke-width:0.264583;filter:url(#filter870-6)" />
    <path
       d="m 49.215815,27.599716 c -2.069082,0.813676 -4.101825,1.716067 -6.169309,2.534108 -1.996212,0.789842 -2.674186,1.022898 -4.698095,1.763519 -3.52833,1.265225 -7.098332,2.408008 -10.678351,3.516601 -1.003887,0.270518 -1.974619,0.644822 -2.962214,0.964504 -2.665938,0.876507 -1.42637,4.646712 1.239568,3.770203 v 0 c 0.963657,-0.319987 1.916371,-0.673886 2.896645,-0.943573 3.643952,-1.128445 7.277521,-2.292309 10.868621,-3.58084 3.628218,-1.328592 7.216595,-2.751778 10.772214,-4.264147 2.658986,-0.897374 1.389906,-4.657749 -1.269079,-3.760375 z"
       id="path327-6-9"
       style="fill:#ffffff;stroke-width:0.264583;filter:url(#filter866-3)" />
    <path
       d="m 34.245528,25.769936 c -4.615233,1.612933 -9.206129,3.291069 -13.774049,5.033482 -3.526009,1.413526 -7.05578,2.837977 -10.484995,4.476639 -0.181242,0.104773 -0.362483,0.209548 -0.543725,0.31432 -2.411099,1.435999 -0.38029,4.845808 2.030808,3.409811 v 0 c 0.07542,-0.04809 0.150833,-0.09617 0.22625,-0.144264 3.32928,-1.596193 6.763277,-2.969944 10.186217,-4.348405 4.618595,-1.762032 9.264268,-3.447513 13.924841,-5.094576 2.578825,-1.106868 1.013475,-4.753876 -1.565347,-3.647007 z"
       id="path329-7-3"
       style="fill:#ffffff;stroke-width:0.264583;filter:url(#filter862-7)" />
    <path
       d="m 9.068005,40.366559 c 4.175994,1.179309 8.296682,2.544249 12.423815,3.881816 6.774354,2.222254 13.567185,4.387445 20.386577,6.46739 1.725457,0.485775 3.423592,1.075108 5.160384,1.521127 2.720091,0.690356 3.696401,-3.156437 0.976309,-3.846793 v 0 C 46.336505,47.971663 44.704809,47.373244 43.036198,46.919648 36.238759,44.846508 29.46792,42.688 22.715391,40.472951 18.552538,39.12383 14.396011,37.747717 10.183964,36.557934 7.49086,35.768833 6.374902,39.577455 9.068005,40.366559 Z"
       id="path331-5-6"
       style="fill:#ffffff;stroke-width:0.264583;filter:url(#filter858-3)" />
  </g>
</svg>
