<?xml version="1.0" encoding="UTF-8"?>
<svg width="24px" height="24px" version="1.1" viewBox="0 0 24 24" xmlns="http://www.w3.org/2000/svg" xmlns:cc="http://creativecommons.org/ns#" xmlns:dc="http://purl.org/dc/elements/1.1/" xmlns:rdf="http://www.w3.org/1999/02/22-rdf-syntax-ns#">
 <metadata>
  <rdf:RDF>
   <cc:Work rdf:about="">
    <dc:format>image/svg+xml</dc:format>
    <dc:type rdf:resource="http://purl.org/dc/dcmitype/StillImage"/>
    <dc:title>configure</dc:title>
   </cc:Work>
  </rdf:RDF>
 </metadata>
 <!-- Generator: Sketch 51.3 (57544) - http://www.bohemiancoding.com/sketch -->
 <title>configure</title>
 <g fill="#0fc" fill-rule="evenodd" filter="url(#filter835)" stroke="#ddd">
  <g transform="translate(5,5)" fill="#0fc" fill-rule="nonzero" stroke="#ddd">
   <path d="m6.1698 1-0.13061 1.5607-0.59615 0.22082c-0.47833 0.17718-0.92306 0.4344-1.3152 0.76065l-0.4895 0.40729-1.4197-0.6685-0.83021 1.438 1.2917 0.89709-0.1115 0.63037c-0.044329 0.25062-0.067316 0.50455-0.0687 0.75293 1.619e-4 0.25548 0.02208 0.51049 0.065518 0.76225l0.1084 0.62828-1.2852 0.89155 0.82999 1.4377 1.4135-0.66545 0.48896 0.40376c0.39342 0.32487 0.83923 0.58047 1.3184 0.75586l0.60108 0.22004 0.12754 1.5686h1.6582l0.13061-1.5607 0.59615-0.22082c0.47833-0.17718 0.92306-0.4344 1.3152-0.76065l0.4895-0.40729 1.4197 0.6685 0.83021-1.438-1.2918-0.89709 0.1115-0.63037c0.04433-0.25062 0.06732-0.50455 0.0687-0.75293-1.62e-4 -0.25548-0.02208-0.51049-0.06552-0.76225l-0.1084-0.62828 1.2852-0.89155-0.82999-1.4377-1.4135 0.66545-0.48896-0.40376c-0.39342-0.32487-0.83923-0.58047-1.3184-0.75586l-0.60108-0.22003-0.12754-1.5686zm-0.91981-1h3.5l0.15039 1.8496c0.5856 0.21437 1.1305 0.52676 1.6113 0.92383l1.6719-0.78711 1.75 3.0312-1.5176 1.0527c0.05309 0.30771 0.07988 0.61938 0.08008 0.93164-0.0017 0.31106-0.0298 0.62142-0.08399 0.92773l1.5215 1.0566-1.75 3.0312-1.6758-0.78906c-0.47924 0.39876-1.0228 0.71314-1.6074 0.92969l-0.1543 1.8438h-3.5l-0.15039-1.8496c-0.5856-0.21437-1.1305-0.52676-1.6113-0.92383l-1.6719 0.78711-1.75-3.0312 1.5176-1.0527c-0.053091-0.30771-0.07988-0.61938-0.080078-0.93164 0.0017091-0.31106 0.029805-0.62142 0.083984-0.92773l-1.5215-1.0566 1.75-3.0312 1.6758 0.78906c0.47924-0.39876 1.0228-0.71314 1.6074-0.92969z"/>
   <path d="m7 5c1.1046 0 2 0.89543 2 2s-0.89543 2-2 2-2-0.89543-2-2 0.89543-2 2-2zm0 3c0.55228 0 1-0.44772 1-1 0-0.55228-0.44772-1-1-1-0.55228 0-1 0.44772-1 1 0 0.55228 0.44772 1 1 1z"/>
  </g>
 </g>
 <desc>Created with Sketch.</desc>
 <defs>
  <filter id="filter835" x="-.24113" y="-.23888" width="1.4823" height="1.4778" color-interpolation-filters="sRGB">
   <feGaussianBlur stdDeviation="1.3936523"/>
  </filter>
 </defs>
 <g id="configure" fill="#ddd" fill-rule="evenodd">
  <g transform="translate(5,5)" fill="#ddd" fill-rule="nonzero">
   <path id="Path" d="m6.1698 1-0.13061 1.5607-0.59615 0.22082c-0.47833 0.17718-0.92306 0.4344-1.3152 0.76065l-0.4895 0.40729-1.4197-0.6685-0.83021 1.438 1.2917 0.89709-0.1115 0.63037c-0.044329 0.25062-0.067316 0.50455-0.0687 0.75293 1.619e-4 0.25548 0.02208 0.51049 0.065518 0.76225l0.1084 0.62828-1.2852 0.89155 0.82999 1.4377 1.4135-0.66545 0.48896 0.40376c0.39342 0.32487 0.83923 0.58047 1.3184 0.75586l0.60108 0.22004 0.12754 1.5686h1.6582l0.13061-1.5607 0.59615-0.22082c0.47833-0.17718 0.92306-0.4344 1.3152-0.76065l0.4895-0.40729 1.4197 0.6685 0.83021-1.438-1.2918-0.89709 0.1115-0.63037c0.04433-0.25062 0.06732-0.50455 0.0687-0.75293-1.62e-4 -0.25548-0.02208-0.51049-0.06552-0.76225l-0.1084-0.62828 1.2852-0.89155-0.82999-1.4377-1.4135 0.66545-0.48896-0.40376c-0.39342-0.32487-0.83923-0.58047-1.3184-0.75586l-0.60108-0.22003-0.12754-1.5686zm-0.91981-1h3.5l0.15039 1.8496c0.5856 0.21437 1.1305 0.52676 1.6113 0.92383l1.6719-0.78711 1.75 3.0312-1.5176 1.0527c0.05309 0.30771 0.07988 0.61938 0.08008 0.93164-0.0017 0.31106-0.0298 0.62142-0.08399 0.92773l1.5215 1.0566-1.75 3.0312-1.6758-0.78906c-0.47924 0.39876-1.0228 0.71314-1.6074 0.92969l-0.1543 1.8438h-3.5l-0.15039-1.8496c-0.5856-0.21437-1.1305-0.52676-1.6113-0.92383l-1.6719 0.78711-1.75-3.0312 1.5176-1.0527c-0.053091-0.30771-0.07988-0.61938-0.080078-0.93164 0.0017091-0.31106 0.029805-0.62142 0.083984-0.92773l-1.5215-1.0566 1.75-3.0312 1.6758 0.78906c0.47924-0.39876 1.0228-0.71314 1.6074-0.92969z"/>
   <path id="Combined-Shape" d="m7 5c1.1046 0 2 0.89543 2 2s-0.89543 2-2 2-2-0.89543-2-2 0.89543-2 2-2zm0 3c0.55228 0 1-0.44772 1-1 0-0.55228-0.44772-1-1-1-0.55228 0-1 0.44772-1 1 0 0.55228 0.44772 1 1 1z"/>
  </g>
 </g>
</svg>
