<?xml version="1.0" encoding="UTF-8"?>
<svg width="24px" height="24px" version="1.1" viewBox="0 0 24 24" xmlns="http://www.w3.org/2000/svg" xmlns:cc="http://creativecommons.org/ns#" xmlns:dc="http://purl.org/dc/elements/1.1/" xmlns:rdf="http://www.w3.org/1999/02/22-rdf-syntax-ns#">
 <metadata>
  <rdf:RDF>
   <cc:Work rdf:about="">
    <dc:format>image/svg+xml</dc:format>
    <dc:type rdf:resource="http://purl.org/dc/dcmitype/StillImage"/>
    <dc:title>view-refresh</dc:title>
   </cc:Work>
  </rdf:RDF>
 </metadata>
 <!-- Generator: Sketch 51.3 (57544) - http://www.bohemiancoding.com/sketch -->
 <title>view-refresh</title>
 <desc>Created with Sketch.</desc>
 <g id="view-refresh" fill="#b00000" fill-rule="evenodd">
  <g transform="translate(5 5)" fill="#b00000">
   <path id="Combined-Shape" d="m12.489 4h-0.29129c-1.0374-1.7934-2.9765-3-5.1973-3-3.3137 0-6 2.6863-6 6s2.6863 6 6 6c2.6124 0 4.8349-1.6696 5.6586-4h1.0515c-0.86055 2.8915-3.5391 5-6.7101 5-3.866 0-7-3.134-7-7 0-3.866 3.134-7 7-7 1.9757 0 3.7602 0.81848 5.0329 2.1349l0.45566 1.8651z"/>
   <polygon id="Triangle" transform="translate(12.75 3.75) rotate(135) translate(-12.75 -3.75)" points="12.75 1.9822 16.286 5.5178 9.2145 5.5178"/>
  </g>
 </g>
</svg>
