<?xml version="1.0" encoding="UTF-8"?>
<!-- Generator: Gravit.io -->
<svg width="48pt" height="48pt" style="isolation:isolate" version="1.1" viewBox="0 0 48 48" xmlns="http://www.w3.org/2000/svg" xmlns:xlink="http://www.w3.org/1999/xlink">
 <defs>
  <linearGradient id="linearGradient858" x2="1" y1=".5" y2=".5" gradientTransform="matrix(46 0 0 46 1 1)" gradientUnits="userSpaceOnUse" xlink:href="#_lgradient_57"/>
  <filter id="filter861" x="-.11532" y="-.11532" width="1.2306" height="1.2306" color-interpolation-filters="sRGB">
   <feGaussianBlur stdDeviation="2.2103"/>
  </filter>
 </defs>
 <linearGradient id="_lgradient_57" x2="1" y1=".5" y2=".5" gradientTransform="matrix(46,0,0,46,1,1)" gradientUnits="userSpaceOnUse">
  <stop stop-color="#5800e2" offset="0"/>
  <stop stop-color="#ff00e6" offset="1"/>
 </linearGradient>
 <path d="m11.73 4.545 0.12-0.075c3.65-2.27 7.86-3.47 12.15-3.47 3.89 0 7.72 0.99 11.13 2.87 0.966 0.535 1.315 1.754 0.78 2.72s-1.754 1.315-2.72 0.78c-2.81-1.56-5.97-2.37-9.19-2.37-3.535 0-6.991 0.982-9.993 2.847l0.733 0.293c1.027 0.414 1.526 1.581 1.115 2.605s-1.574 1.523-2.595 1.115l-4.693-1.877c-1.025-0.41-1.681-1.622-1.464-2.704l0.937-4.669c0.215-1.082 1.268-1.785 2.35-1.57s1.785 1.268 1.57 2.35l-0.23 1.155zm-4.44 28.505c0.53 0.971 0.171 2.188-0.8 2.715s-2.186 0.166-2.71-0.805c-1.83-3.36-2.78-7.13-2.78-10.96 0-2.92 0.55-5.81 1.63-8.51 0.408-1.027 1.573-1.528 2.6-1.12s1.528 1.573 1.12 2.6c-0.9 2.23-1.35 4.62-1.35 7.03 0 3.16 0.79 6.27 2.29 9.05zm25.52 7.78c0.977-0.508 2.187-0.127 2.7 0.85s0.137 2.187-0.84 2.7c-3.29 1.72-6.95 2.62-10.67 2.62-3.58 0-7.12-0.83-10.32-2.44-0.988-0.497-1.387-1.702-0.89-2.69s1.702-1.387 2.69-0.89c2.64 1.33 5.56 2.02 8.52 2.02 3.07 0 6.09-0.74 8.81-2.17zm9-23.47c-0.386-1.032 0.14-2.184 1.175-2.57s2.189 0.142 2.575 1.18c0.95 2.57 1.44 5.29 1.44 8.03 0 3.62-0.85 7.2-2.5 10.43-0.497 0.982-1.7 1.372-2.685 0.87s-1.377-1.708-0.875-2.69c1.36-2.67 2.06-5.62 2.06-8.61 0-2.27-0.4-4.51-1.19-6.64zm-4.24 21.245c0-1.104 0.896-2 2-2s2 0.896 2 2-0.896 2-2 2-2-0.896-2-2zm-30.28 0.505c0-1.104 0.896-2 2-2s2 0.896 2 2-0.896 2-2 2-2-0.896-2-2zm30.28-28.77c0-1.104 0.896-2 2-2s2 0.896 2 2-0.896 2-2 2-2-0.896-2-2zm-21.57 13.66c0-2.12 0.84-4.16 2.34-5.66s3.54-2.34 5.66-2.34 4.16 0.84 5.66 2.34 2.34 3.54 2.34 5.66-0.84 4.16-2.34 5.66-3.54 2.34-5.66 2.34-4.16-0.84-5.66-2.34-2.34-3.54-2.34-5.66zm-4 0c0-3.18 1.27-6.24 3.51-8.49 2.25-2.24 5.31-3.51 8.49-3.51s6.24 1.27 8.49 3.51c2.24 2.25 3.51 5.31 3.51 8.49s-1.27 6.24-3.51 8.49c-2.25 2.24-5.31 3.51-8.49 3.51s-6.24-1.27-8.49-3.51c-2.24-2.25-3.51-5.31-3.51-8.49z" fill="url(#_lgradient_57)" fill-rule="evenodd"/>
 <path d="m11.73 4.545 0.12-0.075c3.65-2.27 7.86-3.47 12.15-3.47 3.89 0 7.72 0.99 11.13 2.87 0.966 0.535 1.315 1.754 0.78 2.72s-1.754 1.315-2.72 0.78c-2.81-1.56-5.97-2.37-9.19-2.37-3.535 0-6.991 0.982-9.993 2.847l0.733 0.293c1.027 0.414 1.526 1.581 1.115 2.605s-1.574 1.523-2.595 1.115l-4.693-1.877c-1.025-0.41-1.681-1.622-1.464-2.704l0.937-4.669c0.215-1.082 1.268-1.785 2.35-1.57s1.785 1.268 1.57 2.35zm-4.44 28.505c0.53 0.971 0.171 2.188-0.8 2.715s-2.186 0.166-2.71-0.805c-1.83-3.36-2.78-7.13-2.78-10.96 0-2.92 0.55-5.81 1.63-8.51 0.408-1.027 1.573-1.528 2.6-1.12s1.528 1.573 1.12 2.6c-0.9 2.23-1.35 4.62-1.35 7.03 0 3.16 0.79 6.27 2.29 9.05zm25.52 7.78c0.977-0.508 2.187-0.127 2.7 0.85s0.137 2.187-0.84 2.7c-3.29 1.72-6.95 2.62-10.67 2.62-3.58 0-7.12-0.83-10.32-2.44-0.988-0.497-1.387-1.702-0.89-2.69s1.702-1.387 2.69-0.89c2.64 1.33 5.56 2.02 8.52 2.02 3.07 0 6.09-0.74 8.81-2.17zm9-23.47c-0.386-1.032 0.14-2.184 1.175-2.57s2.189 0.142 2.575 1.18c0.95 2.57 1.44 5.29 1.44 8.03 0 3.62-0.85 7.2-2.5 10.43-0.497 0.982-1.7 1.372-2.685 0.87s-1.377-1.708-0.875-2.69c1.36-2.67 2.06-5.62 2.06-8.61 0-2.27-0.4-4.51-1.19-6.64zm-4.24 21.245c0-1.104 0.896-2 2-2s2 0.896 2 2-0.896 2-2 2-2-0.896-2-2zm-30.28 0.505c0-1.104 0.896-2 2-2s2 0.896 2 2-0.896 2-2 2-2-0.896-2-2zm30.28-28.77c0-1.104 0.896-2 2-2s2 0.896 2 2c0 1.104-0.896 2-2 2s-2-0.896-2-2zm-21.57 13.66c0-2.12 0.84-4.16 2.34-5.66s3.54-2.34 5.66-2.34 4.16 0.84 5.66 2.34 2.34 3.54 2.34 5.66-0.84 4.16-2.34 5.66-3.54 2.34-5.66 2.34-4.16-0.84-5.66-2.34-2.34-3.54-2.34-5.66zm-4 0c0-3.18 1.27-6.24 3.51-8.49 2.25-2.24 5.31-3.51 8.49-3.51s6.24 1.27 8.49 3.51c2.24 2.25 3.51 5.31 3.51 8.49s-1.27 6.24-3.51 8.49c-2.25 2.24-5.31 3.51-8.49 3.51s-6.24-1.27-8.49-3.51c-2.24-2.25-3.51-5.31-3.51-8.49z" fill="url(#linearGradient858)" fill-rule="evenodd" filter="url(#filter861)" style="isolation:isolate"/>
</svg>
