<?xml version="1.0" encoding="UTF-8" standalone="no"?>
<svg
   xmlns:dc="http://purl.org/dc/elements/1.1/"
   xmlns:cc="http://creativecommons.org/ns#"
   xmlns:rdf="http://www.w3.org/1999/02/22-rdf-syntax-ns#"
   xmlns:svg="http://www.w3.org/2000/svg"
   xmlns="http://www.w3.org/2000/svg"
   xmlns:sodipodi="http://sodipodi.sourceforge.net/DTD/sodipodi-0.dtd"
   xmlns:inkscape="http://www.inkscape.org/namespaces/inkscape"
   sodipodi:docname="cancel_blur.svg"
   inkscape:version="1.0 (4035a4fb49, 2020-05-01)"
   width="64mm"
   height="64mm"
   viewBox="0 0 64 64"
   version="1.1"
   id="SVGRoot">
  <defs
     id="defs18">
    <filter
       inkscape:collect="always"
       style="color-interpolation-filters:sRGB"
       id="filter2748"
       x="-2.1035519"
       width="5.2071038"
       y="-0.44550917"
       height="1.8910183">
      <feGaussianBlur
         inkscape:collect="always"
         stdDeviation="4.9405133"
         id="feGaussianBlur2750" />
    </filter>
    <filter
       inkscape:collect="always"
       style="color-interpolation-filters:sRGB"
       id="filter2752"
       x="-2.0514296"
       width="5.1028593"
       y="-0.63575196"
       height="2.2715039">
      <feGaussianBlur
         inkscape:collect="always"
         stdDeviation="4.9405133"
         id="feGaussianBlur2754" />
    </filter>
    <filter
       inkscape:collect="always"
       style="color-interpolation-filters:sRGB"
       id="filter2756"
       x="-0.27471894"
       width="1.5494379"
       y="-0.42336086"
       height="1.8467217">
      <feGaussianBlur
         inkscape:collect="always"
         stdDeviation="4.9405133"
         id="feGaussianBlur2758" />
    </filter>
    <filter
       inkscape:collect="always"
       style="color-interpolation-filters:sRGB"
       id="filter2760"
       x="-0.29875412"
       width="1.5975082"
       y="-0.42480393"
       height="1.8496079">
      <feGaussianBlur
         inkscape:collect="always"
         stdDeviation="4.9405133"
         id="feGaussianBlur2762" />
    </filter>
    <filter
       height="1.8467216"
       y="-0.42336085"
       width="1.5494379"
       x="-0.27471894"
       id="filter2756-1"
       style="color-interpolation-filters:sRGB"
       inkscape:collect="always">
      <feGaussianBlur
         id="feGaussianBlur2758-2"
         stdDeviation="4.9405133"
         inkscape:collect="always" />
    </filter>
  </defs>
  <sodipodi:namedview
     inkscape:pagecheckerboard="false"
     inkscape:window-maximized="1"
     inkscape:window-y="0"
     inkscape:window-x="1920"
     inkscape:window-height="1052"
     inkscape:window-width="1920"
     showgrid="false"
     inkscape:document-rotation="0"
     inkscape:current-layer="layer1"
     inkscape:document-units="mm"
     inkscape:cy="72.894475"
     inkscape:cx="-72.874414"
     inkscape:zoom="1.4"
     inkscape:pageshadow="2"
     inkscape:pageopacity="0"
     borderopacity="1.0"
     bordercolor="#666666"
     pagecolor="#000000"
     id="base" />
  <metadata
     id="metadata21">
    <rdf:RDF>
      <cc:Work
         rdf:about="">
        <dc:format>image/svg+xml</dc:format>
        <dc:type
           rdf:resource="http://purl.org/dc/dcmitype/StillImage" />
        <dc:title />
      </cc:Work>
    </rdf:RDF>
  </metadata>
  <g
     id="layer1"
     inkscape:groupmode="layer"
     inkscape:label="Layer 1">
    <path
       d="m 12.872056,23.093984 c 6.805721,3.235858 13.150947,7.435768 19.413669,11.731958 3.830349,2.648017 4.444036,3.082608 8.244411,5.669901 1.172649,0.798337 2.367499,1.559341 3.523299,2.385825 0.855717,0.611902 1.672498,1.285024 2.508746,1.927536 3.0887,2.366056 6.187891,-2.350043 3.099191,-4.716101 v 0 c -0.920745,-0.70341 -1.821992,-1.437568 -2.76224,-2.110239 -1.148904,-0.821945 -2.336985,-1.578212 -3.502814,-2.371885 -3.790627,-2.58058 -4.408705,-3.018259 -8.239137,-5.666288 -6.411011,-4.394626 -12.895775,-8.689229 -19.85924,-12.006097 -3.376404,-1.852026 -5.8022878,3.303364 -2.425885,5.15539 z"
       id="path475"
       style="fill:#ffffff;stroke-width:0.371007" />
    <path
       d="m 51.666223,12.68771 c -0.374228,0.107616 -0.753854,0.195342 -1.122686,0.322828 -2.531584,0.875031 -4.937371,2.087675 -7.306559,3.378522 -3.140119,1.710888 -4.439813,2.547343 -7.640075,4.476113 -7.496149,4.613514 -14.857736,9.47464 -22.249507,14.278718 -3.244648,2.10877 -0.482467,7.062985 2.762179,4.954215 v 0 c 7.342012,-4.771745 14.653975,-9.600239 22.098782,-14.184333 3.167942,-1.911088 4.279706,-2.63278 7.364399,-4.321042 2.06573,-1.13058 4.165801,-2.21153 6.368198,-2.999925 0.271861,-0.09732 0.55224,-0.164338 0.828364,-0.246508 3.705961,-0.842149 2.602866,-6.500736 -1.103095,-5.658588 z"
       id="path479"
       style="fill:#ffffff;stroke-width:0.371007" />
    <path
       d="m 9.6540232,20.57979 c -0.135759,3.846417 0.226431,7.687913 0.4008018,11.52699 -0.01707,0.356411 -0.03414,0.712824 -0.05121,1.069238 -0.1542968,4.085494 5.197105,4.321091 5.351402,0.235594 v 0 c 0.0164,-0.529645 0.03279,-1.059289 0.04919,-1.588933 -0.165129,-3.6138 -0.50038,-7.229159 -0.406734,-10.849613 C 15.25504,16.893643 9.9115922,16.500367 9.6540252,20.57979 Z"
       id="path485"
       style="fill:#ffffff;stroke-width:0.371007" />
    <path
       d="m 50.513752,16.706277 c -0.07474,0.663606 -0.178554,1.324142 -0.224207,1.990815 -0.115153,1.681447 -0.111266,4.144764 -0.103723,5.787053 0.01393,3.030798 0.08955,6.061659 0.152727,9.09158 0.06734,3.040368 0.03545,1.582592 0.09587,4.373322 0.08849,4.087773 5.442881,3.952648 5.354385,-0.135125 v 0 c -0.06043,-2.791162 -0.02857,-1.335043 -0.09576,-4.36836 -0.06218,-2.98151 -0.135593,-5.963793 -0.151389,-8.946148 -0.0093,-1.747207 -0.01066,-3.437859 0.07248,-5.1786 0.01961,-0.41045 0.06619,-0.818879 0.09928,-1.228318 0.907874,-3.969664 -4.291806,-5.355882 -5.199674,-1.38622 z"
       id="path487"
       style="fill:#ffffff;stroke-width:0.371007" />
    <path
       style="fill:#ffffff;stroke-width:0.371007;filter:url(#filter2760)"
       id="path475-3"
       d="m 12.872056,23.093984 c 6.805721,3.235858 13.150947,7.435768 19.413669,11.731958 3.830348,2.648017 4.444036,3.082608 8.24441,5.6699 1.172649,0.798338 2.3675,1.559343 3.5233,2.385827 0.855716,0.611902 1.672498,1.28502 2.508745,1.92753 3.088701,2.36606 6.187892,-2.350038 3.099192,-4.716095 v 0 c -0.920745,-0.703411 -1.821993,-1.437569 -2.76224,-2.11024 -1.148905,-0.821945 -2.336985,-1.578212 -3.502813,-2.371885 -3.790628,-2.58058 -4.408707,-3.018259 -8.239138,-5.666288 -6.411011,-4.394626 -12.895775,-8.689229 -19.85924,-12.006097 -3.376404,-1.852027 -5.802288,3.303363 -2.425885,5.15539 z" />
    <path
       style="fill:#ffffff;stroke-width:0.371007;filter:url(#filter2756)"
       id="path479-6"
       d="m 51.666223,12.687709 c -0.374227,0.107616 -0.753854,0.195342 -1.122686,0.322828 -2.531583,0.875031 -4.937371,2.087675 -7.306558,3.378522 -3.14012,1.710889 -4.439815,2.547343 -7.640076,4.476114 -7.496149,4.613514 -14.857737,9.47464 -22.249507,14.278718 -3.244648,2.10877 -0.482467,7.062985 2.762179,4.954216 v 0 c 7.342012,-4.771746 14.653975,-9.60024 22.098783,-14.184334 3.167941,-1.911088 4.279704,-2.63278 7.364397,-4.321043 2.065731,-1.130579 4.165801,-2.211529 6.368198,-2.999925 0.271862,-0.09732 0.552241,-0.164338 0.828365,-0.246508 3.705961,-0.842148 2.602865,-6.500736 -1.103095,-5.658588 z" />
    <path
       style="fill:#ffffff;stroke-width:0.371007;filter:url(#filter2752)"
       id="path485-7"
       d="m 9.654023,20.57979 c -0.135759,3.846417 0.226431,7.687913 0.400802,11.52699 -0.01707,0.356411 -0.03414,0.712824 -0.05121,1.069238 -0.154297,4.085494 5.197105,4.321091 5.351402,0.235594 v 0 c 0.0164,-0.529645 0.03279,-1.059289 0.04919,-1.588933 -0.165129,-3.6138 -0.50038,-7.229159 -0.406734,-10.849614 C 15.25504,16.893643 9.911592,16.500366 9.654025,20.57979 Z" />
    <path
       style="fill:#ffffff;stroke-width:0.371007;filter:url(#filter2748)"
       id="path487-5"
       d="m 50.513753,16.706277 c -0.07474,0.663606 -0.178554,1.324142 -0.224208,1.990815 -0.115154,1.681446 -0.111265,4.144764 -0.103724,5.787053 0.01392,3.030798 0.08955,6.061659 0.152728,9.09158 0.06734,3.040368 0.03545,1.582592 0.09587,4.373322 0.08849,4.087773 5.442881,3.952648 5.354386,-0.135125 v 0 c -0.06043,-2.791162 -0.02857,-1.335043 -0.09576,-4.36836 -0.06218,-2.98151 -0.135593,-5.963793 -0.151389,-8.946148 -0.0093,-1.747207 -0.01066,-3.437859 0.07248,-5.178601 0.01961,-0.41045 0.06619,-0.818878 0.09928,-1.228317 0.907876,-3.969665 -4.291804,-5.355883 -5.199674,-1.38622 z" />
    <path
       d="m 50.513741,16.706276 c -0.374227,0.107616 -0.753854,0.195342 -1.122686,0.322828 -2.531583,0.875031 -4.937371,2.087675 -7.306558,3.378522 -3.14012,1.710889 -4.439815,2.547343 -7.640077,4.476114 -7.496149,4.613514 -14.857737,9.47464 -22.249507,14.278719 -3.244648,2.10877 -0.482467,7.062985 2.762179,4.954216 v 0 c 7.342012,-4.771746 14.653975,-9.600241 22.098784,-14.184335 3.167941,-1.911088 4.279704,-2.63278 7.364397,-4.321043 2.065731,-1.130579 4.165801,-2.211529 6.368198,-2.999925 0.271862,-0.09732 0.552241,-0.164338 0.828365,-0.246508 3.705961,-0.842148 2.602865,-6.500736 -1.103095,-5.658588 z"
       id="path479-6-7"
       style="fill:#ffffff;stroke-width:0.371007;filter:url(#filter2756-1)" />
  </g>
</svg>
