<?xml version="1.0" encoding="UTF-8" standalone="no"?>
<svg
   xmlns:dc="http://purl.org/dc/elements/1.1/"
   xmlns:cc="http://creativecommons.org/ns#"
   xmlns:rdf="http://www.w3.org/1999/02/22-rdf-syntax-ns#"
   xmlns:svg="http://www.w3.org/2000/svg"
   xmlns="http://www.w3.org/2000/svg"
   xmlns:sodipodi="http://sodipodi.sourceforge.net/DTD/sodipodi-0.dtd"
   xmlns:inkscape="http://www.inkscape.org/namespaces/inkscape"
   sodipodi:docname="hibernate_blur.svg"
   inkscape:version="1.0 (4035a4fb49, 2020-05-01)"
   width="64mm"
   height="64mm"
   viewBox="0 0 64 64"
   version="1.1"
   id="SVGRoot">
  <defs
     id="defs18">
    <filter
       inkscape:collect="always"
       style="color-interpolation-filters:sRGB"
       id="filter902"
       x="-0.49450673"
       width="1.9890135"
       y="-0.74489812"
       height="2.4897962">
      <feGaussianBlur
         inkscape:collect="always"
         stdDeviation="4.7435793"
         id="feGaussianBlur904" />
    </filter>
    <filter
       inkscape:collect="always"
       style="color-interpolation-filters:sRGB"
       id="filter906"
       x="-0.56663034"
       width="2.1332607"
       y="-0.73372467"
       height="2.4674493">
      <feGaussianBlur
         inkscape:collect="always"
         stdDeviation="4.7435793"
         id="feGaussianBlur908" />
    </filter>
    <filter
       inkscape:collect="always"
       style="color-interpolation-filters:sRGB"
       id="filter910"
       x="-0.49094798"
       width="1.981896"
       y="-1.0620022"
       height="3.1240044">
      <feGaussianBlur
         inkscape:collect="always"
         stdDeviation="4.7435793"
         id="feGaussianBlur912" />
    </filter>
    <filter
       inkscape:collect="always"
       style="color-interpolation-filters:sRGB"
       id="filter914"
       x="-0.53964473"
       width="2.0792895"
       y="-0.65727632"
       height="2.3145526">
      <feGaussianBlur
         inkscape:collect="always"
         stdDeviation="4.7435793"
         id="feGaussianBlur916" />
    </filter>
    <filter
       inkscape:collect="always"
       style="color-interpolation-filters:sRGB"
       id="filter918"
       x="-1.8714392"
       width="4.7428783"
       y="-0.23708055"
       height="1.4741611">
      <feGaussianBlur
         inkscape:collect="always"
         stdDeviation="4.7435793"
         id="feGaussianBlur920" />
    </filter>
    <filter
       height="1.4741611"
       y="-0.23708054"
       width="4.7428784"
       x="-1.8714392"
       id="filter918-3"
       style="color-interpolation-filters:sRGB"
       inkscape:collect="always">
      <feGaussianBlur
         id="feGaussianBlur920-6"
         stdDeviation="4.7435793"
         inkscape:collect="always" />
    </filter>
    <filter
       height="2.3145525"
       y="-0.65727633"
       width="2.0792894"
       x="-0.53964472"
       id="filter914-7"
       style="color-interpolation-filters:sRGB"
       inkscape:collect="always">
      <feGaussianBlur
         id="feGaussianBlur916-5"
         stdDeviation="4.7435793"
         inkscape:collect="always" />
    </filter>
    <filter
       height="3.1240044"
       y="-1.0620022"
       width="1.981896"
       x="-0.49094799"
       id="filter910-3"
       style="color-interpolation-filters:sRGB"
       inkscape:collect="always">
      <feGaussianBlur
         id="feGaussianBlur912-5"
         stdDeviation="4.7435793"
         inkscape:collect="always" />
    </filter>
    <filter
       height="2.4674492"
       y="-0.73372465"
       width="2.1332607"
       x="-0.56663036"
       id="filter906-6"
       style="color-interpolation-filters:sRGB"
       inkscape:collect="always">
      <feGaussianBlur
         id="feGaussianBlur908-2"
         stdDeviation="4.7435793"
         inkscape:collect="always" />
    </filter>
    <filter
       height="2.4897962"
       y="-0.74489814"
       width="1.9890136"
       x="-0.49450672"
       id="filter902-9"
       style="color-interpolation-filters:sRGB"
       inkscape:collect="always">
      <feGaussianBlur
         id="feGaussianBlur904-1"
         stdDeviation="4.7435793"
         inkscape:collect="always" />
    </filter>
  </defs>
  <sodipodi:namedview
     inkscape:pagecheckerboard="false"
     inkscape:window-maximized="1"
     inkscape:window-y="0"
     inkscape:window-x="1920"
     inkscape:window-height="1052"
     inkscape:window-width="1920"
     showgrid="false"
     inkscape:document-rotation="0"
     inkscape:current-layer="layer1"
     inkscape:document-units="mm"
     inkscape:cy="72.894475"
     inkscape:cx="57.482729"
     inkscape:zoom="1.4"
     inkscape:pageshadow="2"
     inkscape:pageopacity="0"
     borderopacity="1.0"
     bordercolor="#666666"
     pagecolor="#000000"
     id="base" />
  <metadata
     id="metadata21">
    <rdf:RDF>
      <cc:Work
         rdf:about="">
        <dc:format>image/svg+xml</dc:format>
        <dc:type
           rdf:resource="http://purl.org/dc/dcmitype/StillImage" />
        <dc:title />
      </cc:Work>
    </rdf:RDF>
  </metadata>
  <g
     id="layer1"
     inkscape:groupmode="layer"
     inkscape:label="Layer 1">
    <path
       d="m 23.739172,9.8826988 c 0.238361,4.1672202 0.269241,8.3432402 0.39674,12.5144872 0.04476,1.464441 0.10758,2.928274 0.16137,4.39241 0.346656,7.106165 0.858052,14.202671 1.264361,21.305533 0.05416,1.806474 0.253229,3.610266 0.27617,5.418068 0.04366,2.805991 4.011926,2.744251 3.96827,-0.06174 v 0 C 29.773752,51.588525 29.591219,49.729883 29.523915,47.868463 29.119108,40.792523 28.610377,33.722875 28.263351,26.643737 28.210082,25.196835 28.14777,23.750238 28.103545,22.303032 27.972742,18.022644 27.947164,13.736439 27.685462,9.4610739 27.387328,6.6706251 23.441038,7.09225 23.739172,9.8826988 Z"
       id="path395"
       style="fill:#ffffff;stroke-width:0.264583" />
    <path
       d="m 26.197242,9.5351903 c 0.352586,0.327734 0.679689,0.6852267 1.057759,0.9832027 0.589645,0.464727 1.225983,0.866933 1.839224,1.300048 0.806187,0.569388 1.6188,1.129768 2.419057,1.707462 2.471809,1.784365 4.874362,3.650946 7.261462,5.545948 1.560472,1.304337 3.194129,2.528294 4.657748,3.94352 2.02556,1.942316 4.772409,-0.922261 2.746849,-2.864576 v 0 C 44.615452,18.660904 42.9113,17.331948 41.242004,15.963218 39.245916,14.379292 38.602389,13.848403 36.501147,12.27081 34.294957,10.614423 33.572395,10.115176 31.376692,8.5717011 30.845058,8.1979877 30.321571,7.8121458 29.778509,7.4552433 29.695828,7.400905 29.595804,7.3792536 29.504452,7.3412587 27.953108,5.0027077 24.645898,7.1966393 26.197242,9.5351903 Z"
       id="path397"
       style="fill:#ffffff;stroke-width:0.264583" />
    <path
       d="m 27.190979,30.153362 c 2.683791,-1.120306 5.450411,-2.034349 8.193574,-2.99689 2.144805,-0.748751 4.294227,-1.484184 6.439741,-2.230887 1.359482,-0.473142 2.70157,-0.977256 4.089575,-1.359232 2.702695,-0.755597 1.634119,-4.577785 -1.068576,-3.822189 v 0 c -0.394464,0.111657 -0.79284,0.210328 -1.183396,0.334971 -1.055217,0.336765 -2.090759,0.73232 -3.136866,1.096397 -2.150443,0.748421 -4.30481,1.485522 -6.454526,2.236042 -2.835469,0.994945 -5.694924,1.940437 -8.466751,3.104249 -2.572129,1.122338 -0.984904,4.759878 1.587225,3.637539 z"
       id="path399"
       style="fill:#ffffff;stroke-width:0.264583" />
    <path
       d="m 28.796102,32.152451 c 2.780712,1.761908 5.46733,3.670787 8.142777,5.587526 2.514137,1.825982 4.963367,3.738393 7.4333,5.623057 2.231024,1.702356 4.638518,-1.452792 2.407494,-3.155148 v 0 c -2.501715,-1.908889 -4.98252,-3.845814 -7.529698,-5.694333 -2.847549,-2.039382 -5.699271,-4.091123 -8.689998,-5.916339 -2.513933,-1.247248 -4.277808,2.307991 -1.763875,3.555237 z"
       id="path409"
       style="fill:#ffffff;stroke-width:0.264583" />
    <path
       d="m 29.671599,55.981905 c 3.832752,-1.913019 7.493798,-4.145386 11.157028,-6.359543 2.396379,-1.412844 4.722707,-2.940786 7.118541,-4.354232 2.108618,-1.18935 1.440923,-0.05522 -1.10998,-3.722677 0.007,-0.0122 0.01389,-0.02439 0.02085,-0.03659 -2.155354,1.797201 0.386273,4.845333 2.541627,3.04813 v 0 c 0.110437,-0.09849 0.220872,-0.19698 0.331309,-0.295468 -0.686705,-1.097656 -1.302219,-2.243199 -2.060112,-3.292962 -0.05179,-0.07174 -0.165561,0.06264 -0.246854,0.09757 -0.517025,0.222117 -1.002533,0.513633 -1.49433,0.784301 -2.40702,1.421662 -4.747024,2.953507 -7.154042,4.375439 -3.55588,2.149403 -7.108346,4.318532 -10.826288,6.180452 -2.52832,1.217822 -0.806063,4.793406 1.722257,3.575587 z"
       id="path411"
       style="fill:#ffffff;stroke-width:0.264583" />
    <path
       style="fill:#ffffff;stroke-width:0.264583;filter:url(#filter918)"
       id="path395-3"
       d="m 23.739172,9.882699 c 0.238361,4.16722 0.269241,8.34324 0.39674,12.514487 0.04476,1.464441 0.10758,2.928274 0.16137,4.39241 0.346656,7.106165 0.858052,14.202671 1.264361,21.305533 0.05416,1.806474 0.253229,3.610266 0.27617,5.418068 0.04366,2.805991 4.011926,2.744251 3.96827,-0.06174 v 0 C 29.773752,51.588526 29.591219,49.729883 29.523915,47.868463 29.119108,40.792523 28.610377,33.722875 28.263352,26.643737 28.210082,25.196835 28.14777,23.750238 28.103545,22.303032 27.972742,18.022644 27.947164,13.736439 27.685462,9.461074 27.387329,6.6706252 23.441038,7.0922502 23.739172,9.882699 Z" />
    <path
       style="fill:#ffffff;stroke-width:0.264583;filter:url(#filter914)"
       id="path397-6"
       d="m 26.197242,9.5351904 c 0.352586,0.3277341 0.679689,0.6852266 1.057759,0.9832026 0.589646,0.464727 1.225984,0.866933 1.839224,1.300048 0.806187,0.569388 1.6188,1.129768 2.419058,1.707462 2.471809,1.784365 4.874362,3.650946 7.261462,5.545948 1.560472,1.304337 3.194129,2.528294 4.657748,3.94352 2.02556,1.942316 4.772409,-0.922261 2.746849,-2.864576 v 0 C 44.615453,18.660904 42.911301,17.331948 41.242005,15.963218 39.245917,14.379292 38.60239,13.848403 36.501148,12.27081 34.294958,10.614423 33.572395,10.115176 31.376692,8.5717013 30.845059,8.1979879 30.321571,7.812146 29.778509,7.4552435 29.695829,7.4009055 29.595805,7.3792535 29.504452,7.3412588 27.953109,5.002708 24.645898,7.1966394 26.197242,9.5351904 Z" />
    <path
       style="fill:#ffffff;stroke-width:0.264583;filter:url(#filter910)"
       id="path399-7"
       d="m 27.190979,30.153362 c 2.683791,-1.120306 5.450412,-2.034349 8.193575,-2.99689 2.144805,-0.748751 4.294227,-1.484184 6.439741,-2.230887 1.359482,-0.473142 2.70157,-0.977256 4.089575,-1.359232 2.702695,-0.755597 1.634119,-4.577785 -1.068576,-3.822189 v 0 c -0.394464,0.111657 -0.79284,0.210328 -1.183396,0.334971 -1.055217,0.336765 -2.090759,0.73232 -3.136866,1.096397 -2.150443,0.748421 -4.30481,1.485522 -6.454526,2.236042 -2.83547,0.994945 -5.694925,1.940437 -8.466752,3.104249 -2.572129,1.122338 -0.984904,4.759878 1.587225,3.637539 z" />
    <path
       style="fill:#ffffff;stroke-width:0.264583;filter:url(#filter906)"
       id="path409-5"
       d="m 28.796102,32.152451 c 2.780713,1.761908 5.467331,3.670787 8.142778,5.587526 2.514137,1.825983 4.963367,3.738394 7.4333,5.623058 2.231024,1.702355 4.638518,-1.452793 2.407494,-3.155149 v 0 c -2.501715,-1.908889 -4.98252,-3.845814 -7.529698,-5.694333 -2.847549,-2.039382 -5.699272,-4.091123 -8.689999,-5.916339 -2.513933,-1.247248 -4.277808,2.307991 -1.763875,3.555237 z" />
    <path
       style="fill:#ffffff;stroke-width:0.264583;filter:url(#filter902)"
       id="path411-3"
       d="m 29.671599,55.981905 c 3.832753,-1.913019 7.493799,-4.145385 11.157029,-6.359543 2.396379,-1.412843 4.722707,-2.940786 7.118541,-4.354232 2.108618,-1.18935 1.440923,-0.05522 -1.10998,-3.722677 0.007,-0.0122 0.01389,-0.02439 0.02085,-0.03659 -2.155354,1.797201 0.386273,4.845333 2.541627,3.048129 v 0 c 0.110437,-0.09849 0.220872,-0.196979 0.331309,-0.295468 -0.686705,-1.097655 -1.302219,-2.243198 -2.060112,-3.292962 -0.05179,-0.07174 -0.165561,0.06264 -0.246854,0.09757 -0.517025,0.222115 -1.002533,0.513633 -1.49433,0.784299 -2.40702,1.421664 -4.747024,2.953509 -7.154042,4.375441 -3.55588,2.149404 -7.108346,4.318532 -10.826288,6.180452 -2.52832,1.217822 -0.806063,4.793406 1.722257,3.575587 z" />
    <path
       style="fill:#ffffff;stroke-width:0.264583"
       id="path395-2"
       d="m 23.739171,9.882699 c 0.238361,4.16722 0.26924,8.34324 0.396739,12.514487 0.04476,1.464443 0.107581,2.928274 0.161371,4.392409 0.346656,7.106166 0.858052,14.202672 1.264361,21.305533 0.05416,1.806478 0.253229,3.610268 0.27617,5.418068 0.04366,2.80599 4.011926,2.74425 3.96827,-0.0617 v 0 c -0.03233,-1.86293 -0.214864,-3.72157 -0.282169,-5.582994 C 29.119107,40.792522 28.610376,33.722874 28.26335,26.643738 28.210081,25.196835 28.147768,23.750239 28.103544,22.303032 27.972741,18.022644 27.947162,13.736439 27.685461,9.461074 27.387327,6.670625 23.441037,7.09225 23.739171,9.882699 Z" />
    <path
       style="fill:#ffffff;stroke-width:0.264583"
       id="path397-7"
       d="m 26.197241,9.53519 c 0.352586,0.327734 0.679688,0.685227 1.057758,0.983203 0.589646,0.464727 1.225984,0.866933 1.839225,1.300048 0.806187,0.569388 1.618799,1.129768 2.419057,1.707462 2.471809,1.784365 4.874362,3.650946 7.261462,5.545948 1.560471,1.304337 3.194128,2.528294 4.657747,3.943521 2.02556,1.942314 4.772409,-0.922261 2.746849,-2.864577 v 0 C 44.61545,18.660904 42.911298,17.331948 41.242002,15.963218 39.245914,14.379292 38.602388,13.848403 36.501146,12.27081 34.294956,10.614423 33.572394,10.115176 31.376691,8.571701 30.845057,8.197988 30.32157,7.812146 29.778507,7.455243 29.695827,7.400903 29.595803,7.379253 29.50445,7.341259 27.953107,5.002708 24.645897,7.196639 26.197241,9.53519 Z" />
    <path
       style="fill:#ffffff;stroke-width:0.264583"
       id="path399-0"
       d="m 27.190977,30.153362 c 2.683792,-1.120307 5.450412,-2.034349 8.193575,-2.99689 2.144805,-0.74875 4.294226,-1.484183 6.43974,-2.230888 1.359482,-0.473141 2.70157,-0.977254 4.089574,-1.35923 2.702698,-0.755597 1.63412,-4.577786 -1.068575,-3.82219 v 0 c -0.394465,0.111657 -0.79284,0.210328 -1.183396,0.334971 -1.055217,0.336765 -2.090759,0.73232 -3.136866,1.096397 -2.150442,0.748421 -4.304809,1.485523 -6.454525,2.236043 -2.83547,0.994944 -5.694925,1.940436 -8.466751,3.104248 -2.57213,1.122338 -0.984904,4.759878 1.587224,3.637539 z" />
    <path
       style="fill:#ffffff;stroke-width:0.264583"
       id="path409-9"
       d="m 28.796101,32.152451 c 2.780712,1.761908 5.46733,3.670786 8.142777,5.587526 2.514136,1.825982 4.963368,3.738393 7.433301,5.623057 2.231022,1.702356 4.638516,-1.452792 2.407494,-3.155148 v 0 c -2.501717,-1.908889 -4.982522,-3.845814 -7.5297,-5.694333 -2.847548,-2.039382 -5.69927,-4.091123 -8.689997,-5.916338 -2.513933,-1.247248 -4.277808,2.30799 -1.763875,3.555236 z" />
    <path
       style="fill:#ffffff;stroke-width:0.264583"
       id="path411-36"
       d="m 29.671598,55.981906 c 3.832752,-1.91302 7.493798,-4.14539 11.157027,-6.35954 2.396379,-1.412848 4.722707,-2.94079 7.118541,-4.354237 2.108618,-1.189349 1.440923,-0.05522 -1.10998,-3.722676 0.007,-0.0122 0.01389,-0.02439 0.02085,-0.03659 -2.155354,1.797201 0.386273,4.845333 2.541627,3.04813 v 0 c 0.110437,-0.09849 0.220871,-0.19698 0.331309,-0.295468 -0.686705,-1.097656 -1.302219,-2.243199 -2.060112,-3.292962 -0.05179,-0.07174 -0.165561,0.06264 -0.246854,0.09757 -0.517025,0.222118 -1.002533,0.513633 -1.49433,0.784302 -2.40702,1.421662 -4.747024,2.953507 -7.154043,4.375439 -3.55588,2.149403 -7.108346,4.318532 -10.826288,6.180452 -2.52832,1.21782 -0.806063,4.79341 1.722257,3.57559 z" />
    <path
       d="m 23.739171,9.882699 c 0.238361,4.16722 0.269241,8.34324 0.39674,12.514487 0.04476,1.464441 0.10758,2.928274 0.16137,4.39241 0.346656,7.106165 0.858052,14.202671 1.264361,21.305533 0.05416,1.806477 0.253229,3.610267 0.27617,5.418067 0.04366,2.80599 4.011926,2.74425 3.96827,-0.0617 v 0 c -0.03233,-1.86293 -0.214864,-3.72157 -0.282168,-5.582993 C 29.119107,40.792563 28.610376,33.722915 28.263351,26.643777 28.210081,25.196875 28.147769,23.750278 28.103544,22.303072 27.972741,18.022684 27.947163,13.736479 27.685461,9.461114 27.387328,6.670665 23.441037,7.09229 23.739171,9.882739 Z"
       id="path395-3-0"
       style="fill:#ffffff;stroke-width:0.264583;filter:url(#filter918-3)" />
    <path
       d="m 26.197241,9.53519 c 0.352586,0.327735 0.679689,0.685227 1.057759,0.983203 0.589646,0.464727 1.225984,0.866933 1.839224,1.300048 0.806187,0.569388 1.6188,1.129768 2.419058,1.707462 2.471809,1.784365 4.874362,3.650946 7.261462,5.545948 1.560472,1.304337 3.194129,2.528294 4.657748,3.94352 2.02556,1.942316 4.772409,-0.922261 2.746849,-2.864576 v 0 C 44.615452,18.660904 42.9113,17.331948 41.242004,15.963218 39.245916,14.379292 38.602389,13.848403 36.501147,12.27081 34.294957,10.614423 33.572394,10.115176 31.376691,8.571701 30.845058,8.197988 30.32157,7.812146 29.778508,7.455244 29.695828,7.400904 29.595804,7.379254 29.504451,7.341259 27.953108,5.002708 24.645897,7.196639 26.197241,9.53519 Z"
       id="path397-6-6"
       style="fill:#ffffff;stroke-width:0.264583;filter:url(#filter914-7)" />
    <path
       d="m 27.190978,30.153362 c 2.683791,-1.120306 5.450412,-2.034349 8.193575,-2.99689 2.144805,-0.748751 4.294227,-1.484184 6.439741,-2.230887 1.359482,-0.473142 2.70157,-0.977256 4.089575,-1.359232 2.702695,-0.755597 1.634119,-4.577785 -1.068576,-3.822189 v 0 c -0.394464,0.111657 -0.79284,0.210328 -1.183396,0.334971 -1.055217,0.336765 -2.090759,0.73232 -3.136866,1.096397 -2.150443,0.748421 -4.30481,1.485522 -6.454526,2.236042 -2.83547,0.994945 -5.694925,1.940437 -8.466752,3.104249 -2.572129,1.122338 -0.984904,4.759878 1.587225,3.637539 z"
       id="path399-7-2"
       style="fill:#ffffff;stroke-width:0.264583;filter:url(#filter910-3)" />
    <path
       d="m 28.796101,32.152451 c 2.780713,1.761908 5.467331,3.670787 8.142778,5.587526 2.514137,1.825983 4.963367,3.738394 7.4333,5.623058 2.231024,1.702355 4.638518,-1.452793 2.407494,-3.155149 v 0 c -2.501715,-1.908889 -4.98252,-3.845814 -7.529698,-5.694333 -2.847549,-2.039382 -5.699272,-4.091123 -8.689999,-5.916339 -2.513933,-1.247248 -4.277808,2.307991 -1.763875,3.555237 z"
       id="path409-5-6"
       style="fill:#ffffff;stroke-width:0.264583;filter:url(#filter906-6)" />
    <path
       d="m 29.671598,55.981906 c 3.832753,-1.91302 7.493799,-4.14538 11.157029,-6.35954 2.396379,-1.412847 4.722707,-2.94079 7.118541,-4.354236 2.108618,-1.18935 1.440923,-0.05522 -1.10998,-3.722677 0.007,-0.0122 0.01389,-0.02439 0.02085,-0.03659 -2.155354,1.797201 0.386273,4.845333 2.541627,3.048129 v 0 c 0.110437,-0.09849 0.220872,-0.196979 0.331309,-0.295468 -0.686705,-1.097655 -1.302219,-2.243198 -2.060112,-3.292962 -0.05179,-0.07174 -0.165561,0.06264 -0.246854,0.09757 -0.517025,0.222115 -1.002533,0.513633 -1.49433,0.784299 -2.40702,1.421664 -4.747024,2.953509 -7.154042,4.375441 -3.55588,2.149405 -7.108346,4.318534 -10.826288,6.180454 -2.52832,1.21782 -0.806063,4.79341 1.722257,3.57559 z"
       id="path411-3-1"
       style="fill:#ffffff;stroke-width:0.264583;filter:url(#filter902-9)" />
  </g>
</svg>
