<?xml version="1.0" encoding="UTF-8" standalone="no"?>
<svg
   xmlns:dc="http://purl.org/dc/elements/1.1/"
   xmlns:cc="http://creativecommons.org/ns#"
   xmlns:rdf="http://www.w3.org/1999/02/22-rdf-syntax-ns#"
   xmlns:svg="http://www.w3.org/2000/svg"
   xmlns="http://www.w3.org/2000/svg"
   xmlns:sodipodi="http://sodipodi.sourceforge.net/DTD/sodipodi-0.dtd"
   xmlns:inkscape="http://www.inkscape.org/namespaces/inkscape"
   sodipodi:docname="suspend_blur.svg"
   inkscape:version="1.0 (4035a4fb49, 2020-05-01)"
   width="64mm"
   height="64mm"
   viewBox="0 0 64 64"
   version="1.1"
   id="SVGRoot">
  <defs
     id="defs18">
    <filter
       inkscape:collect="always"
       style="color-interpolation-filters:sRGB"
       id="filter922"
       x="-1.6702555"
       width="4.3405109"
       y="-2.0161909"
       height="5.0323817">
      <feGaussianBlur
         inkscape:collect="always"
         stdDeviation="5.1264573"
         id="feGaussianBlur924" />
    </filter>
    <filter
       inkscape:collect="always"
       style="color-interpolation-filters:sRGB"
       id="filter926"
       x="-2.2425514"
       width="5.4851029"
       y="-0.29292751"
       height="1.585855">
      <feGaussianBlur
         inkscape:collect="always"
         stdDeviation="5.1264573"
         id="feGaussianBlur928" />
    </filter>
    <filter
       inkscape:collect="always"
       style="color-interpolation-filters:sRGB"
       id="filter930"
       x="-0.38687441"
       width="1.7737488"
       y="-0.61576491"
       height="2.2315298">
      <feGaussianBlur
         inkscape:collect="always"
         stdDeviation="5.1264573"
         id="feGaussianBlur932" />
    </filter>
    <filter
       inkscape:collect="always"
       style="color-interpolation-filters:sRGB"
       id="filter934"
       x="-0.41129321"
       width="1.8225864"
       y="-0.67918337"
       height="2.3583667">
      <feGaussianBlur
         inkscape:collect="always"
         stdDeviation="5.1264573"
         id="feGaussianBlur936" />
    </filter>
    <filter
       inkscape:collect="always"
       style="color-interpolation-filters:sRGB"
       id="filter938"
       x="-2.3110923"
       width="5.6221845"
       y="-0.2662367"
       height="1.5324734">
      <feGaussianBlur
         inkscape:collect="always"
         stdDeviation="5.1264573"
         id="feGaussianBlur940" />
    </filter>
    <filter
       height="5.0323815"
       y="-2.016191"
       width="4.3405108"
       x="-1.6702555"
       id="filter922-3"
       style="color-interpolation-filters:sRGB"
       inkscape:collect="always">
      <feGaussianBlur
         id="feGaussianBlur924-6"
         stdDeviation="5.1264573"
         inkscape:collect="always" />
    </filter>
    <filter
       height="1.585855"
       y="-0.2929275"
       width="5.4851031"
       x="-2.2425513"
       id="filter926-7"
       style="color-interpolation-filters:sRGB"
       inkscape:collect="always">
      <feGaussianBlur
         id="feGaussianBlur928-5"
         stdDeviation="5.1264573"
         inkscape:collect="always" />
    </filter>
    <filter
       height="2.2315297"
       y="-0.61576492"
       width="1.7737488"
       x="-0.38687441"
       id="filter930-3"
       style="color-interpolation-filters:sRGB"
       inkscape:collect="always">
      <feGaussianBlur
         id="feGaussianBlur932-5"
         stdDeviation="5.1264573"
         inkscape:collect="always" />
    </filter>
    <filter
       height="2.3583667"
       y="-0.67918336"
       width="1.8225864"
       x="-0.41129321"
       id="filter934-6"
       style="color-interpolation-filters:sRGB"
       inkscape:collect="always">
      <feGaussianBlur
         id="feGaussianBlur936-2"
         stdDeviation="5.1264573"
         inkscape:collect="always" />
    </filter>
    <filter
       height="1.5324734"
       y="-0.26623669"
       width="5.6221843"
       x="-2.3110924"
       id="filter938-9"
       style="color-interpolation-filters:sRGB"
       inkscape:collect="always">
      <feGaussianBlur
         id="feGaussianBlur940-1"
         stdDeviation="5.1264573"
         inkscape:collect="always" />
    </filter>
  </defs>
  <sodipodi:namedview
     inkscape:pagecheckerboard="false"
     inkscape:window-maximized="1"
     inkscape:window-y="0"
     inkscape:window-x="1920"
     inkscape:window-height="1052"
     inkscape:window-width="1920"
     showgrid="false"
     inkscape:document-rotation="0"
     inkscape:current-layer="layer1"
     inkscape:document-units="mm"
     inkscape:cy="72.894475"
     inkscape:cx="57.482729"
     inkscape:zoom="1.4"
     inkscape:pageshadow="2"
     inkscape:pageopacity="0"
     borderopacity="1.0"
     bordercolor="#666666"
     pagecolor="#000000"
     id="base" />
  <metadata
     id="metadata21">
    <rdf:RDF>
      <cc:Work
         rdf:about="">
        <dc:format>image/svg+xml</dc:format>
        <dc:type
           rdf:resource="http://purl.org/dc/dcmitype/StillImage" />
        <dc:title />
      </cc:Work>
    </rdf:RDF>
  </metadata>
  <g
     id="layer1"
     inkscape:groupmode="layer"
     inkscape:label="Layer 1">
    <path
       d="m 15.349618,8.8757633 c -0.01,0.2154671 -0.03488,0.4307625 -0.02987,0.6464014 0.04302,1.8517023 0.329752,3.6922823 0.509717,5.5325643 0.246904,2.524783 0.237074,2.716021 0.401193,5.281797 0.209938,5.039338 0.265479,10.08374 0.366063,15.126166 -0.01339,1.656919 0.180548,3.322331 0.01337,4.976456 -0.05044,0.499099 -0.135429,0.932166 -0.221863,1.424889 -0.337491,1.817899 -0.505384,3.657733 -0.560864,5.504056 -0.02325,1.152649 -0.01747,2.305645 -9.79e-4,3.458337 0.01058,0.611714 -0.01871,0.145664 0.38081,1.34816 1.522602,2.357364 4.85642,0.204079 3.333818,-2.153285 v 0 c 0.274746,1.014151 0.262907,1.277255 0.253715,0.748271 -0.01574,-1.095814 -0.0215,-2.191911 -2.35e-4,-3.287702 0.04489,-1.657942 0.201923,-3.309236 0.504416,-4.941347 0.118625,-0.693685 0.206096,-1.130525 0.271582,-1.843913 0.162291,-1.767941 0.0016,-3.542668 -0.0058,-5.313074 C 20.462934,30.282735 20.40765,25.179866 20.19126,20.082324 20.019129,17.409194 20.03174,17.25217 19.775078,14.626799 19.547588,12.299826 19.550135,12.779626 19.358124,10.673259 19.27155,9.7235444 19.278159,9.9449072 19.295802,9.2983862 19.594641,6.5080131 15.648457,6.0853899 15.349618,8.8757633 Z"
       id="path293"
       style="fill:#ffffff;stroke-width:0.264583" />
    <path
       d="m 17.102215,12.156318 c 0.06689,0.04215 0.128562,0.09406 0.200687,0.126457 0.339737,0.152623 0.692878,0.274213 1.032334,0.427461 1.13407,0.511982 2.837418,1.357009 3.886748,1.917278 1.887305,1.007689 3.682573,2.062963 5.537177,3.131399 4.136824,2.438458 8.307901,4.817055 12.498136,7.16219 1.238242,0.702085 0.737222,0.366116 1.541589,0.947927 2.298859,1.609577 4.575146,-1.641499 2.276287,-3.251076 v 0 C 42.940077,21.838888 43.562202,22.23265 42.195558,21.457849 38.019557,19.120701 33.862752,16.750048 29.740014,14.319843 27.105968,12.802968 24.483162,11.277596 21.752817,9.9378862 20.957798,9.547792 19.436249,8.8146985 18.502404,8.4996321 18.123808,8.3718992 17.729535,8.2964673 17.343101,8.1948848 14.541945,8.0245524 14.301059,11.985985 17.102215,12.156318 Z"
       id="path295"
       style="fill:#ffffff;stroke-width:0.264583" />
    <path
       d="m 22.15757,28.400826 c 2.957475,-1.440275 5.969059,-2.761287 8.88163,-4.294726 0.992302,-0.522437 1.970556,-1.071132 2.955833,-1.606698 4.218389,-2.384969 8.409487,-4.824232 12.48188,-7.452349 1.269222,-0.859549 2.516441,-1.760041 3.671996,-2.769181 C 52.259456,10.428255 49.6437,7.4434914 47.533156,9.2931083 v 0 c -1.005959,0.8859247 -2.105253,1.6618767 -3.20875,2.4196247 -3.988099,2.57544 -8.095107,4.961711 -12.225539,7.300192 -2.455801,1.336369 -3.042156,1.689708 -5.491397,2.894923 -2.088724,1.027813 -4.236792,1.931528 -6.311522,2.987933 -2.478441,1.316366 -0.616819,4.82141 1.861622,3.505045 z"
       id="path297"
       style="fill:#ffffff;stroke-width:0.264583" />
    <path
       d="m 46.527086,11.227162 c -0.30693,3.461095 -0.436388,6.934749 -0.616101,10.404263 -0.191995,3.627097 -0.417536,7.253834 -0.522804,10.884955 -0.03793,1.308375 -0.07624,4.105857 -0.09591,5.386826 -0.07117,3.718616 -0.174393,7.436538 -0.282811,11.154228 -0.0818,2.805136 3.885258,2.920825 3.967062,0.115686 v 0 c 0.108948,-3.735948 0.212654,-7.472132 0.28403,-11.209015 0.0182,-1.186796 0.05799,-4.068452 0.09351,-5.297042 0.104462,-3.612915 0.329543,-7.221435 0.52035,-10.830343 0.179951,-3.474194 0.31128,-6.952154 0.616792,-10.418039 0.135424,-2.8030608 -3.828701,-2.9945797 -3.964125,-0.191519 z"
       id="path301"
       style="fill:#ffffff;stroke-width:0.264583" />
    <path
       d="m 41.341282,25.414248 c 0.536519,0.445308 1.104399,0.84314 1.71541,1.178635 0.29614,0.156235 0.607025,0.280777 0.907015,0.429018 0.07133,0.0377 0.241604,0.134377 0.250738,0.139674 0.08194,0.06222 0.221311,0.1445 0.266067,0.172834 0.02141,0.01482 0.06759,0.05013 0.07752,0.05769 -0.02223,-0.01712 -0.04335,-0.03559 -0.06468,-0.05378 2.111152,1.848924 4.725926,-1.136697 2.614771,-2.985621 v 0 c -0.0315,-0.02695 -0.06294,-0.05399 -0.09571,-0.07941 -0.108996,-0.08528 -0.220872,-0.166855 -0.335484,-0.244436 -0.04756,-0.03077 -0.09481,-0.062 -0.142669,-0.0923 -0.01982,-0.01254 -0.07491,-0.05453 -0.0603,-0.0362 0.01783,0.02238 0.04673,0.03302 0.07048,0.04898 0.06297,0.0423 -0.24855,-0.173986 -0.18772,-0.128661 -0.209126,-0.131978 -0.426667,-0.249379 -0.646472,-0.362559 -0.252304,-0.123075 -0.508619,-0.237032 -0.763265,-0.354897 -0.385058,-0.202391 -0.726498,-0.465701 -1.065035,-0.737901 -2.15592,-1.796523 -4.696587,1.252409 -2.540666,3.048932 z"
       id="path305"
       style="fill:#ffffff;stroke-width:0.264583" />
    <path
       style="fill:#ffffff;stroke-width:0.264583;filter:url(#filter938)"
       id="path293-3"
       d="m 15.349617,8.8757635 c -0.01,0.215467 -0.03488,0.430763 -0.02987,0.646402 0.04302,1.8517015 0.329752,3.6922815 0.509717,5.5325635 0.246904,2.524784 0.237074,2.716022 0.401193,5.281798 0.209938,5.039338 0.265479,10.08374 0.366063,15.126165 -0.01339,1.656919 0.180548,3.322331 0.01337,4.976456 -0.05044,0.499099 -0.135429,0.932166 -0.221863,1.424889 -0.337491,1.817899 -0.505384,3.657733 -0.560864,5.504056 -0.02325,1.152649 -0.01747,2.305645 -9.79e-4,3.458337 0.01058,0.611714 -0.01871,0.145664 0.38081,1.34816 1.522602,2.357364 4.85642,0.204079 3.333818,-2.153285 v 0 c 0.274747,1.014151 0.262907,1.277255 0.253715,0.748271 -0.01574,-1.095814 -0.0215,-2.191911 -2.35e-4,-3.287702 0.04489,-1.657942 0.201923,-3.309236 0.504416,-4.941347 0.118625,-0.693685 0.206096,-1.130525 0.271582,-1.843913 0.162291,-1.767941 0.0016,-3.542668 -0.0058,-5.313075 -0.101757,-5.100803 -0.157041,-10.203672 -0.373431,-15.301214 -0.172131,-2.67313 -0.15952,-2.830155 -0.416181,-5.455526 -0.227491,-2.326973 -0.224944,-1.847173 -0.416955,-3.95354 -0.08657,-0.9497145 -0.07997,-0.7283515 -0.06232,-1.3748725 0.298839,-2.790373 -3.647345,-3.212996 -3.946184,-0.422623 z" />
    <path
       style="fill:#ffffff;stroke-width:0.264583;filter:url(#filter934)"
       id="path295-6"
       d="m 17.102214,12.156318 c 0.06689,0.04215 0.128562,0.09406 0.200687,0.126457 0.339737,0.152623 0.692878,0.274213 1.032334,0.427461 1.13407,0.511982 2.837419,1.357009 3.886748,1.917278 1.887306,1.007689 3.682574,2.062963 5.537178,3.1314 4.136823,2.438458 8.307901,4.817055 12.498136,7.16219 1.238241,0.702085 0.737221,0.366116 1.541589,0.947927 2.298859,1.609577 4.575146,-1.641499 2.276287,-3.251076 v 0 C 42.940076,21.838889 43.562202,22.232651 42.195557,21.45785 38.019556,19.120702 33.862751,16.750048 29.740013,14.319843 27.105968,12.802968 24.483161,11.277596 21.752816,9.9378865 20.957797,9.5477925 19.436248,8.8146995 18.502403,8.4996325 18.123807,8.3718995 17.729534,8.2964675 17.3431,8.1948855 14.541944,8.0245525 14.301058,11.985985 17.102214,12.156318 Z" />
    <path
       style="fill:#ffffff;stroke-width:0.264583;filter:url(#filter930)"
       id="path297-7"
       d="m 22.157569,28.400827 c 2.957475,-1.440275 5.969059,-2.761287 8.881631,-4.294726 0.992301,-0.522437 1.970555,-1.071132 2.955833,-1.606698 4.218389,-2.38497 8.409487,-4.824232 12.481879,-7.45235 1.269223,-0.859549 2.516442,-1.760041 3.671996,-2.769181 C 52.259455,10.428255 49.6437,7.4434915 47.533156,9.2931085 v 0 c -1.00596,0.8859245 -2.105253,1.6618765 -3.208751,2.4196245 -3.988098,2.57544 -8.095106,4.961711 -12.225539,7.300193 -2.4558,1.336369 -3.042155,1.689708 -5.491396,2.894923 -2.088724,1.027813 -4.236793,1.931528 -6.311523,2.987933 -2.478441,1.316366 -0.616819,4.82141 1.861622,3.505045 z" />
    <path
       style="fill:#ffffff;stroke-width:0.264583;filter:url(#filter926)"
       id="path301-5"
       d="m 46.527085,11.227162 c -0.30693,3.461095 -0.436388,6.93475 -0.6161,10.404264 -0.191995,3.627097 -0.417537,7.253834 -0.522804,10.884955 -0.03793,1.308374 -0.07624,4.105856 -0.09591,5.386825 -0.07117,3.718616 -0.174393,7.436538 -0.282811,11.154228 -0.0818,2.805136 3.885258,2.920825 3.967062,0.115686 v 0 c 0.108948,-3.735948 0.212654,-7.472132 0.28403,-11.209015 0.0182,-1.186796 0.05799,-4.068453 0.09351,-5.297041 0.104463,-3.612915 0.329544,-7.221435 0.520351,-10.830343 0.179951,-3.474194 0.31128,-6.952155 0.616791,-10.41804 0.135425,-2.8030605 -3.8287,-2.9945795 -3.964125,-0.191519 z" />
    <path
       style="fill:#ffffff;stroke-width:0.264583;filter:url(#filter922)"
       id="path305-3"
       d="m 41.341282,25.414249 c 0.536519,0.445308 1.104399,0.84314 1.715409,1.178635 0.29614,0.156235 0.607026,0.280777 0.907016,0.429018 0.07133,0.0377 0.241604,0.134377 0.250737,0.139674 0.08194,0.06222 0.221311,0.1445 0.266068,0.172834 0.0214,0.01482 0.06759,0.05013 0.07752,0.05769 -0.02223,-0.01712 -0.04335,-0.03559 -0.06468,-0.05378 2.11115,1.848924 4.725927,-1.136697 2.614772,-2.985621 v 0 c -0.0315,-0.02695 -0.06294,-0.05399 -0.09571,-0.07941 -0.108998,-0.08528 -0.220871,-0.166855 -0.335484,-0.244436 -0.04756,-0.03077 -0.09481,-0.062 -0.142668,-0.0923 -0.01982,-0.01254 -0.07491,-0.05453 -0.0603,-0.0362 0.01783,0.02238 0.04673,0.03302 0.07048,0.04898 0.06297,0.0423 -0.248549,-0.173986 -0.187719,-0.128661 -0.209127,-0.131978 -0.426667,-0.249379 -0.646472,-0.362559 -0.252304,-0.123075 -0.508619,-0.237032 -0.763265,-0.354897 -0.385059,-0.202391 -0.726498,-0.465701 -1.065035,-0.737901 -2.15592,-1.796523 -4.696587,1.252409 -2.540666,3.048932 z" />
    <path
       style="fill:#ffffff;stroke-width:0.264583"
       id="path293-2"
       d="m 14.598214,8.343735 c -0.01,0.215467 -0.03488,0.430762 -0.02987,0.646401 0.04302,1.851703 0.329752,3.692283 0.509717,5.532565 0.246904,2.524783 0.237074,2.716021 0.401193,5.281797 0.209938,5.039337 0.265479,10.08374 0.366063,15.126166 -0.01339,1.656919 0.180548,3.322331 0.01337,4.976456 -0.05044,0.499099 -0.135429,0.932166 -0.221863,1.424889 -0.337491,1.8179 -0.505384,3.657733 -0.560864,5.504056 -0.02325,1.152649 -0.01747,2.305645 -9.79e-4,3.458337 0.01058,0.611714 -0.01871,0.145664 0.38081,1.348161 1.522602,2.357363 4.85642,0.204078 3.333818,-2.153285 v 0 c 0.274746,1.01415 0.262907,1.277254 0.253715,0.74827 -0.01574,-1.095814 -0.0215,-2.191911 -2.35e-4,-3.287702 0.04489,-1.657942 0.201923,-3.309236 0.504416,-4.941347 0.118625,-0.693685 0.206096,-1.130525 0.271582,-1.843913 0.162291,-1.767941 0.0016,-3.542668 -0.0058,-5.313074 C 19.71153,29.750707 19.656246,24.647837 19.439856,19.550296 19.267725,16.877166 19.280336,16.720141 19.023674,14.09477 18.796184,11.767798 18.798731,12.247598 18.60672,10.141231 18.52015,9.191516 18.52676,9.412879 18.5444,8.766358 18.843239,5.975985 14.897055,5.553361 14.598216,8.343735 Z" />
    <path
       style="fill:#ffffff;stroke-width:0.264583"
       id="path295-7"
       d="m 16.350811,11.624289 c 0.06689,0.04215 0.128562,0.09406 0.200687,0.126458 0.339737,0.152623 0.692878,0.274213 1.032334,0.427461 1.13407,0.511982 2.837418,1.357009 3.886748,1.917278 1.887305,1.007689 3.682573,2.062963 5.537177,3.131399 4.136823,2.438458 8.3079,4.817055 12.498135,7.162189 1.238243,0.702085 0.737222,0.366117 1.54159,0.947928 2.298859,1.609577 4.575146,-1.641499 2.276287,-3.251075 v 0 C 42.188672,21.306858 42.810798,21.700622 41.444153,20.925821 37.268152,18.588673 33.111347,16.21802 28.98861,13.787815 26.354564,12.27094 23.731758,10.745567 21.001413,9.405858 20.206394,9.015763 18.684845,8.28267 17.751,7.967604 17.372404,7.839871 16.978131,7.764439 16.591697,7.662856 13.790541,7.492524 13.549655,11.453957 16.350811,11.624289 Z" />
    <path
       style="fill:#ffffff;stroke-width:0.264583"
       id="path297-0"
       d="m 21.406166,27.868798 c 2.957475,-1.440276 5.969059,-2.761287 8.88163,-4.294725 0.992301,-0.522438 1.970556,-1.071134 2.955832,-1.606698 4.21839,-2.384971 8.409488,-4.824233 12.48188,-7.45235 1.269223,-0.859549 2.516442,-1.760042 3.671996,-2.769181 C 51.508051,9.896226 48.892296,6.911463 46.781752,8.76108 v 0 c -1.005959,0.885925 -2.105253,1.661877 -3.208751,2.419624 -3.988099,2.575441 -8.095107,4.961712 -12.225538,7.300193 -2.455802,1.336369 -3.042156,1.689708 -5.491397,2.894922 -2.088724,1.027814 -4.236792,1.931527 -6.311522,2.987935 -2.478441,1.316365 -0.616819,4.821409 1.861622,3.505044 z" />
    <path
       style="fill:#ffffff;stroke-width:0.264583"
       id="path301-9"
       d="m 45.775681,10.695133 c -0.30693,3.461096 -0.436387,6.93475 -0.6161,10.404263 -0.191995,3.627099 -0.417537,7.253835 -0.522804,10.884956 -0.03793,1.308375 -0.07624,4.105857 -0.09591,5.386826 -0.07117,3.718616 -0.174394,7.436538 -0.282813,11.154228 -0.0818,2.805136 3.885258,2.920825 3.967062,0.115686 v 0 c 0.10895,-3.735948 0.212656,-7.472132 0.28403,-11.209015 0.0182,-1.186796 0.05799,-4.068452 0.09351,-5.297043 0.10446,-3.612914 0.329541,-7.221434 0.520348,-10.830343 0.179951,-3.474193 0.311282,-6.952153 0.616794,-10.418038 0.135425,-2.803061 -3.828701,-2.99458 -3.964125,-0.19152 z" />
    <path
       style="fill:#ffffff;stroke-width:0.264583"
       id="path305-36"
       d="m 40.589877,24.882221 c 0.53652,0.445307 1.1044,0.843139 1.71541,1.178634 0.296141,0.156233 0.607026,0.280775 0.907016,0.429019 0.07133,0.0377 0.241604,0.134376 0.250737,0.139673 0.08194,0.06222 0.221311,0.1445 0.266068,0.172834 0.0214,0.01482 0.06759,0.05013 0.07752,0.05769 -0.02223,-0.01712 -0.04335,-0.03559 -0.06468,-0.05378 2.111153,1.848924 4.725927,-1.136698 2.614772,-2.985622 v 0 c -0.0315,-0.02695 -0.06294,-0.05399 -0.09571,-0.07941 -0.108995,-0.08528 -0.220871,-0.166857 -0.335483,-0.244438 -0.04756,-0.03077 -0.09481,-0.062 -0.142669,-0.0923 -0.01982,-0.01254 -0.07491,-0.05453 -0.0603,-0.0362 0.01783,0.02238 0.04673,0.03302 0.07048,0.04898 0.06297,0.0423 -0.248549,-0.173988 -0.187719,-0.128662 -0.209126,-0.131979 -0.426667,-0.24938 -0.646472,-0.362558 -0.252304,-0.123077 -0.508619,-0.237033 -0.763265,-0.354899 -0.385059,-0.202391 -0.726498,-0.465701 -1.065035,-0.737899 -2.15592,-1.796524 -4.696587,1.252407 -2.540667,3.048931 z" />
    <path
       d="m 14.598213,8.343735 c -0.01,0.215467 -0.03488,0.430763 -0.02987,0.646402 0.04302,1.851702 0.329752,3.692282 0.509717,5.532564 0.246904,2.524784 0.237074,2.716022 0.401193,5.281798 0.209938,5.039338 0.265479,10.08374 0.366063,15.126165 -0.01339,1.656919 0.180548,3.322331 0.01337,4.976456 -0.05044,0.499099 -0.135429,0.932166 -0.221863,1.424889 -0.337491,1.817899 -0.505384,3.657733 -0.560864,5.504056 -0.02325,1.152649 -0.01747,2.305645 -9.79e-4,3.458337 0.01058,0.611714 -0.01871,0.145664 0.38081,1.34816 1.522602,2.357364 4.85642,0.204079 3.333818,-2.153285 v 0 c 0.274747,1.014151 0.262907,1.277255 0.253715,0.748271 -0.01574,-1.095814 -0.0215,-2.191911 -2.35e-4,-3.287702 0.04489,-1.657942 0.201923,-3.309236 0.504416,-4.941347 0.118625,-0.693685 0.206096,-1.130525 0.271582,-1.843913 0.162291,-1.767941 0.0016,-3.542668 -0.0058,-5.313075 -0.101757,-5.100803 -0.157041,-10.203672 -0.373431,-15.301214 -0.172131,-2.67313 -0.15952,-2.830155 -0.416181,-5.455526 -0.227491,-2.326973 -0.224944,-1.847173 -0.416955,-3.95354 -0.08657,-0.949715 -0.07997,-0.728352 -0.06232,-1.374873 0.298839,-2.790373 -3.647345,-3.212996 -3.946184,-0.422623 z"
       id="path293-3-0"
       style="fill:#ffffff;stroke-width:0.264583;filter:url(#filter938-9)" />
    <path
       d="m 16.35081,11.62429 c 0.06689,0.04215 0.128562,0.09406 0.200687,0.126457 0.339737,0.152623 0.692878,0.274213 1.032334,0.427461 1.13407,0.511982 2.837419,1.357009 3.886748,1.917278 1.887306,1.007689 3.682574,2.062963 5.537178,3.1314 4.136823,2.438458 8.307901,4.817055 12.498136,7.16219 1.238241,0.702085 0.737221,0.366116 1.541589,0.947927 2.298859,1.609577 4.575146,-1.641499 2.276287,-3.251076 v 0 C 42.188672,21.306861 42.810798,21.700623 41.444153,20.925822 37.268152,18.588674 33.111347,16.21802 28.988609,13.787815 26.354564,12.27094 23.731757,10.745568 21.001412,9.405858 20.206393,9.015764 18.684844,8.282671 17.750999,7.967604 17.372403,7.839871 16.97813,7.764439 16.591696,7.662857 13.79054,7.492524 13.549654,11.453957 16.35081,11.62429 Z"
       id="path295-6-6"
       style="fill:#ffffff;stroke-width:0.264583;filter:url(#filter934-6)" />
    <path
       d="m 21.406165,27.868799 c 2.957475,-1.440275 5.969059,-2.761287 8.881631,-4.294726 0.992301,-0.522437 1.970555,-1.071132 2.955833,-1.606698 4.218389,-2.38497 8.409487,-4.824232 12.481879,-7.45235 1.269223,-0.859549 2.516442,-1.760041 3.671996,-2.769181 C 51.508051,9.896227 48.892296,6.911463 46.781752,8.76108 v 0 c -1.00596,0.885925 -2.105253,1.661877 -3.208751,2.419625 -3.988098,2.57544 -8.095106,4.961711 -12.225539,7.300193 -2.4558,1.336369 -3.042155,1.689708 -5.491396,2.894923 -2.088724,1.027813 -4.236793,1.931528 -6.311523,2.987933 -2.478441,1.316366 -0.616819,4.82141 1.861622,3.505045 z"
       id="path297-7-2"
       style="fill:#ffffff;stroke-width:0.264583;filter:url(#filter930-3)" />
    <path
       d="m 45.775681,10.695134 c -0.30693,3.461095 -0.436388,6.93475 -0.6161,10.404264 -0.191995,3.627097 -0.417537,7.253834 -0.522804,10.884955 -0.03793,1.308374 -0.07624,4.105856 -0.09591,5.386825 -0.07117,3.718616 -0.174393,7.436538 -0.282811,11.154228 -0.0818,2.805136 3.885258,2.920825 3.967062,0.115686 v 0 c 0.108948,-3.735948 0.212654,-7.472132 0.28403,-11.209015 0.0182,-1.186796 0.05799,-4.068453 0.09351,-5.297041 0.104463,-3.612915 0.329544,-7.221435 0.520351,-10.830343 0.179951,-3.474194 0.31128,-6.952155 0.616791,-10.41804 0.135425,-2.803061 -3.8287,-2.99458 -3.964125,-0.191519 z"
       id="path301-5-6"
       style="fill:#ffffff;stroke-width:0.264583;filter:url(#filter926-7)" />
    <path
       d="m 40.589878,24.882221 c 0.536519,0.445308 1.104399,0.84314 1.715409,1.178635 0.29614,0.156235 0.607026,0.280777 0.907016,0.429018 0.07133,0.0377 0.241604,0.134377 0.250737,0.139674 0.08194,0.06222 0.221311,0.1445 0.266068,0.172834 0.0214,0.01482 0.06759,0.05013 0.07752,0.05769 -0.02223,-0.01712 -0.04335,-0.03559 -0.06468,-0.05378 2.11115,1.848924 4.725927,-1.136697 2.614772,-2.985621 v 0 c -0.0315,-0.02695 -0.06294,-0.05399 -0.09571,-0.07941 -0.108998,-0.08528 -0.220871,-0.166855 -0.335484,-0.244436 -0.04756,-0.03077 -0.09481,-0.062 -0.142668,-0.0923 -0.01982,-0.01254 -0.07491,-0.05453 -0.0603,-0.0362 0.01783,0.02238 0.04673,0.03302 0.07048,0.04898 0.06297,0.0423 -0.248549,-0.173986 -0.187719,-0.128661 -0.209127,-0.131978 -0.426667,-0.249379 -0.646472,-0.362559 -0.252304,-0.123075 -0.508619,-0.237032 -0.763265,-0.354897 -0.385059,-0.202391 -0.726498,-0.465701 -1.065035,-0.737901 -2.15592,-1.796523 -4.696587,1.252409 -2.540666,3.048932 z"
       id="path305-3-1"
       style="fill:#ffffff;stroke-width:0.264583;filter:url(#filter922-3)" />
  </g>
</svg>
