<?xml version="1.0" encoding="UTF-8"?>
<svg width="24px" height="24px" version="1.1" viewBox="0 0 24 24" xmlns="http://www.w3.org/2000/svg" xmlns:cc="http://creativecommons.org/ns#" xmlns:dc="http://purl.org/dc/elements/1.1/" xmlns:rdf="http://www.w3.org/1999/02/22-rdf-syntax-ns#">
 <metadata>
  <rdf:RDF>
   <cc:Work rdf:about="">
    <dc:format>image/svg+xml</dc:format>
    <dc:type rdf:resource="http://purl.org/dc/dcmitype/StillImage"/>
    <dc:title>document-edit copy</dc:title>
   </cc:Work>
  </rdf:RDF>
 </metadata>
 <!-- Generator: Sketch 51.3 (57544) - http://www.bohemiancoding.com/sketch -->
 <title>document-edit copy</title>
 <desc>Created with Sketch.</desc>
 <g fill="#fff" fill-rule="evenodd" filter="url(#filter831)" stroke="#ffde17">
  <g transform="translate(6 5)" fill="#fff" fill-rule="nonzero" stroke="#ffde17">
   <path d="m6 1c-1.6565 0-3 1.3667-3 3.0625v2.9375h-2v6h10v-6h-2v-2.9375c0-1.6952-1.3438-3.0625-3-3.0625zm0-1c2.216 0 4 1.8225 4 4.0625v1.9375h1c0.554 0 1 0.446 1 1v6c0 0.554-0.446 1-1 1h-10c-0.554 0-1-0.446-1-1v-6c0-0.554 0.446-1 1-1h1v-1.9375c0-2.2409 1.784-4.0625 4-4.0625z"/>
   <rect x="2" y="6" width="8" height="1"/>
  </g>
 </g>
 <defs>
  <filter id="filter831" x="-.26" y="-.22286" width="1.52" height="1.4457" color-interpolation-filters="sRGB">
   <feGaussianBlur stdDeviation="1.3"/>
  </filter>
 </defs>
 <g id="document-edit-copy" fill="#ffde17" fill-rule="evenodd">
  <g transform="translate(6 5)" fill="#ffde17" fill-rule="nonzero">
   <path id="Combined-Shape" d="m6 1c-1.6565 0-3 1.3667-3 3.0625v2.9375h-2v6h10v-6h-2v-2.9375c0-1.6952-1.3438-3.0625-3-3.0625zm0-1c2.216 0 4 1.8225 4 4.0625v1.9375h1c0.554 0 1 0.446 1 1v6c0 0.554-0.446 1-1 1h-10c-0.554 0-1-0.446-1-1v-6c0-0.554 0.446-1 1-1h1v-1.9375c0-2.2409 1.784-4.0625 4-4.0625z"/>
   <rect id="Rectangle" x="2" y="6" width="8" height="1"/>
  </g>
 </g>
</svg>
