<?xml version="1.0" encoding="UTF-8"?>
<!-- Generator: Gravit.io -->
<svg width="48pt" height="48pt" style="isolation:isolate" version="1.1" viewBox="0 0 48 48" xmlns="http://www.w3.org/2000/svg" xmlns:xlink="http://www.w3.org/1999/xlink">
 <defs>
  <linearGradient id="linearGradient869" x1=".22079" x2=".90225" y1=".04724" y2=".90615" gradientTransform="matrix(47.058 0 0 46.985 .495 .559)" gradientUnits="userSpaceOnUse" xlink:href="#_lgradient_38"/>
  <filter id="filter873" x="-.10792" y="-.10808" width="1.2158" height="1.2162" color-interpolation-filters="sRGB">
   <feGaussianBlur stdDeviation="2.1159564"/>
  </filter>
 </defs>
 <linearGradient id="_lgradient_38" x1=".22079" x2=".90225" y1=".04724" y2=".90615" gradientTransform="matrix(47.058 0 0 46.985 .495 .559)" gradientUnits="userSpaceOnUse">
  <stop stop-color="#edb8d4" offset=".026087"/>
  <stop stop-color="#a26ef5" offset=".98696"/>
 </linearGradient>
 <path d="m22.417 43.272c1.174 0.099 2.049 1.135 1.953 2.312-0.097 1.176-1.133 2.051-2.312 1.952-5.91-0.492-11.426-3.205-15.429-7.594-3.993-4.389-6.187-10.131-6.133-16.067 0.056-6.235 2.592-12.201 7.038-16.578 4.456-4.367 10.468-6.793 16.703-6.737s12.201 2.592 16.578 7.038c4.366 4.456 6.793 10.468 6.737 16.703-0.011 1.18-0.978 2.13-2.158 2.119-1.181-0.01-2.131-0.977-2.12-2.158 0.046-5.101-1.941-10.018-5.513-13.665-3.582-3.637-8.462-5.713-13.563-5.759s-10.018 1.941-13.665 5.513c-3.637 3.582-5.713 8.462-5.759 13.563-0.044 4.855 1.742 9.556 5.015 13.147 3.272 3.591 7.787 5.803 12.628 6.211zm18.573-10.078c0.558-1.04 1.856-1.431 2.896-0.873 1.039 0.559 1.43 1.856 0.872 2.896-2.382 4.428-6.126 7.988-10.67 10.139-1.067 0.51-2.345 0.057-2.851-1.01-0.507-1.067-0.052-2.347 1.015-2.857 3.727-1.763 6.78-4.666 8.738-8.295zm-23.97-15.164c0 2.87 1.14 5.62 3.17 7.64 2.03 2.03 4.78 3.17 7.64 3.17 1.93 0 3.81-0.51 5.47-1.49-0.74 1.86-2.02 3.46-3.68 4.59s-3.62 1.73-5.62 1.73c-2.65 0-5.2-1.06-7.07-2.93-1.88-1.88-2.93-4.42-2.93-7.07 0-2.76 1.14-5.4 3.15-7.29-0.09 0.55-0.13 1.1-0.13 1.65zm3.98-4.56c-0.98 1.31-0.98 2.91-0.98 4.55v0.01c0 2.07 0.83 4.06 2.29 5.52 1.47 1.47 3.45 2.29 5.52 2.29 2.57 0 4.98-1.28 6.42-3.41 0.36-0.54 1.04-0.79 1.67-0.6s1.06 0.76 1.07 1.41l0.01 0.4v0.03c0 3.44-1.37 6.75-3.81 9.19-2.43 2.44-5.74 3.81-9.19 3.81s-6.76-1.37-9.19-3.81c-2.44-2.44-3.81-5.75-3.81-9.19 0-3.71 1.58-7.24 4.35-9.71 2.76-2.46 6.64-1.8 5.65-0.49z" fill="url(#_lgradient_38)" fill-rule="evenodd"/>
 <g filter="url(#filter873)" style="isolation:isolate">
  <path d="m22.417 43.272c1.174 0.099 2.049 1.135 1.953 2.312-0.097 1.176-1.133 2.051-2.312 1.952-5.91-0.492-11.426-3.205-15.429-7.594-3.993-4.389-6.187-10.131-6.133-16.067 0.056-6.235 2.592-12.201 7.038-16.578 4.456-4.367 10.468-6.793 16.703-6.737s12.201 2.592 16.578 7.038c4.366 4.456 6.793 10.468 6.737 16.703-0.011 1.18-0.978 2.13-2.158 2.119-1.181-0.01-2.131-0.977-2.12-2.158 0.046-5.101-1.941-10.018-5.513-13.665-3.582-3.637-8.462-5.713-13.563-5.759s-10.018 1.941-13.665 5.513c-3.637 3.582-5.713 8.462-5.759 13.563-0.044 4.855 1.742 9.556 5.015 13.147 3.272 3.591 7.787 5.803 12.628 6.211zm18.573-10.078c0.558-1.04 1.856-1.431 2.896-0.873 1.039 0.559 1.43 1.856 0.872 2.896-2.382 4.428-6.126 7.988-10.67 10.139-1.067 0.51-2.345 0.057-2.851-1.01-0.507-1.067-0.052-2.347 1.015-2.857 3.727-1.763 6.78-4.666 8.738-8.295zm-23.97-15.164c0 2.87 1.14 5.62 3.17 7.64 2.03 2.03 4.78 3.17 7.64 3.17 1.93 0 3.81-0.51 5.47-1.49-0.74 1.86-2.02 3.46-3.68 4.59s-3.62 1.73-5.62 1.73c-2.65 0-5.2-1.06-7.07-2.93-1.88-1.88-2.93-4.42-2.93-7.07 0-2.76 1.14-5.4 3.15-7.29-0.09 0.55-0.13 1.1-0.13 1.65zm3.98-4.56c-0.98 1.31-0.98 2.91-0.98 4.55v0.01c0 2.07 0.83 4.06 2.29 5.52 1.47 1.47 3.45 2.29 5.52 2.29 2.57 0 4.98-1.28 6.42-3.41 0.36-0.54 1.04-0.79 1.67-0.6s1.06 0.76 1.07 1.41l0.01 0.4v0.03c0 3.44-1.37 6.75-3.81 9.19-2.43 2.44-5.74 3.81-9.19 3.81s-6.76-1.37-9.19-3.81c-2.44-2.44-3.81-5.75-3.81-9.19 0-3.71 1.58-7.24 4.35-9.71 2.76-2.46 6.64-1.8 5.65-0.49z" fill="url(#linearGradient869)" fill-rule="evenodd"/>
 </g>
</svg>
