<?xml version="1.0" encoding="UTF-8"?>
<!-- Generator: Gravit.io -->
<svg width="48pt" height="48pt" style="isolation:isolate" version="1.1" viewBox="0 0 48 48" xmlns="http://www.w3.org/2000/svg" xmlns:xlink="http://www.w3.org/1999/xlink">
 <defs>
  <linearGradient id="linearGradient865" x1=".21875" x2="1.099" y1=".17506" y2="1.1182" gradientTransform="matrix(46.864 0 0 47.058 .532 .524)" gradientUnits="userSpaceOnUse" xlink:href="#_lgradient_56"/>
  <filter id="filter869" x="-.10822" y="-.10778" width="1.2164" height="1.2156" color-interpolation-filters="sRGB">
   <feGaussianBlur stdDeviation="2.1132362"/>
  </filter>
 </defs>
 <linearGradient id="_lgradient_56" x1=".21875" x2="1.099" y1=".17506" y2="1.1182" gradientTransform="matrix(46.864 0 0 47.058 .532 .524)" gradientUnits="userSpaceOnUse">
  <stop stop-color="#fccb90" offset="0"/>
  <stop stop-color="#d57eeb" offset=".83913"/>
 </linearGradient>
 <path d="m14.449 30.207 1.88 2.191 12.278-10.495 2.978 3.483c0.337 0.394 0.692 0.301 0.794-0.207l1.825-9.149c0.101-0.509-0.237-0.904-0.755-0.883l-9.322 0.379c-0.517 0.021-0.665 0.358-0.328 0.752l2.978 3.483-6.781 5.797c-0.591 0.505-1.481 0.435-1.986-0.156s-0.436-1.481 0.155-1.986l4.64-3.966-3.124-3.654c-1.684-1.97-0.947-3.54 1.644-3.503l11.394 0.162c2.591 0.037 4.397 2.149 4.03 4.715l-1.613 11.28c-0.367 2.566-2.032 3.049-3.716 1.079l-3.124-3.655-11.108 9.496c-0.379 0.324-0.952 0.328-1.503 0.071-0.362-0.112-0.701-0.32-0.965-0.628l-2.877-3.351c-0.285-0.333-0.442-0.732-0.476-1.136-0.132-0.552-0.029-1.074 0.33-1.38l2.911-2.78c0.591-0.505 1.481-0.435 1.986 0.156s0.435 1.481-0.155 1.986l-1.99 1.899zm28.686-3.555c0.16-1.168 1.24-1.988 2.41-1.83 1.17 0.157 1.99 1.236 1.83 2.409-0.797 5.877-3.792 11.245-8.383 15.015-4.59 3.76-10.438 5.654-16.363 5.293-6.224-0.38-12.051-3.221-16.192-7.888-4.129-4.676-6.241-10.806-5.862-17.029 0.379-6.224 3.22-12.051 7.887-16.192 4.677-4.129 10.806-6.242 17.03-5.862 1.178 0.072 2.077 1.087 2.005 2.265s-1.087 2.077-2.265 2.005c-5.092-0.311-10.105 1.42-13.933 4.797-3.817 3.389-6.144 8.155-6.454 13.247s1.42 10.105 4.798 13.932c3.389 3.818 8.154 6.144 13.246 6.455 4.847 0.295 9.634-1.246 13.39-4.327 3.756-3.082 6.199-7.477 6.856-12.29zm-9.102-19.07c-1.01-0.612-1.333-1.928-0.721-2.937 0.611-1.01 1.927-1.333 2.937-0.721 4.298 2.608 7.659 6.531 9.572 11.18 0.454 1.092-0.064 2.345-1.156 2.796s-2.347-0.07-2.801-1.162c-1.567-3.814-4.308-7.013-7.831-9.156z" fill="url(#_lgradient_56)" fill-rule="evenodd"/>
 <g filter="url(#filter869)" style="isolation:isolate">
  <path d="m14.449 30.207 1.88 2.191 12.278-10.495 2.978 3.483c0.337 0.394 0.692 0.301 0.794-0.207l1.825-9.149c0.101-0.509-0.237-0.904-0.755-0.883l-9.322 0.379c-0.517 0.021-0.665 0.358-0.328 0.752l2.978 3.483-6.781 5.797c-0.591 0.505-1.481 0.435-1.986-0.156s-0.436-1.481 0.155-1.986l4.64-3.966-3.124-3.654c-1.684-1.97-0.947-3.54 1.644-3.503l11.394 0.162c2.591 0.037 4.397 2.149 4.03 4.715l-1.613 11.28c-0.367 2.566-2.032 3.049-3.716 1.079l-3.124-3.655-11.108 9.496c-0.379 0.324-0.952 0.328-1.503 0.071-0.362-0.112-0.701-0.32-0.965-0.628l-2.877-3.351c-0.285-0.333-0.442-0.732-0.476-1.136-0.132-0.552-0.029-1.074 0.33-1.38l2.911-2.78c0.591-0.505 1.481-0.435 1.986 0.156s0.435 1.481-0.155 1.986zm28.686-3.555c0.16-1.168 1.24-1.988 2.41-1.83 1.17 0.157 1.99 1.236 1.83 2.409-0.797 5.877-3.792 11.245-8.383 15.015-4.59 3.76-10.438 5.654-16.363 5.293-6.224-0.38-12.051-3.221-16.192-7.888-4.129-4.676-6.241-10.806-5.862-17.029 0.379-6.224 3.22-12.051 7.887-16.192 4.677-4.129 10.806-6.242 17.03-5.862 1.178 0.072 2.077 1.087 2.005 2.265s-1.087 2.077-2.265 2.005c-5.092-0.311-10.105 1.42-13.933 4.797-3.817 3.389-6.144 8.155-6.454 13.247s1.42 10.105 4.798 13.932c3.389 3.818 8.154 6.144 13.246 6.455 4.847 0.295 9.634-1.246 13.39-4.327 3.756-3.082 6.199-7.477 6.856-12.29zm-9.102-19.07c-1.01-0.612-1.333-1.928-0.721-2.937 0.611-1.01 1.927-1.333 2.937-0.721 4.298 2.608 7.659 6.531 9.572 11.18 0.454 1.092-0.064 2.345-1.156 2.796s-2.347-0.07-2.801-1.162c-1.567-3.814-4.308-7.013-7.831-9.156z" fill="url(#linearGradient865)" fill-rule="evenodd"/>
 </g>
</svg>
