<?xml version="1.0" encoding="UTF-8"?>
<!-- Generator: Gravit.io -->
<svg width="48pt" height="48pt" style="isolation:isolate" version="1.1" viewBox="0 0 48 48" xmlns="http://www.w3.org/2000/svg" xmlns:xlink="http://www.w3.org/1999/xlink">
 <defs>
  <linearGradient id="linearGradient863" x1="-.014458" x2="1.0165" y1=".0098392" y2="1.0723" gradientTransform="matrix(46.808 0 0 47 .596 .5)" gradientUnits="userSpaceOnUse" xlink:href="#_lgradient_58"/>
  <filter id="filter866" x="-.11556" y="-.11508" width="1.2311" height="1.2302" color-interpolation-filters="sRGB">
   <feGaussianBlur stdDeviation="2.2537368"/>
  </filter>
 </defs>
 <linearGradient id="_lgradient_58" x1="-.014458" x2="1.0165" y1=".0098392" y2="1.0723" gradientTransform="matrix(46.808 0 0 47 .596 .5)" gradientUnits="userSpaceOnUse">
  <stop stop-color="#f9d423" offset="0"/>
  <stop stop-color="#ff4e50" offset=".51562"/>
  <stop stop-color="#8a2387" offset=".9913"/>
 </linearGradient>
 <path d="m29.102 20.17c-0.762-0.8-0.731-2.068 0.07-2.83 0.8-0.762 2.068-0.73 2.83 0.07 0.38 0.4 0.73 0.83 1.04 1.28 1.29 1.85 1.99 4.05 1.99 6.3 0 3.59-1.75 6.96-4.69 9.02-1.85 1.29-4.05 1.99-6.3 1.99-3.59 0-6.96-1.75-9.02-4.69-1.29-1.85-1.99-4.05-1.99-6.3 0-2.82 1.08-5.54 3.02-7.59 0.761-0.8 2.029-0.832 2.83-0.07 0.8 0.762 0.831 2.03 0.07 2.83-1.23 1.3-1.92 3.03-1.92 4.83 0 1.43 0.44 2.83 1.26 4 1.32 1.87 3.46 2.99 5.75 2.99 1.43 0 2.83-0.44 4-1.26 1.87-1.32 2.99-3.46 2.99-5.75 0-1.43-0.44-2.83-1.27-4-0.2-0.29-0.42-0.57-0.66-0.82zm-5.07-8.17c1.104 0 2 0.896 2 2v10c0 1.104-0.896 2-2 2s-2-0.896-2-2v-10c0-1.104 0.896-2 2-2zm8.917-5.048c-1.045-0.549-1.447-1.843-0.898-2.887 0.549-1.045 1.843-1.448 2.887-0.899 4.449 2.342 8.043 6.054 10.235 10.577 0.52 1.063 0.079 2.345-0.984 2.861-1.062 0.517-2.346 0.074-2.866-0.989-1.797-3.711-4.727-6.738-8.374-8.663zm-9.101-2.452c1.104-6e-3 1.996-0.906 1.99-2.01-5e-3 -1.104-0.906-1.996-2.01-1.99-5.76 0.03-11.31 2.18-15.59 6.03-4.28 3.86-7 9.15-7.63 14.88-0.121 1.098 0.672 2.089 1.77 2.21 1.099 0.121 2.089-0.672 2.21-1.77 0.52-4.75 2.78-9.15 6.33-12.34 3.55-3.2 8.15-4.98 12.93-5.01zm-18.08 26.5c-0.397-1.032-1.558-1.547-2.59-1.15s-1.547 1.558-1.15 2.59c1.91 4.93 5.42 9.08 9.97 11.78 0.95 0.563 2.177 0.249 2.74-0.7s0.25-2.177-0.7-2.74c-3.78-2.24-6.69-5.68-8.27-9.78zm17.57 12.49c-1.104-0.017-2.013 0.866-2.03 1.97-0.016 1.104 0.866 2.013 1.97 2.03l0.66 0.01h0.03c5.91 0 11.61-2.23 15.95-6.24s7.02-9.52 7.48-15.41c0.083-1.098-0.741-2.062-1.84-2.15-1.098-0.088-2.061 0.736-2.15 1.84-0.38 4.88-2.6 9.45-6.2 12.78s-8.32 5.18-13.22 5.18l-0.65-0.01z" fill="url(#_lgradient_58)" fill-rule="evenodd"/>
 <path d="m29.102 20.17c-0.762-0.8-0.731-2.068 0.07-2.83 0.8-0.762 2.068-0.73 2.83 0.07 0.38 0.4 0.73 0.83 1.04 1.28 1.29 1.85 1.99 4.05 1.99 6.3 0 3.59-1.75 6.96-4.69 9.02-1.85 1.29-4.05 1.99-6.3 1.99-3.59 0-6.96-1.75-9.02-4.69-1.29-1.85-1.99-4.05-1.99-6.3 0-2.82 1.08-5.54 3.02-7.59 0.761-0.8 2.029-0.832 2.83-0.07 0.8 0.762 0.831 2.03 0.07 2.83-1.23 1.3-1.92 3.03-1.92 4.83 0 1.43 0.44 2.83 1.26 4 1.32 1.87 3.46 2.99 5.75 2.99 1.43 0 2.83-0.44 4-1.26 1.87-1.32 2.99-3.46 2.99-5.75 0-1.43-0.44-2.83-1.27-4-0.2-0.29-0.42-0.57-0.66-0.82zm-5.07-8.17c1.104 0 2 0.896 2 2v10c0 1.104-0.896 2-2 2s-2-0.896-2-2v-10c0-1.104 0.896-2 2-2zm8.917-5.048c-1.045-0.549-1.447-1.843-0.898-2.887 0.549-1.045 1.843-1.448 2.887-0.899 4.449 2.342 8.043 6.054 10.235 10.577 0.52 1.063 0.079 2.345-0.984 2.861-1.062 0.517-2.346 0.074-2.866-0.989-1.797-3.711-4.727-6.738-8.374-8.663zm-9.101-2.452c1.104-6e-3 1.996-0.906 1.99-2.01-5e-3 -1.104-0.906-1.996-2.01-1.99-5.76 0.03-11.31 2.18-15.59 6.03-4.28 3.86-7 9.15-7.63 14.88-0.121 1.098 0.672 2.089 1.77 2.21 1.099 0.121 2.089-0.672 2.21-1.77 0.52-4.75 2.78-9.15 6.33-12.34 3.55-3.2 8.15-4.98 12.93-5.01zm-18.08 26.5c-0.397-1.032-1.558-1.547-2.59-1.15s-1.547 1.558-1.15 2.59c1.91 4.93 5.42 9.08 9.97 11.78 0.95 0.563 2.177 0.249 2.74-0.7s0.25-2.177-0.7-2.74c-3.78-2.24-6.69-5.68-8.27-9.78zm17.57 12.49c-1.104-0.017-2.013 0.866-2.03 1.97-0.016 1.104 0.866 2.013 1.97 2.03l0.66 0.01h0.03c5.91 0 11.61-2.23 15.95-6.24s7.02-9.52 7.48-15.41c0.083-1.098-0.741-2.062-1.84-2.15-1.098-0.088-2.061 0.736-2.15 1.84-0.38 4.88-2.6 9.45-6.2 12.78s-8.32 5.18-13.22 5.18z" fill="url(#linearGradient863)" fill-rule="evenodd" filter="url(#filter866)" style="isolation:isolate"/>
</svg>
