<?xml version="1.0" encoding="UTF-8"?>
<!-- Generator: Gravit.io -->
<svg width="48pt" height="48pt" style="isolation:isolate" version="1.1" viewBox="0 0 48 48" xmlns="http://www.w3.org/2000/svg" xmlns:xlink="http://www.w3.org/1999/xlink">
 <defs>
  <linearGradient id="linearGradient863" x1=".09375" x2=".8996" y1=".09375" y2=".86503" gradientTransform="scale(48)" gradientUnits="userSpaceOnUse" xlink:href="#_lgradient_54"/>
  <filter id="filter866" x="-.11532" y="-.11532" width="1.2306" height="1.2306" color-interpolation-filters="sRGB">
   <feGaussianBlur stdDeviation="2.3063944"/>
  </filter>
 </defs>
 <linearGradient id="_lgradient_54" x1=".09375" x2=".8996" y1=".09375" y2=".86503" gradientTransform="scale(48)" gradientUnits="userSpaceOnUse">
  <stop stop-color="#dc508d" offset="0"/>
  <stop stop-color="#f58b7b" offset=".50417"/>
  <stop stop-color="#38f9d7" offset=".97917"/>
 </linearGradient>
 <path d="m33.886 41.178c0.999-0.571 2.279-0.225 2.856 0.771s0.234 2.274-0.766 2.85c-3.887 2.238-8.32 3.34-12.794 3.187-4.057-0.138-8.016-1.307-11.505-3.389-0.988-0.592-1.309-1.876-0.717-2.864 0.593-0.988 1.876-1.309 2.865-0.717 2.875 1.727 6.141 2.684 9.499 2.799 3.703 0.126 7.356-0.783 10.562-2.637zm7.862-26.022c-0.518-1.032-0.101-2.288 0.931-2.803s2.285-0.096 2.798 0.936c1.788 3.569 2.645 7.535 2.509 11.529-0.104 3.045-0.78 6.039-2.003 8.817-0.462 1.056-1.695 1.538-2.751 1.075-1.056-0.462-1.538-1.695-1.075-2.751 1.018-2.294 1.572-4.77 1.657-7.283 0.113-3.296-0.6-6.567-2.066-9.52zm-26.337-9.021c-1.037 0.495-2.285 0.055-2.786-0.982-0.5-1.037-0.065-2.286 0.972-2.786 3.492-1.677 7.341-2.485 11.221-2.353 3.733 0.127 7.396 1.119 10.675 2.912 1.013 0.553 1.386 1.824 0.833 2.837-0.553 1.012-1.824 1.385-2.837 0.832-2.706-1.481-5.727-2.304-8.813-2.41-3.202-0.109-6.378 0.556-9.265 1.95zm-10.221 24.156c0.367 1.09-0.223 2.273-1.316 2.639s-2.278-0.227-2.644-1.322c-0.899-2.714-1.313-5.568-1.216-8.426 0.129-3.775 1.142-7.478 2.978-10.788 0.553-1.007 1.821-1.371 2.831-0.812s1.376 1.83 0.817 2.837c-1.513 2.736-2.348 5.787-2.455 8.905-0.08 2.368 0.257 4.718 1.005 6.967zm36.774-21.455c-0.04 1.152-1.006 2.054-2.157 2.015s-2.054-1.006-2.015-2.157 1.006-2.054 2.157-2.014c1.151 0.039 2.054 1.005 2.015 2.156zm-32.602 28.927c-0.039 1.151-1.005 2.054-2.156 2.015-1.152-0.04-2.054-1.006-2.015-2.157s1.006-2.054 2.157-2.015 2.054 1.006 2.014 2.157zm33.409 1.139c0.039-1.151-0.864-2.117-2.015-2.157-1.151-0.039-2.117 0.864-2.157 2.015-0.039 1.151 0.864 2.118 2.015 2.157s2.118-0.864 2.157-2.015zm-31.906-31.126c0.039-1.151-0.863-2.118-2.014-2.157-1.152-0.039-2.118 0.864-2.157 2.015-0.04 1.151 0.863 2.117 2.014 2.157 1.152 0.039 2.118-0.864 2.157-2.015zm8.853 9.224h3v12.304h-3v-12.304zm6 0h3v12.304h-3v-12.304zm7.692 1.49c-0.37-0.745-0.067-1.648 0.675-2.015s1.641-0.065 2.005 0.675c0.93 1.87 1.41 3.92 1.41 6 0 3.58-1.42 7.02-3.95 9.55s-5.97 3.95-9.55 3.95c-0.85 0-1.7-0.08-2.53-0.24-0.817-0.155-1.355-0.939-1.2-1.75s0.943-1.345 1.76-1.19c0.65 0.12 1.31 0.18 1.97 0.18 2.78 0 5.46-1.11 7.42-3.07 1.97-1.97 3.08-4.64 3.08-7.43 0-1.62-0.37-3.21-1.09-4.66zm-18.42 10.06c0.43 0.712 0.202 1.635-0.51 2.06s-1.635 0.192-2.06-0.52c-1.26-2.09-1.92-4.49-1.92-6.94 0-3.58 1.42-7.01 3.95-9.54s5.97-3.96 9.55-3.96c0.62 0 1.23 0.04 1.84 0.13 0.822 0.11 1.398 0.865 1.285 1.685s-0.868 1.395-1.685 1.285c-0.48-0.07-0.96-0.1-1.44-0.1-2.78 0-5.46 1.11-7.42 3.08-1.97 1.97-3.08 4.64-3.08 7.42 0 1.9 0.52 3.77 1.49 5.4z" fill="url(#_lgradient_54)" fill-rule="evenodd"/>
 <path d="m33.886 41.178c0.999-0.571 2.279-0.225 2.856 0.771s0.234 2.274-0.766 2.85c-3.887 2.238-8.32 3.34-12.794 3.187-4.057-0.138-8.016-1.307-11.505-3.389-0.988-0.592-1.309-1.876-0.717-2.864 0.593-0.988 1.876-1.309 2.865-0.717 2.875 1.727 6.141 2.684 9.499 2.799 3.703 0.126 7.356-0.783 10.562-2.637zm7.862-26.022c-0.518-1.032-0.101-2.288 0.931-2.803s2.285-0.096 2.798 0.936c1.788 3.569 2.645 7.535 2.509 11.529-0.104 3.045-0.78 6.039-2.003 8.817-0.462 1.056-1.695 1.538-2.751 1.075-1.056-0.462-1.538-1.695-1.075-2.751 1.018-2.294 1.572-4.77 1.657-7.283 0.113-3.296-0.6-6.567-2.066-9.52zm-26.337-9.021c-1.037 0.495-2.285 0.055-2.786-0.982-0.5-1.037-0.065-2.286 0.972-2.786 3.492-1.677 7.341-2.485 11.221-2.353 3.733 0.127 7.396 1.119 10.675 2.912 1.013 0.553 1.386 1.824 0.833 2.837-0.553 1.012-1.824 1.385-2.837 0.832-2.706-1.481-5.727-2.304-8.813-2.41-3.202-0.109-6.378 0.556-9.265 1.95zm-10.221 24.156c0.367 1.09-0.223 2.273-1.316 2.639s-2.278-0.227-2.644-1.322c-0.899-2.714-1.313-5.568-1.216-8.426 0.129-3.775 1.142-7.478 2.978-10.788 0.553-1.007 1.821-1.371 2.831-0.812s1.376 1.83 0.817 2.837c-1.513 2.736-2.348 5.787-2.455 8.905-0.08 2.368 0.257 4.718 1.005 6.967zm36.774-21.455c-0.04 1.152-1.006 2.054-2.157 2.015s-2.054-1.006-2.015-2.157 1.006-2.054 2.157-2.014c1.151 0.039 2.054 1.005 2.015 2.156zm-32.602 28.927c-0.039 1.151-1.005 2.054-2.156 2.015-1.152-0.04-2.054-1.006-2.015-2.157s1.006-2.054 2.157-2.015 2.054 1.006 2.014 2.157zm33.409 1.139c0.039-1.151-0.864-2.117-2.015-2.157-1.151-0.039-2.117 0.864-2.157 2.015-0.039 1.151 0.864 2.118 2.015 2.157s2.118-0.864 2.157-2.015zm-31.906-31.126c0.039-1.151-0.863-2.118-2.014-2.157-1.152-0.039-2.118 0.864-2.157 2.015-0.04 1.151 0.863 2.117 2.014 2.157 1.152 0.039 2.118-0.864 2.157-2.015zm8.853 9.224h3v12.304h-3zm6 0h3v12.304h-3zm7.692 1.49c-0.37-0.745-0.067-1.648 0.675-2.015s1.641-0.065 2.005 0.675c0.93 1.87 1.41 3.92 1.41 6 0 3.58-1.42 7.02-3.95 9.55s-5.97 3.95-9.55 3.95c-0.85 0-1.7-0.08-2.53-0.24-0.817-0.155-1.355-0.939-1.2-1.75s0.943-1.345 1.76-1.19c0.65 0.12 1.31 0.18 1.97 0.18 2.78 0 5.46-1.11 7.42-3.07 1.97-1.97 3.08-4.64 3.08-7.43 0-1.62-0.37-3.21-1.09-4.66zm-18.42 10.06c0.43 0.712 0.202 1.635-0.51 2.06s-1.635 0.192-2.06-0.52c-1.26-2.09-1.92-4.49-1.92-6.94 0-3.58 1.42-7.01 3.95-9.54s5.97-3.96 9.55-3.96c0.62 0 1.23 0.04 1.84 0.13 0.822 0.11 1.398 0.865 1.285 1.685s-0.868 1.395-1.685 1.285c-0.48-0.07-0.96-0.1-1.44-0.1-2.78 0-5.46 1.11-7.42 3.08-1.97 1.97-3.08 4.64-3.08 7.42 0 1.9 0.52 3.77 1.49 5.4z" fill="url(#linearGradient863)" fill-rule="evenodd" filter="url(#filter866)" style="isolation:isolate"/>
</svg>
