<?xml version="1.0" encoding="UTF-8" standalone="no"?>
<svg
   xmlns:dc="http://purl.org/dc/elements/1.1/"
   xmlns:cc="http://creativecommons.org/ns#"
   xmlns:rdf="http://www.w3.org/1999/02/22-rdf-syntax-ns#"
   xmlns:svg="http://www.w3.org/2000/svg"
   xmlns="http://www.w3.org/2000/svg"
   xmlns:sodipodi="http://sodipodi.sourceforge.net/DTD/sodipodi-0.dtd"
   xmlns:inkscape="http://www.inkscape.org/namespaces/inkscape"
   inkscape:version="1.0 (4035a4fb49, 2020-05-01)"
   sodipodi:docname="logout_blur.svg"
   id="svg26"
   version="1.1"
   viewBox="0 0 32 32">
  <metadata
     id="metadata30">
    <rdf:RDF>
      <cc:Work
         rdf:about="">
        <dc:format>image/svg+xml</dc:format>
        <dc:type
           rdf:resource="http://purl.org/dc/dcmitype/StillImage" />
        <dc:title></dc:title>
      </cc:Work>
    </rdf:RDF>
  </metadata>
  <sodipodi:namedview
     inkscape:current-layer="svg26"
     inkscape:window-maximized="1"
     inkscape:window-y="0"
     inkscape:window-x="0"
     inkscape:cy="9.4896399"
     inkscape:cx="17.832091"
     inkscape:zoom="26.28125"
     showgrid="false"
     id="namedview28"
     inkscape:window-height="1021"
     inkscape:window-width="1920"
     inkscape:pageshadow="2"
     inkscape:pageopacity="0"
     guidetolerance="10"
     gridtolerance="10"
     objecttolerance="10"
     borderopacity="1"
     bordercolor="#666666"
     pagecolor="#000000"
     inkscape:document-rotation="0"
     inkscape:pagecheckerboard="false" />
  <defs
     id="defs3051">
    <style
       id="current-color-scheme"
       type="text/css">
      .ColorScheme-Text {
        color:#232629;
      }
      </style>
    <filter
       inkscape:collect="always"
       style="color-interpolation-filters:sRGB"
       id="filter846"
       x="-0.16428"
       width="1.32856"
       y="-0.16428"
       height="1.32856">
      <feGaussianBlur
         inkscape:collect="always"
         stdDeviation="1.6428"
         id="feGaussianBlur848" />
    </filter>
    <filter
       height="1.32856"
       y="-0.16428"
       width="1.32856"
       x="-0.16428"
       id="filter846-3"
       style="color-interpolation-filters:sRGB"
       inkscape:collect="always">
      <feGaussianBlur
         id="feGaussianBlur848-6"
         stdDeviation="1.6428"
         inkscape:collect="always" />
    </filter>
  </defs>
  <path
     id="path24"
     class="ColorScheme-Text"
     d="M 16,3.9999997 A 12,12 0 0 0 4,16 12,12 0 0 0 16,28 12,12 0 0 0 28,16 12,12 0 0 0 16,3.9999997 Z m 0,1 A 11,11 0 0 1 27,16 11,11 0 0 1 16,27 11,11 0 0 1 5,16 11,11 0 0 1 16,4.9999997 Z m 3.269531,3 L 11,16 19.269531,24 20,23.292969 12.460938,16 20,8.7070309 19.269531,7.9999997 Z"
     style="fill:#ffffff;fill-opacity:1;stroke:none" />
  <path
     style="color:#232629;fill:#ffffff;fill-opacity:1;stroke:none;filter:url(#filter846)"
     d="M 16,3.9999997 A 12,12 0 0 0 3.9999997,16 12,12 0 0 0 16,28 12,12 0 0 0 28,16 12,12 0 0 0 16,3.9999997 Z m 0,1 A 11,11 0 0 1 27,16 11,11 0 0 1 16,27 11,11 0 0 1 4.9999997,16 11,11 0 0 1 16,4.9999997 Z m 3.269531,3 L 11,16 19.269531,24 20,23.292969 12.460938,16 20,8.7070309 Z"
     class="ColorScheme-Text"
     id="path24-3" />
  <path
     id="path24-3-7"
     class="ColorScheme-Text"
     d="M 15.537677,4.0103113 A 12,12 0 0 0 3.5376771,16.010312 a 12,12 0 0 0 11.9999999,12 12,12 0 0 0 12,-12 12,12 0 0 0 -12,-12.0000007 z m 0,1 a 11,11 0 0 1 11,11.0000007 11,11 0 0 1 -11,11 11,11 0 0 1 -10.9999999,-11 A 11,11 0 0 1 15.537677,5.0103113 Z m 3.269531,3 -8.269531,8.0000007 8.269531,8 0.730469,-0.707031 -7.539062,-7.292969 7.539062,-7.2929695 z"
     style="color:#232629;fill:#ffffff;fill-opacity:1;stroke:none;filter:url(#filter846-3)" />
</svg>
