<?xml version="1.0" encoding="UTF-8" standalone="no"?>
<svg
   xmlns:dc="http://purl.org/dc/elements/1.1/"
   xmlns:cc="http://creativecommons.org/ns#"
   xmlns:rdf="http://www.w3.org/1999/02/22-rdf-syntax-ns#"
   xmlns:svg="http://www.w3.org/2000/svg"
   xmlns="http://www.w3.org/2000/svg"
   xmlns:sodipodi="http://sodipodi.sourceforge.net/DTD/sodipodi-0.dtd"
   xmlns:inkscape="http://www.inkscape.org/namespaces/inkscape"
   inkscape:version="1.0 (4035a4fb49, 2020-05-01)"
   sodipodi:docname="restart_blur.svg"
   id="svg47"
   viewBox="0 0 32 32"
   version="1.1">
  <metadata
     id="metadata51">
    <rdf:RDF>
      <cc:Work
         rdf:about="">
        <dc:format>image/svg+xml</dc:format>
        <dc:type
           rdf:resource="http://purl.org/dc/dcmitype/StillImage" />
        <dc:title></dc:title>
      </cc:Work>
    </rdf:RDF>
  </metadata>
  <sodipodi:namedview
     inkscape:current-layer="svg47"
     inkscape:window-maximized="1"
     inkscape:window-y="0"
     inkscape:window-x="0"
     inkscape:cy="13.303668"
     inkscape:cx="8.1687483"
     inkscape:zoom="13.140625"
     showgrid="false"
     id="namedview49"
     inkscape:window-height="1021"
     inkscape:window-width="1920"
     inkscape:pageshadow="2"
     inkscape:pageopacity="0"
     guidetolerance="10"
     gridtolerance="10"
     objecttolerance="10"
     borderopacity="1"
     bordercolor="#666666"
     pagecolor="#000000"
     inkscape:document-rotation="0"
     inkscape:pagecheckerboard="false" />
  <defs
     id="defs43">
    <style
       id="current-color-scheme"
       type="text/css">
            .ColorScheme-Text {
                color:#232629;
            }
        </style>
    <filter
       inkscape:collect="always"
       style="color-interpolation-filters:sRGB"
       id="filter846"
       x="-0.16428"
       width="1.32856"
       y="-0.16428"
       height="1.32856">
      <feGaussianBlur
         inkscape:collect="always"
         stdDeviation="1.6428"
         id="feGaussianBlur848" />
    </filter>
    <filter
       height="1.32856"
       y="-0.16428"
       width="1.32856"
       x="-0.16428"
       id="filter846-3"
       style="color-interpolation-filters:sRGB"
       inkscape:collect="always">
      <feGaussianBlur
         id="feGaussianBlur848-6"
         stdDeviation="1.6428"
         inkscape:collect="always" />
    </filter>
  </defs>
  <path
     id="path45"
     d="M 4,16 A 12,12 0 0 1 5.671875,9.916016 L 11.050781,15.292969 10.339844,16 5.935547,11.595703 A 11,11 0 0 0 5,16 11,11 0 0 0 16,27 11,11 0 0 0 21.351562,25.595703 l 0.728516,0.732422 A 12,12 0 0 1 16,28 12,12 0 0 1 4,16 Z M 9.916016,5.671875 A 12,12 0 0 1 16,4 12,12 0 0 1 28,16 12,12 0 0 1 26.328125,22.083984 L 20.949219,16.707031 21.65625,16 26.060547,20.40625 A 11,11 0 0 0 27,16 11,11 0 0 0 16,5 11,11 0 0 0 10.648438,6.404297 Z"
     class="ColorScheme-Text"
     style="fill:#ffffff;fill-opacity:1;stroke:none" />
  <path
     style="color:#232629;fill:#ffffff;fill-opacity:1;stroke:none;filter:url(#filter846)"
     class="ColorScheme-Text"
     d="M 3.267578,15.267578 A 12,12 0 0 1 4.939453,9.183594 l 5.378906,5.376953 -0.710937,0.707031 -4.404297,-4.404297 a 11,11 0 0 0 -0.935547,4.404297 11,11 0 0 0 11,11 11,11 0 0 0 5.351562,-1.404297 l 0.728516,0.732422 a 12,12 0 0 1 -6.080078,1.671875 12,12 0 0 1 -12,-12 z M 9.183594,4.939453 a 12,12 0 0 1 6.083984,-1.671875 12,12 0 0 1 12,12 12,12 0 0 1 -1.671875,6.083984 l -5.378906,-5.376953 0.707031,-0.707031 4.404297,4.40625 a 11,11 0 0 0 0.939453,-4.40625 11,11 0 0 0 -11,-11 11,11 0 0 0 -5.351562,1.404297 z"
     id="path45-3" />
  <path
     id="path45-3-7"
     d="m 4.728516,16.732422 a 12,12 0 0 1 1.671875,-6.083984 l 5.378906,5.376953 -0.710937,0.707031 -4.404297,-4.404297 a 11,11 0 0 0 -0.935547,4.404297 11,11 0 0 0 11,11 11,11 0 0 0 5.351562,-1.404297 l 0.728516,0.732422 a 12,12 0 0 1 -6.080078,1.671875 12,12 0 0 1 -12,-12 z M 10.644532,6.4042966 a 12,12 0 0 1 6.083984,-1.671875 12,12 0 0 1 12,12.0000004 12,12 0 0 1 -1.671875,6.083984 l -5.378906,-5.376953 0.707031,-0.707031 4.404297,4.40625 a 11,11 0 0 0 0.939453,-4.40625 11,11 0 0 0 -11,-11.0000004 11,11 0 0 0 -5.351562,1.404297 z"
     class="ColorScheme-Text"
     style="color:#232629;fill:#ffffff;fill-opacity:1;stroke:none;filter:url(#filter846-3)" />
</svg>
