<?xml version="1.0" encoding="UTF-8" standalone="no"?>
<svg
   xmlns:dc="http://purl.org/dc/elements/1.1/"
   xmlns:cc="http://creativecommons.org/ns#"
   xmlns:rdf="http://www.w3.org/1999/02/22-rdf-syntax-ns#"
   xmlns:svg="http://www.w3.org/2000/svg"
   xmlns="http://www.w3.org/2000/svg"
   xmlns:sodipodi="http://sodipodi.sourceforge.net/DTD/sodipodi-0.dtd"
   xmlns:inkscape="http://www.inkscape.org/namespaces/inkscape"
   inkscape:version="1.0 (4035a4fb49, 2020-05-01)"
   sodipodi:docname="switch_blur.svg"
   id="svg5"
   version="1.1"
   viewBox="0 0 32 32">
  <metadata
     id="metadata9">
    <rdf:RDF>
      <cc:Work
         rdf:about="">
        <dc:format>image/svg+xml</dc:format>
        <dc:type
           rdf:resource="http://purl.org/dc/dcmitype/StillImage" />
        <dc:title></dc:title>
      </cc:Work>
    </rdf:RDF>
  </metadata>
  <sodipodi:namedview
     inkscape:current-layer="svg5"
     inkscape:window-maximized="1"
     inkscape:window-y="0"
     inkscape:window-x="0"
     inkscape:cy="14.652405"
     inkscape:cx="18.264253"
     inkscape:zoom="18.58365"
     showgrid="false"
     id="namedview7"
     inkscape:window-height="1021"
     inkscape:window-width="1920"
     inkscape:pageshadow="2"
     inkscape:pageopacity="0"
     guidetolerance="10"
     gridtolerance="10"
     objecttolerance="10"
     borderopacity="1"
     bordercolor="#666666"
     pagecolor="#000000"
     inkscape:document-rotation="0"
     inkscape:pagecheckerboard="false" />
  <defs
     id="defs3051">
    <style
       id="current-color-scheme"
       type="text/css">
      .ColorScheme-Text {
        color:#232629;
      }
      </style>
    <filter
       inkscape:collect="always"
       style="color-interpolation-filters:sRGB"
       id="filter846"
       x="-0.18152941"
       width="1.3630588"
       y="-0.15002429"
       height="1.3000486">
      <feGaussianBlur
         inkscape:collect="always"
         stdDeviation="1.512745"
         id="feGaussianBlur848" />
    </filter>
    <filter
       height="1.3000486"
       y="-0.15002429"
       width="1.3630588"
       x="-0.1815294"
       id="filter846-3"
       style="color-interpolation-filters:sRGB"
       inkscape:collect="always">
      <feGaussianBlur
         id="feGaussianBlur848-6"
         stdDeviation="1.512745"
         inkscape:collect="always" />
    </filter>
  </defs>
  <path
     class="ColorScheme-Text"
     d="m 18,8 c -1.285847,0 -2.416677,0.617761 -3.148438,1.560547 0.329275,0.112144 0.645954,0.250811 0.945313,0.417969 C 16.345252,9.381114 17.12515,9 18,9 c 1.656852,0 3,1.343147 3,3 0,1.398728 -0.960744,2.564273 -2.255859,2.896484 6.21e-4,0.03481 0.0059,0.06856 0.0059,0.103516 0,0.318095 -0.03235,0.627594 -0.08203,0.931641 C 20.557605,15.612437 22,13.980455 22,12 22,9.790862 20.209142,8 18,8 Z M 13,20 C 9.1189423,20 6,22.689616 6,26.435547 6.0033,26.962961 6.06906,27.487484 6.198034,28 H 7.3097713 18.972229 19.856521 C 19.985519,27.487484 19.997113,26.963414 20,26.436 20,22.690069 16.881058,20 13,20 Z m 0.027,0.992 c 3.813868,0 5.973,2.274365 5.973,5.444 -0.0011,0.174256 -0.01135,0.347611 -0.029,0.521 H 7.0290003 c -0.01765,-0.173389 -0.02741,-0.347197 -0.029,-0.521453 0,-3.169635 2.179706,-5.443547 5.9727347,-5.443547 z m 6.224205,-3.992043 c -0.25686,0 -0.509035,0.01606 -0.758429,0.04297 -0.12585,0.383697 -0.291433,0.751062 -0.492776,1.097662 0.410411,-0.09117 0.830028,-0.138336 1.251205,-0.140627 3.153826,1e-6 5.710515,2.46245 5.710515,5.500033 -9e-4,0.166968 -0.009,0.333807 -0.0264,0.500003 h -4.53029 c 0.108739,0.321192 0.202605,0.648801 0.269709,0.986334 l 5.134641,0.01367 C 25.93326,24.508838 25.99723,24.005434 26,23.499992 26,19.910121 22.97845,16.999953 19.251205,16.999954 Z M 13,11 c -2.209143,0 -3.9999997,1.790862 -3.9999997,4 0,2.20914 1.7908567,4.000001 3.9999997,4 2.209142,1e-6 4,-1.79086 4,-4 0,-2.209138 -1.790858,-4 -4,-4 z m 0,1 c 1.656852,0 3,1.343147 3,3 0,1.656854 -1.343148,3.000001 -3,3 -1.656852,1e-6 -3,-1.343146 -3,-3 0,-1.656853 1.343148,-3 3,-3 z m 3.027,-8.200001 c -2.034737,0 -3.684211,1.645485 -3.684211,3.675293 V 8.090575 L 10.736,6.388 10.123,7.130953 12.356,9.358 13,10 13.582,9.257328 15.646,7.03 15.002,6.388291 13.295,8.091 V 7.475 c 0,-1.449863 1.278621,-2.624917 2.732,-2.624917 1.453379,0 1.973,0.519045 1.973,1.968908 h 1 C 19,4.718823 17.883088,3.839078 16.027,3.799999 Z"
     id="path1011"
     style="fill:#ffffff;fill-opacity:1;stroke:none" />
  <path
     style="color:#232629;fill:#ffffff;fill-opacity:1;stroke:none;filter:url(#filter846)"
     id="path1011-3"
     d="m 18,7.9999997 c -1.285847,0 -2.416677,0.617761 -3.148438,1.560547 0.329275,0.112144 0.645954,0.250811 0.945313,0.417969 C 16.345252,9.3811137 17.12515,8.9999997 18,8.9999997 c 1.656852,0 3,1.3431473 3,3.0000003 0,1.398728 -0.960744,2.564273 -2.255859,2.896484 6.21e-4,0.03481 0.0059,0.06856 0.0059,0.103516 0,0.318095 -0.03235,0.627594 -0.08203,0.931641 C 20.557605,15.612437 22,13.980455 22,12 22,9.7908617 20.209142,7.9999997 18,7.9999997 Z M 13,20 C 9.1189423,20 6,22.689616 6,26.435547 6.0033,26.962961 6.06906,27.487484 6.198034,28 H 7.3097713 18.972229 19.856521 C 19.985519,27.487484 19.997113,26.963414 20,26.436 20,22.690069 16.881058,20 13,20 Z m 0.027,0.992 c 3.813868,0 5.973,2.274365 5.973,5.444 -0.0011,0.174256 -0.01135,0.347611 -0.029,0.521 H 7.0290003 c -0.01765,-0.173389 -0.02741,-0.347197 -0.029,-0.521453 0,-3.169635 2.179706,-5.443547 5.9727347,-5.443547 z m 6.224205,-3.992043 c -0.25686,0 -0.509035,0.01606 -0.758429,0.04297 -0.12585,0.383697 -0.291433,0.751062 -0.492776,1.097662 0.410411,-0.09117 0.830028,-0.138336 1.251205,-0.140627 3.153826,1e-6 5.710515,2.46245 5.710515,5.500033 -9e-4,0.166968 -0.009,0.333807 -0.0264,0.500003 h -4.53029 c 0.108739,0.321192 0.202605,0.648801 0.269709,0.986334 l 5.134641,0.01367 C 25.93326,24.508838 25.99723,24.005434 26,23.499992 26,19.910121 22.97845,16.999953 19.251205,16.999954 Z M 13,11 c -2.209143,0 -3.9999997,1.790862 -3.9999997,4 0,2.20914 1.7908567,4.000001 3.9999997,4 2.209142,1e-6 4,-1.79086 4,-4 0,-2.209138 -1.790858,-4 -4,-4 z m 0,1 c 1.656852,0 3,1.343147 3,3 0,1.656854 -1.343148,3.000001 -3,3 -1.656852,1e-6 -3,-1.343146 -3,-3 0,-1.656853 1.343148,-3 3,-3 z m 3.027,-8.2000013 c -2.034737,0 -3.684211,1.645485 -3.684211,3.675293 v 0.615283 L 10.736,6.3879997 l -0.613,0.742953 2.233,2.227047 0.644,0.642 0.582,-0.742672 2.064,-2.227328 -0.644,-0.641709 -1.707,1.702709 v -0.616 c 0,-1.449863 1.278621,-2.624917 2.732,-2.624917 1.453379,0 1.973,0.519045 1.973,1.968908 h 1 c 0,-2.100168 -1.116912,-2.979913 -2.973,-3.018992 z"
     class="ColorScheme-Text" />
  <path
     class="ColorScheme-Text"
     d="m 18,8.0000005 c -1.285847,0 -2.416677,0.617761 -3.148438,1.560547 0.329275,0.112144 0.645954,0.250811 0.945313,0.417969 C 16.345252,9.3811145 17.12515,9.0000005 18,9.0000005 c 1.656852,0 3,1.3431465 3,2.9999995 0,1.398728 -0.960744,2.564273 -2.255859,2.896484 6.21e-4,0.03481 0.0059,0.06856 0.0059,0.103516 0,0.318095 -0.03235,0.627594 -0.08203,0.931641 C 20.557605,15.612437 22,13.980455 22,12 22,9.7908625 20.209142,8.0000005 18,8.0000005 Z M 13,20 c -3.8810581,0 -7.0000004,2.689616 -7.0000004,6.435547 0.0033,0.527414 0.06906,1.051937 0.198034,1.564453 H 7.3097709 18.972229 19.856521 C 19.985519,27.487484 19.997113,26.963414 20,26.436 20,22.690069 16.881058,20 13,20 Z m 0.027,0.992 c 3.813868,0 5.973,2.274365 5.973,5.444 -0.0011,0.174256 -0.01135,0.347611 -0.029,0.521 H 7.0289999 c -0.01765,-0.173389 -0.02741,-0.347197 -0.029,-0.521453 0,-3.169635 2.179706,-5.443547 5.9727351,-5.443547 z m 6.224205,-3.992043 c -0.25686,0 -0.509035,0.01606 -0.758429,0.04297 -0.12585,0.383697 -0.291433,0.751062 -0.492776,1.097662 0.410411,-0.09117 0.830028,-0.138336 1.251205,-0.140627 3.153826,1e-6 5.710515,2.46245 5.710515,5.500033 -9e-4,0.166968 -0.009,0.333807 -0.0264,0.500003 h -4.53029 c 0.108739,0.321192 0.202605,0.648801 0.269709,0.986334 l 5.134641,0.01367 C 25.93326,24.508838 25.99723,24.005434 26,23.499992 26,19.910121 22.97845,16.999953 19.251205,16.999954 Z M 13,11 c -2.209143,0 -4.0000001,1.790862 -4.0000001,4 0,2.20914 1.7908571,4.000001 4.0000001,4 2.209142,1e-6 4,-1.79086 4,-4 0,-2.209138 -1.790858,-4 -4,-4 z m 0,1 c 1.656852,0 3,1.343147 3,3 0,1.656854 -1.343148,3.000001 -3,3 -1.656852,1e-6 -3.0000004,-1.343146 -3.0000004,-3 0,-1.656853 1.3431484,-3 3.0000004,-3 z m 3.027,-8.2000005 c -2.034737,0 -3.684211,1.645485 -3.684211,3.675293 v 0.615283 L 10.736,6.3880005 l -0.613,0.742953 2.233,2.227047 0.644,0.6420005 0.582,-0.7426725 2.064,-2.227328 -0.644,-0.641709 -1.707,1.702709 v -0.616 c 0,-1.449863 1.278621,-2.624917 2.732,-2.624917 1.453379,0 1.973,0.519045 1.973,1.968908 h 1 c 0,-2.100168 -1.116912,-2.979913 -2.973,-3.018992 z"
     id="path1011-3-7"
     style="color:#232629;fill:#ffffff;fill-opacity:1;stroke:none;filter:url(#filter846-3)" />
</svg>
