<?xml version="1.0" encoding="UTF-8"?>
<svg version="1.1" viewBox="0 0 16 16" xmlns="http://www.w3.org/2000/svg" xmlns:cc="http://creativecommons.org/ns#" xmlns:dc="http://purl.org/dc/elements/1.1/" xmlns:rdf="http://www.w3.org/1999/02/22-rdf-syntax-ns#">
 <metadata>
  <rdf:RDF>
   <cc:Work rdf:about="">
    <dc:format>image/svg+xml</dc:format>
    <dc:type rdf:resource="http://purl.org/dc/dcmitype/StillImage"/>
    <dc:title/>
   </cc:Work>
  </rdf:RDF>
 </metadata>
 <defs>
  <style id="current-color-scheme" type="text/css">.ColorScheme-Text {
        color:#eff0f1;
      }</style>
  <filter id="filter4610" x="-.24" y="-.24" width="1.48" height="1.48" color-interpolation-filters="sRGB">
   <feGaussianBlur stdDeviation="1.1"/>
  </filter>
 </defs>
 <path class="ColorScheme-Text" d="m8.178 2.4576c-3.038 0-5.5 2.462-5.5 5.5s2.462 5.5 5.5 5.5 5.5-2.462 5.5-5.5-2.462-5.5-5.5-5.5m0 1c2.485 0 4.5 2.01 4.5 4.5 0 2.485-2.01 4.5-4.5 4.5-2.485 0-4.5-2.01-4.5-4.5 0-2.485 2.01-4.5 4.5-4.5m-0.5 1v1h1v-1zm0 2v5h1v-5z" color="#eff0f1" fill="#ddd" filter="url(#filter4610)"/>
 <path class="ColorScheme-Text" d="m8.178 2.4576c-3.038 0-5.5 2.462-5.5 5.5s2.462 5.5 5.5 5.5 5.5-2.462 5.5-5.5-2.462-5.5-5.5-5.5m0 1c2.485 0 4.5 2.01 4.5 4.5 0 2.485-2.01 4.5-4.5 4.5-2.485 0-4.5-2.01-4.5-4.5 0-2.485 2.01-4.5 4.5-4.5m-0.5 1v1h1v-1zm0 2v5h1v-5z" color="#eff0f1" fill="#ddd"/>
</svg>
