<?xml version="1.0" encoding="UTF-8" standalone="no"?>
<svg
   xmlns:dc="http://purl.org/dc/elements/1.1/"
   xmlns:cc="http://creativecommons.org/ns#"
   xmlns:rdf="http://www.w3.org/1999/02/22-rdf-syntax-ns#"
   xmlns:svg="http://www.w3.org/2000/svg"
   xmlns="http://www.w3.org/2000/svg"
   xmlns:sodipodi="http://sodipodi.sourceforge.net/DTD/sodipodi-0.dtd"
   xmlns:inkscape="http://www.inkscape.org/namespaces/inkscape"
   viewBox="0 0 24 24"
   version="1.1"
   id="svg8"
   sodipodi:docname="shutdown_blur.svg"
   inkscape:version="0.92.4 5da689c313, 2019-01-14">
  <metadata
     id="metadata12">
    <rdf:RDF>
      <cc:Work
         rdf:about="">
        <dc:format>image/svg+xml</dc:format>
        <dc:type
           rdf:resource="http://purl.org/dc/dcmitype/StillImage" />
        <dc:title></dc:title>
      </cc:Work>
    </rdf:RDF>
  </metadata>
  <sodipodi:namedview
     pagecolor="#ffffff"
     bordercolor="#666666"
     borderopacity="1"
     objecttolerance="10"
     gridtolerance="10"
     guidetolerance="10"
     inkscape:pageopacity="0"
     inkscape:pageshadow="2"
     inkscape:window-width="1920"
     inkscape:window-height="1080"
     id="namedview10"
     showgrid="false"
     inkscape:zoom="9.8333333"
     inkscape:cx="-9.2542368"
     inkscape:cy="12"
     inkscape:window-x="0"
     inkscape:window-y="0"
     inkscape:window-maximized="1"
     inkscape:current-layer="svg8"
     inkscape:pagecheckerboard="true" />
  <defs
     id="defs3051">
    <style
       type="text/css"
       id="current-color-scheme">
      .ColorScheme-Text {
        color:#232629;
      }
      </style>
    <filter
       inkscape:collect="always"
       style="color-interpolation-filters:sRGB"
       id="filter826"
       x="-0.24"
       width="1.48"
       y="-0.24"
       height="1.48">
      <feGaussianBlur
         inkscape:collect="always"
         stdDeviation="1.6"
         id="feGaussianBlur828" />
    </filter>
  </defs>
  <g
     style="fill:#2a7fff;fill-opacity:1;stroke:#2a7fff;filter:url(#filter826)"
     id="g816"
     transform="matrix(0.88559322,0,0,0.88559322,2.2584746,2.2584746)">
    <path
       inkscape:connector-curvature="0"
       id="path814"
       class="ColorScheme-Text"
       d="m 10,3 v 7 h 2 V 3 Z M 9,3.265625 C 5.5444518,4.1502188 3,7.2610109 3,11 c 0,4.432 3.568,8 8,8 4.432,0 8,-3.568 8,-8 C 19,7.2610109 16.455548,4.1502188 13,3.265625 V 4.3027344 C 15.895041,5.15992 18,7.819625 18,11 18,14.878 14.878,18 11,18 7.122,18 4,14.878 4,11 4,7.819625 6.1049587,5.15992 9,4.3027344 Z"
       style="color:#232629;fill:#2a7fff;fill-opacity:1;stroke:#2a7fff" />
  </g>
  <g
     transform="matrix(0.88559322,0,0,0.88559322,2.2584746,2.2584746)"
     id="g6"
     style="fill:#2a7fff;fill-opacity:1">
    <path
       style="color:#232629;fill:#2a7fff;fill-opacity:1;stroke:none"
       d="m 10,3 v 7 h 2 V 3 Z M 9,3.265625 C 5.5444518,4.1502188 3,7.2610109 3,11 c 0,4.432 3.568,8 8,8 4.432,0 8,-3.568 8,-8 C 19,7.2610109 16.455548,4.1502188 13,3.265625 V 4.3027344 C 15.895041,5.15992 18,7.819625 18,11 18,14.878 14.878,18 11,18 7.122,18 4,14.878 4,11 4,7.819625 6.1049587,5.15992 9,4.3027344 Z"
       class="ColorScheme-Text"
       id="path4"
       inkscape:connector-curvature="0" />
  </g>
</svg>
