<?xml version="1.0" encoding="UTF-8" standalone="no"?>
<!-- Created with Inkscape (http://www.inkscape.org/) -->

<svg
   xmlns:dc="http://purl.org/dc/elements/1.1/"
   xmlns:cc="http://creativecommons.org/ns#"
   xmlns:rdf="http://www.w3.org/1999/02/22-rdf-syntax-ns#"
   xmlns:svg="http://www.w3.org/2000/svg"
   xmlns="http://www.w3.org/2000/svg"
   xmlns:sodipodi="http://sodipodi.sourceforge.net/DTD/sodipodi-0.dtd"
   xmlns:inkscape="http://www.inkscape.org/namespaces/inkscape"
   version="1.1"
   id="svg2"
   width="50"
   height="50"
   viewBox="0 0 50 50"
   sodipodi:docname="hibernate_blur.svg"
   inkscape:version="0.92.4 5da689c313, 2019-01-14">
  <metadata
     id="metadata8">
    <rdf:RDF>
      <cc:Work
         rdf:about="">
        <dc:format>image/svg+xml</dc:format>
        <dc:type
           rdf:resource="http://purl.org/dc/dcmitype/StillImage" />
        <dc:title></dc:title>
      </cc:Work>
    </rdf:RDF>
  </metadata>
  <defs
     id="defs6">
    <filter
       inkscape:collect="always"
       style="color-interpolation-filters:sRGB"
       id="filter980"
       x="-0.23980349"
       width="1.479607"
       y="-0.24019683"
       height="1.4803937">
      <feGaussianBlur
         inkscape:collect="always"
         stdDeviation="3.1716043"
         id="feGaussianBlur982" />
    </filter>
  </defs>
  <sodipodi:namedview
     pagecolor="#ffffff"
     bordercolor="#666666"
     borderopacity="1"
     objecttolerance="10"
     gridtolerance="10"
     guidetolerance="10"
     inkscape:pageopacity="0"
     inkscape:pageshadow="2"
     inkscape:window-width="1920"
     inkscape:window-height="1080"
     id="namedview4"
     showgrid="false"
     inkscape:pagecheckerboard="true"
     inkscape:snap-nodes="false"
     inkscape:zoom="6.675088"
     inkscape:cx="-6.2724903"
     inkscape:cy="43.306675"
     inkscape:window-x="0"
     inkscape:window-y="0"
     inkscape:window-maximized="0"
     inkscape:current-layer="svg2" />
  <path
     id="path913"
     d="M 25.726562 8.7285156 C 21.330944 8.7285156 16.91613 10.284862 14.017578 13.394531 C 9.781963 17.938649 8.5430708 25.220527 11.060547 30.773438 C 13.271802 35.650895 16.188112 38.217099 21.490234 39.953125 C 26.01526 41.434714 34.000542 39.220044 37.324219 35.5625 C 42.901325 29.425166 42.901325 19.531865 37.324219 13.394531 C 34.498405 10.284862 30.122181 8.7285156 25.726562 8.7285156 z M 25.833984 10.306641 C 27.539558 10.306981 29.271102 10.632187 30.951172 11.333984 C 42.705942 16.244178 42.705942 32.71871 30.951172 37.628906 C 21.870041 41.422267 11.454739 34.301569 11.505859 24.333984 C 11.54656 16.398085 18.443163 10.305166 25.833984 10.306641 z M 25.691406 16.083984 C 25.263956 16.083984 24.992188 19.349165 24.992188 24.478516 C 24.992188 29.607868 25.263956 32.871094 25.691406 32.871094 C 26.118857 32.871094 26.390625 29.607868 26.390625 24.478516 C 26.390625 19.349165 26.118857 16.083984 25.691406 16.083984 z "
     style="fill:#ffffff;stroke:#ffffff;stroke-width:0.99900001;stroke-miterlimit:4;stroke-dasharray:none;stroke-opacity:1;filter:url(#filter980)" />
  <path
     style="fill:#000000"
     d=""
     id="path825"
     inkscape:connector-curvature="0" />
  <path
     style="fill:#000000"
     d=""
     id="path819"
     inkscape:connector-curvature="0" />
  <path
     style="fill:#000000"
     d=""
     id="path817"
     inkscape:connector-curvature="0" />
  <path
     style="fill:#ffffff;stroke:none;stroke-width:0.99900001;stroke-miterlimit:4;stroke-dasharray:none;stroke-opacity:1"
     d="M 25.726562 8.7285156 C 21.330944 8.7285156 16.91613 10.284862 14.017578 13.394531 C 9.781963 17.938649 8.5430708 25.220527 11.060547 30.773438 C 13.271802 35.650895 16.188112 38.217099 21.490234 39.953125 C 26.01526 41.434714 34.000542 39.220044 37.324219 35.5625 C 42.901325 29.425166 42.901325 19.531865 37.324219 13.394531 C 34.498405 10.284862 30.122181 8.7285156 25.726562 8.7285156 z M 25.833984 10.306641 C 27.539558 10.306981 29.271102 10.632187 30.951172 11.333984 C 42.705942 16.244178 42.705942 32.71871 30.951172 37.628906 C 21.870041 41.422267 11.454739 34.301569 11.505859 24.333984 C 11.54656 16.398085 18.443163 10.305166 25.833984 10.306641 z M 25.691406 16.083984 C 25.263956 16.083984 24.992188 19.349165 24.992188 24.478516 C 24.992188 29.607868 25.263956 32.871094 25.691406 32.871094 C 26.118857 32.871094 26.390625 29.607868 26.390625 24.478516 C 26.390625 19.349165 26.118857 16.083984 25.691406 16.083984 z "
     id="path817-3" />
  <path
     style="fill:#ffffff;stroke:#ffffff;stroke-width:0.99900001;stroke-miterlimit:4;stroke-dasharray:none;stroke-opacity:1;filter:url(#filter980);opacity:0.561"
     d="M 25.726562 8.7285156 C 21.330944 8.7285156 16.91613 10.284862 14.017578 13.394531 C 9.781963 17.938649 8.5430708 25.220527 11.060547 30.773438 C 13.271802 35.650895 16.188112 38.217099 21.490234 39.953125 C 26.01526 41.434714 34.000542 39.220044 37.324219 35.5625 C 42.901325 29.425166 42.901325 19.531865 37.324219 13.394531 C 34.498405 10.284862 30.122181 8.7285156 25.726562 8.7285156 z M 25.833984 10.306641 C 27.539558 10.306981 29.271102 10.632187 30.951172 11.333984 C 42.705942 16.244178 42.705942 32.71871 30.951172 37.628906 C 21.870041 41.422267 11.454739 34.301569 11.505859 24.333984 C 11.54656 16.398085 18.443163 10.305166 25.833984 10.306641 z M 25.691406 16.083984 C 25.263956 16.083984 24.992188 19.349165 24.992188 24.478516 C 24.992188 29.607868 25.263956 32.871094 25.691406 32.871094 C 26.118857 32.871094 26.390625 29.607868 26.390625 24.478516 C 26.390625 19.349165 26.118857 16.083984 25.691406 16.083984 z "
     id="path984" />
</svg>
