<?xml version="1.0" encoding="UTF-8" standalone="no"?>
<svg
   xmlns:dc="http://purl.org/dc/elements/1.1/"
   xmlns:cc="http://creativecommons.org/ns#"
   xmlns:rdf="http://www.w3.org/1999/02/22-rdf-syntax-ns#"
   xmlns:svg="http://www.w3.org/2000/svg"
   xmlns="http://www.w3.org/2000/svg"
   xmlns:sodipodi="http://sodipodi.sourceforge.net/DTD/sodipodi-0.dtd"
   xmlns:inkscape="http://www.inkscape.org/namespaces/inkscape"
   inkscape:version="1.0 (4035a4fb49, 2020-05-01)"
   sodipodi:docname="hibernate_blur.svg"
   id="svg16"
   version="1.1"
   height="48pt"
   width="48pt"
   viewBox="0 0 48 48"
   style="isolation:isolate">
  <metadata
     id="metadata22">
    <rdf:RDF>
      <cc:Work
         rdf:about="">
        <dc:format>image/svg+xml</dc:format>
        <dc:type
           rdf:resource="http://purl.org/dc/dcmitype/StillImage" />
      </cc:Work>
    </rdf:RDF>
  </metadata>
  <defs
     id="defs20">
    <filter
       id="filter859"
       style="color-interpolation-filters:sRGB;"
       inkscape:menu-tooltip="Rainbow-colored semitransparent oily splotches"
       inkscape:menu="Overlays"
       inkscape:label="Oil Slick">
      <feTurbulence
         id="feTurbulence847"
         type="fractalNoise"
         numOctaves="5"
         baseFrequency="0.143" />
      <feColorMatrix
         id="feColorMatrix849"
         values="1 0 0 0 0 0 1 0 0 0 0 0 1 0 0 0 0 0 5 -3" />
      <feMorphology
         id="feMorphology851"
         operator="dilate"
         radius="2.7"
         result="result3" />
      <feTurbulence
         id="feTurbulence853"
         result="result91"
         numOctaves="2"
         baseFrequency="0.121" />
      <feDisplacementMap
         id="feDisplacementMap855"
         in2="result91"
         in="result3"
         xChannelSelector="R"
         yChannelSelector="A"
         scale="18.5"
         result="result4" />
      <feComposite
         id="feComposite857"
         in="result4"
         operator="atop"
         in2="SourceGraphic" />
    </filter>
    <filter
       id="filter873"
       style="color-interpolation-filters:sRGB;"
       inkscape:menu-tooltip="Rainbow-colored semitransparent oily splotches"
       inkscape:menu="Overlays"
       inkscape:label="Oil Slick">
      <feTurbulence
         id="feTurbulence861"
         type="fractalNoise"
         numOctaves="5"
         baseFrequency="0.143" />
      <feColorMatrix
         id="feColorMatrix863"
         values="1 0 0 0 0 0 1 0 0 0 0 0 1 0 0 0 0 0 5 -3" />
      <feMorphology
         id="feMorphology865"
         operator="dilate"
         radius="2.7"
         result="result3" />
      <feTurbulence
         id="feTurbulence867"
         result="result91"
         numOctaves="2"
         baseFrequency="0.121" />
      <feDisplacementMap
         id="feDisplacementMap869"
         in2="result91"
         in="result3"
         xChannelSelector="R"
         yChannelSelector="A"
         scale="18.5"
         result="result4" />
      <feComposite
         id="feComposite871"
         in="result4"
         operator="atop"
         in2="SourceGraphic" />
    </filter>
  </defs>
  <sodipodi:namedview
     inkscape:current-layer="svg16"
     inkscape:window-maximized="1"
     inkscape:window-y="0"
     inkscape:window-x="0"
     inkscape:cy="32"
     inkscape:cx="32"
     inkscape:zoom="13.109375"
     showgrid="false"
     id="namedview18"
     inkscape:window-height="1021"
     inkscape:window-width="1920"
     inkscape:pageshadow="2"
     inkscape:pageopacity="0"
     guidetolerance="10"
     gridtolerance="10"
     objecttolerance="10"
     borderopacity="1"
     bordercolor="#666666"
     pagecolor="#ffffff" />
  <linearGradient
     gradientUnits="userSpaceOnUse"
     gradientTransform="matrix(36,0,0,22,6,24)"
     y2="0.5"
     x2="1"
     y1="0.5"
     x1="0"
     id="_lgradient_22">
    <stop
       id="stop2"
       style="stop-color:rgb(117,127,154)"
       stop-opacity="1"
       offset="0%" />
    <stop
       id="stop4"
       style="stop-color:rgb(215,221,232)"
       stop-opacity="1"
       offset="98.69565217391305%" />
  </linearGradient>
  <path
     style="filter:url(#filter873)"
     id="path7"
     fill="url(#_lgradient_22)"
     d=" M 38 26 L 38 24 L 42 24 L 42 26 L 42 42 C 42 44.208 40.208 46 38 46 L 10 46 C 7.792 46 6 44.208 6 42 L 6 26 L 6 24 L 10 24 L 10 26 L 10 40 C 10 41.104 10.896 42 12 42 L 36 42 C 37.104 42 38 41.104 38 40 L 38 26 Z " />
  <linearGradient
     gradientUnits="userSpaceOnUse"
     gradientTransform="matrix(36,0,0,23,6,3)"
     y2="0.5"
     x2="1"
     y1="0.5"
     x1="0"
     id="_lgradient_23">
    <stop
       id="stop9"
       style="stop-color:rgb(247,242,6)"
       stop-opacity="1"
       offset="0%" />
    <stop
       id="stop11"
       style="stop-color:rgb(255,187,36)"
       stop-opacity="1"
       offset="97.82608695652173%" />
  </linearGradient>
  <path
     style="filter:url(#filter859)"
     id="path14"
     fill="url(#_lgradient_23)"
     fill-rule="evenodd"
     d=" M 20 8 L 20 7 L 28 7 L 28 8 L 20 8 L 20 8 L 20 8 L 20 8 Z  M 20 22 L 28 22 C 29.104 22 30 22.896 30 24 L 30 24 C 30 25.104 29.104 26 28 26 L 20 26 C 18.896 26 18 25.104 18 24 L 18 24 C 18 22.896 18.896 22 20 22 L 20 22 L 20 22 Z  M 12 24 C 12 22.896 12.896 22 14 22 C 15.104 22 16 22.896 16 24 C 16 25.104 15.104 26 14 26 C 12.896 26 12 25.104 12 24 L 12 24 Z  M 16 8 L 16 5 C 16 3.896 16.896 3 18 3 L 30 3 C 31.104 3 32 3.896 32 5 L 32 8 L 38 8 C 40.208 8 42 9.792 42 12 L 42 22 L 42 24 L 38 24 L 38 22 L 38 14 C 38 12.896 37.104 12 36 12 L 12 12 C 10.896 12 10 12.896 10 14 L 10 22 L 10 24 L 6 24 L 6 22 L 6 12 C 6 9.792 7.792 8 10 8 L 16 8 L 16 8 L 16 8 L 16 8 Z  M 32 24 C 32 22.896 32.896 22 34 22 C 35.104 22 36 22.896 36 24 C 36 25.104 35.104 26 34 26 C 32.896 26 32 25.104 32 24 Z " />
</svg>
