<?xml version="1.0" encoding="UTF-8" standalone="no"?>
<svg
   xmlns:dc="http://purl.org/dc/elements/1.1/"
   xmlns:cc="http://creativecommons.org/ns#"
   xmlns:rdf="http://www.w3.org/1999/02/22-rdf-syntax-ns#"
   xmlns:svg="http://www.w3.org/2000/svg"
   xmlns="http://www.w3.org/2000/svg"
   xmlns:sodipodi="http://sodipodi.sourceforge.net/DTD/sodipodi-0.dtd"
   xmlns:inkscape="http://www.inkscape.org/namespaces/inkscape"
   inkscape:version="1.0 (4035a4fb49, 2020-05-01)"
   sodipodi:docname="lock_blur.svg"
   id="svg9"
   version="1.1"
   height="48pt"
   width="48pt"
   viewBox="0 0 48 48"
   style="isolation:isolate">
  <metadata
     id="metadata15">
    <rdf:RDF>
      <cc:Work
         rdf:about="">
        <dc:format>image/svg+xml</dc:format>
        <dc:type
           rdf:resource="http://purl.org/dc/dcmitype/StillImage" />
      </cc:Work>
    </rdf:RDF>
  </metadata>
  <defs
     id="defs13">
    <filter
       id="filter852"
       style="color-interpolation-filters:sRGB;"
       inkscape:menu-tooltip="Rainbow-colored semitransparent oily splotches"
       inkscape:menu="Overlays"
       inkscape:label="Oil Slick">
      <feTurbulence
         id="feTurbulence840"
         type="fractalNoise"
         numOctaves="5"
         baseFrequency="0.143" />
      <feColorMatrix
         id="feColorMatrix842"
         values="1 0 0 0 0 0 1 0 0 0 0 0 1 0 0 0 0 0 5 -3" />
      <feMorphology
         id="feMorphology844"
         operator="dilate"
         radius="2.7"
         result="result3" />
      <feTurbulence
         id="feTurbulence846"
         result="result91"
         numOctaves="2"
         baseFrequency="0.121" />
      <feDisplacementMap
         id="feDisplacementMap848"
         in2="result91"
         in="result3"
         xChannelSelector="R"
         yChannelSelector="A"
         scale="18.5"
         result="result4" />
      <feComposite
         id="feComposite850"
         in="result4"
         operator="atop"
         in2="SourceGraphic" />
    </filter>
  </defs>
  <sodipodi:namedview
     inkscape:current-layer="svg9"
     inkscape:window-maximized="1"
     inkscape:window-y="0"
     inkscape:window-x="0"
     inkscape:cy="32"
     inkscape:cx="32"
     inkscape:zoom="13.109375"
     showgrid="false"
     id="namedview11"
     inkscape:window-height="1021"
     inkscape:window-width="1920"
     inkscape:pageshadow="2"
     inkscape:pageopacity="0"
     guidetolerance="10"
     gridtolerance="10"
     objecttolerance="10"
     borderopacity="1"
     bordercolor="#666666"
     pagecolor="#ffffff" />
  <linearGradient
     gradientUnits="userSpaceOnUse"
     gradientTransform="matrix(38.852,0,0,41.519,4.574,3.241)"
     y2="0.9200778838291643"
     x2="0.9074880558539661"
     y1="0.5"
     x1="0"
     id="_lgradient_8">
    <stop
       id="stop2"
       style="stop-color:rgb(247,241,7)"
       stop-opacity="1"
       offset="0%" />
    <stop
       id="stop4"
       style="stop-color:rgb(255,187,36)"
       stop-opacity="1"
       offset="83.88839793817618%" />
  </linearGradient>
  <path
     style="filter:url(#filter852)"
     id="path7"
     fill="url(#_lgradient_8)"
     fill-rule="evenodd"
     d=" M 27.67 21.725 L 27.67 21.725 C 27.922 20.742 28.936 20.204 29.932 20.526 L 29.932 20.526 C 30.928 20.848 31.531 21.916 31.278 22.909 L 31.278 22.909 L 31.012 23.907 L 34.382 24.461 C 35.113 24.581 35.683 25.28 35.654 26.02 L 35.498 29.985 L 38.668 30.459 L 43.426 36.13 L 42.889 43.361 C 42.834 44.1 42.188 44.704 41.447 44.708 L 33.343 44.759 L 17.497 25.875 L 14.214 26.56 C 13.489 26.711 12.513 26.373 12.037 25.805 L 5.368 17.858 C 4.892 17.29 4.537 16.228 4.577 15.488 L 4.678 13.601 C 4.718 12.861 5.211 11.873 5.779 11.397 L 14.645 3.957 C 15.213 3.481 16.271 3.166 17.007 3.256 L 18.883 3.484 C 19.619 3.573 20.603 4.107 21.079 4.674 L 27.499 12.325 C 27.976 12.893 28.33 13.955 28.29 14.695 L 28.159 17.147 L 28.159 17.147 C 28.104 18.179 27.224 18.917 26.195 18.795 L 26.195 18.795 C 25.166 18.672 24.381 17.731 24.441 16.695 L 24.441 16.695 L 24.553 14.445 L 18.481 7.208 L 17.007 7.029 L 8.394 14.257 L 8.314 15.739 L 14.138 22.679 L 18.726 21.709 L 34.896 40.98 L 39.311 40.948 L 39.592 37.191 L 36.882 33.962 L 32.116 33.258 C 31.383 33.15 30.776 32.46 30.762 31.719 L 30.707 28.874 L 27.337 28.32 C 26.606 28.2 26.164 27.52 26.35 26.803 L 27.67 21.725 Z  M 13.551 13.555 C 13.551 12.451 14.447 11.555 15.551 11.555 C 16.655 11.555 17.551 12.451 17.551 13.555 C 17.551 14.658 16.655 15.555 15.551 15.555 C 14.447 15.555 13.551 14.658 13.551 13.555 Z " />
</svg>
