<?xml version="1.0" encoding="UTF-8" standalone="no"?>
<svg
   xmlns:dc="http://purl.org/dc/elements/1.1/"
   xmlns:cc="http://creativecommons.org/ns#"
   xmlns:rdf="http://www.w3.org/1999/02/22-rdf-syntax-ns#"
   xmlns:svg="http://www.w3.org/2000/svg"
   xmlns="http://www.w3.org/2000/svg"
   xmlns:sodipodi="http://sodipodi.sourceforge.net/DTD/sodipodi-0.dtd"
   xmlns:inkscape="http://www.inkscape.org/namespaces/inkscape"
   inkscape:version="1.0 (4035a4fb49, 2020-05-01)"
   sodipodi:docname="shutdown_blur.svg"
   id="svg11"
   version="1.1"
   height="48pt"
   width="48pt"
   viewBox="0 0 48 48"
   style="isolation:isolate">
  <metadata
     id="metadata17">
    <rdf:RDF>
      <cc:Work
         rdf:about="">
        <dc:format>image/svg+xml</dc:format>
        <dc:type
           rdf:resource="http://purl.org/dc/dcmitype/StillImage" />
      </cc:Work>
    </rdf:RDF>
  </metadata>
  <defs
     id="defs15">
    <filter
       id="filter854"
       style="color-interpolation-filters:sRGB;"
       inkscape:menu-tooltip="Rainbow-colored semitransparent oily splotches"
       inkscape:menu="Overlays"
       inkscape:label="Oil Slick">
      <feTurbulence
         id="feTurbulence842"
         type="fractalNoise"
         numOctaves="5"
         baseFrequency="0.143" />
      <feColorMatrix
         id="feColorMatrix844"
         values="1 0 0 0 0 0 1 0 0 0 0 0 1 0 0 0 0 0 5 -3" />
      <feMorphology
         id="feMorphology846"
         operator="dilate"
         radius="2.7"
         result="result3" />
      <feTurbulence
         id="feTurbulence848"
         result="result91"
         numOctaves="2"
         baseFrequency="0.121" />
      <feDisplacementMap
         id="feDisplacementMap850"
         in2="result91"
         in="result3"
         xChannelSelector="R"
         yChannelSelector="A"
         scale="18.5"
         result="result4" />
      <feComposite
         id="feComposite852"
         in="result4"
         operator="atop"
         in2="SourceGraphic" />
    </filter>
  </defs>
  <sodipodi:namedview
     inkscape:current-layer="svg11"
     inkscape:window-maximized="1"
     inkscape:window-y="0"
     inkscape:window-x="0"
     inkscape:cy="32"
     inkscape:cx="32"
     inkscape:zoom="13.109375"
     showgrid="false"
     id="namedview13"
     inkscape:window-height="1021"
     inkscape:window-width="1920"
     inkscape:pageshadow="2"
     inkscape:pageopacity="0"
     guidetolerance="10"
     gridtolerance="10"
     objecttolerance="10"
     borderopacity="1"
     bordercolor="#666666"
     pagecolor="#ffffff" />
  <linearGradient
     gradientUnits="userSpaceOnUse"
     gradientTransform="matrix(46.808,0,0,47,0.564,0.5)"
     y2="1.0722930524759795"
     x2="1.0164565923220248"
     y1="0.009839246119734024"
     x1="-0.014458464773922156"
     id="_lgradient_29">
    <stop
       id="stop2"
       style="stop-color:rgb(249,212,35)"
       stop-opacity="1"
       offset="0%" />
    <stop
       id="stop4"
       style="stop-color:rgb(255,78,80)"
       stop-opacity="1"
       offset="51.56237565086822%" />
    <stop
       id="stop6"
       style="stop-color:rgb(138,35,135)"
       stop-opacity="1"
       offset="99.1304347826087%" />
  </linearGradient>
  <path
     style="filter:url(#filter854)"
     id="path9"
     fill="url(#_lgradient_29)"
     fill-rule="evenodd"
     d=" M 21.908 11.825 L 21.908 11.825 C 22.642 10.478 23.238 9.378 23.239 9.369 L 23.239 9.369 C 23.24 9.36 23.446 9.389 23.7 9.433 L 23.7 9.433 L 23.153 21.193 L 31.224 21.458 C 32.756 21.509 33.408 22.644 32.679 23.992 L 26.089 36.173 L 24.76 38.614 L 24.76 38.614 L 24.774 38.477 L 24.844 26.805 L 16.773 26.54 C 15.241 26.49 14.59 25.355 15.319 24.007 L 21.908 11.825 L 21.908 11.825 L 21.908 11.825 L 21.908 11.825 Z  M 32.917 6.952 L 32.917 6.952 C 31.873 6.403 31.47 5.109 32.019 4.064 L 32.019 4.064 C 32.568 3.02 33.862 2.617 34.907 3.166 L 34.907 3.166 C 39.356 5.508 42.949 9.219 45.142 13.743 L 45.142 13.743 C 45.661 14.806 45.22 16.088 44.158 16.604 L 44.158 16.604 C 43.095 17.121 41.811 16.678 41.292 15.615 L 41.292 15.615 C 39.495 11.904 36.564 8.877 32.917 6.952 L 32.917 6.952 L 32.917 6.952 L 32.917 6.952 Z  M 23.817 4.5 L 23.817 4.5 C 24.92 4.494 25.812 3.594 25.807 2.49 L 25.807 2.49 C 25.801 1.386 24.9 0.494 23.797 0.5 L 23.797 0.5 C 18.037 0.53 12.487 2.68 8.207 6.53 C 3.927 10.39 1.207 15.68 0.577 21.41 L 0.577 21.41 C 0.455 22.508 1.248 23.499 2.347 23.62 L 2.347 23.62 C 3.445 23.741 4.435 22.948 4.557 21.85 L 4.557 21.85 C 5.077 17.1 7.337 12.7 10.887 9.51 C 14.437 6.31 19.037 4.53 23.817 4.5 L 23.817 4.5 L 23.817 4.5 Z  M 5.737 31 L 5.737 31 C 5.339 29.968 4.179 29.453 3.147 29.85 L 3.147 29.85 C 2.114 30.247 1.599 31.408 1.997 32.44 L 1.997 32.44 C 3.907 37.37 7.417 41.52 11.967 44.22 L 11.967 44.22 C 12.916 44.783 14.144 44.469 14.707 43.52 L 14.707 43.52 C 15.27 42.571 14.956 41.343 14.007 40.78 L 14.007 40.78 C 10.227 38.54 7.317 35.1 5.737 31 L 5.737 31 Z  M 23.307 43.49 L 23.307 43.49 C 22.203 43.473 21.293 44.356 21.277 45.46 L 21.277 45.46 C 21.26 46.564 22.143 47.473 23.247 47.49 L 23.247 47.49 L 23.907 47.5 C 23.917 47.5 23.927 47.5 23.937 47.5 C 29.847 47.5 35.547 45.27 39.887 41.26 C 44.227 37.25 46.907 31.74 47.367 25.85 L 47.367 25.85 C 47.449 24.752 46.625 23.788 45.527 23.7 L 45.527 23.7 C 44.428 23.612 43.465 24.436 43.377 25.54 L 43.377 25.54 C 42.997 30.42 40.777 34.99 37.177 38.32 C 33.577 41.65 28.857 43.5 23.957 43.5 L 23.307 43.49 Z " />
</svg>
