<?xml version="1.0" encoding="UTF-8" standalone="no"?>
<svg
   xmlns:dc="http://purl.org/dc/elements/1.1/"
   xmlns:cc="http://creativecommons.org/ns#"
   xmlns:rdf="http://www.w3.org/1999/02/22-rdf-syntax-ns#"
   xmlns:svg="http://www.w3.org/2000/svg"
   xmlns="http://www.w3.org/2000/svg"
   xmlns:sodipodi="http://sodipodi.sourceforge.net/DTD/sodipodi-0.dtd"
   xmlns:inkscape="http://www.inkscape.org/namespaces/inkscape"
   inkscape:version="1.0 (4035a4fb49, 2020-05-01)"
   sodipodi:docname="suspend_blur.svg"
   id="svg9"
   version="1.1"
   height="48pt"
   width="48pt"
   viewBox="0 0 48 48"
   style="isolation:isolate">
  <metadata
     id="metadata15">
    <rdf:RDF>
      <cc:Work
         rdf:about="">
        <dc:format>image/svg+xml</dc:format>
        <dc:type
           rdf:resource="http://purl.org/dc/dcmitype/StillImage" />
      </cc:Work>
    </rdf:RDF>
  </metadata>
  <defs
     id="defs13">
    <filter
       id="filter852"
       style="color-interpolation-filters:sRGB;"
       inkscape:menu-tooltip="Rainbow-colored semitransparent oily splotches"
       inkscape:menu="Overlays"
       inkscape:label="Oil Slick">
      <feTurbulence
         id="feTurbulence840"
         type="fractalNoise"
         numOctaves="5"
         baseFrequency="0.143" />
      <feColorMatrix
         id="feColorMatrix842"
         values="1 0 0 0 0 0 1 0 0 0 0 0 1 0 0 0 0 0 5 -3" />
      <feMorphology
         id="feMorphology844"
         operator="dilate"
         radius="2.7"
         result="result3" />
      <feTurbulence
         id="feTurbulence846"
         result="result91"
         numOctaves="2"
         baseFrequency="0.121" />
      <feDisplacementMap
         id="feDisplacementMap848"
         in2="result91"
         in="result3"
         xChannelSelector="R"
         yChannelSelector="A"
         scale="18.5"
         result="result4" />
      <feComposite
         id="feComposite850"
         in="result4"
         operator="atop"
         in2="SourceGraphic" />
    </filter>
  </defs>
  <sodipodi:namedview
     inkscape:current-layer="svg9"
     inkscape:window-maximized="1"
     inkscape:window-y="0"
     inkscape:window-x="0"
     inkscape:cy="32"
     inkscape:cx="32"
     inkscape:zoom="13.109375"
     showgrid="false"
     id="namedview11"
     inkscape:window-height="1021"
     inkscape:window-width="1920"
     inkscape:pageshadow="2"
     inkscape:pageopacity="0"
     guidetolerance="10"
     gridtolerance="10"
     objecttolerance="10"
     borderopacity="1"
     bordercolor="#666666"
     pagecolor="#ffffff" />
  <linearGradient
     gradientUnits="userSpaceOnUse"
     gradientTransform="matrix(46,0,0,47.259,1,0.727)"
     y2="0.5"
     x2="1"
     y1="0.5"
     x1="0"
     id="_lgradient_51">
    <stop
       id="stop2"
       style="stop-color:rgb(255,224,49)"
       stop-opacity="1"
       offset="0%" />
    <stop
       id="stop4"
       style="stop-color:rgb(252,82,82)"
       stop-opacity="1"
       offset="98.69565217391305%" />
  </linearGradient>
  <path
     style="filter:url(#filter852)"
     id="path7"
     fill="url(#_lgradient_51)"
     fill-rule="evenodd"
     d=" M 5.155 4.988 C -0.399 13.467 -0.371 21.959 5.155 30.38 C 6.327 31.718 7.672 32.948 9.225 33.989 C 12.247 36.015 15.856 37.36 19.428 37.307 C 22.999 37.254 26.55 35.786 29.402 32.199 C 32.319 28.529 30.24 22.993 27.686 21.516 C 25.621 20.552 23.81 22.146 23.542 23.168 C 24.283 22.826 26.68 22.662 27.116 24.121 C 27.574 27.509 25.345 30.439 22.207 30.784 C 16.908 31.367 12.772 26.076 12.348 21.087 C 11.751 14.051 17.177 7.025 23.583 5.012 C 17.315 -0.699 11.182 -0.697 5.155 4.988 Z  M 28.908 10.693 C 25.336 10.746 21.785 12.214 18.934 15.801 C 16.017 19.471 18.095 25.101 20.649 26.579 C 22.714 27.543 24.525 25.948 24.793 24.926 C 24.053 25.269 21.665 25.295 21.229 23.837 C 20.771 20.448 22.99 17.561 26.128 17.216 C 31.428 16.633 35.564 21.924 35.987 26.913 C 36.585 33.949 31.158 40.975 24.753 42.988 C 30.946 49.634 37.108 49.662 43.18 43.012 C 48.264 33.818 48.283 25.373 43.18 17.62 C 42.009 16.282 40.663 15.052 39.11 14.011 C 36.088 11.985 32.479 10.64 28.908 10.693 Z " />
</svg>
