<?xml version="1.0" encoding="UTF-8" standalone="no"?>
<svg
   xmlns:dc="http://purl.org/dc/elements/1.1/"
   xmlns:cc="http://creativecommons.org/ns#"
   xmlns:rdf="http://www.w3.org/1999/02/22-rdf-syntax-ns#"
   xmlns:svg="http://www.w3.org/2000/svg"
   xmlns="http://www.w3.org/2000/svg"
   xmlns:sodipodi="http://sodipodi.sourceforge.net/DTD/sodipodi-0.dtd"
   xmlns:inkscape="http://www.inkscape.org/namespaces/inkscape"
   width="24px"
   height="24px"
   viewBox="0 0 24 24"
   version="1.1"
   id="svg12"
   sodipodi:docname="cancel_blur.svg"
   inkscape:version="0.92.4 5da689c313, 2019-01-14">
  <metadata
     id="metadata16">
    <rdf:RDF>
      <cc:Work
         rdf:about="">
        <dc:format>image/svg+xml</dc:format>
        <dc:type
           rdf:resource="http://purl.org/dc/dcmitype/StillImage" />
        <dc:title>action-unavailable</dc:title>
      </cc:Work>
    </rdf:RDF>
  </metadata>
  <sodipodi:namedview
     pagecolor="#ffffff"
     bordercolor="#666666"
     borderopacity="1"
     objecttolerance="10"
     gridtolerance="10"
     guidetolerance="10"
     inkscape:pageopacity="0"
     inkscape:pageshadow="2"
     inkscape:window-width="1920"
     inkscape:window-height="1080"
     id="namedview14"
     showgrid="false"
     inkscape:zoom="9.8333333"
     inkscape:cx="-26.847458"
     inkscape:cy="12"
     inkscape:window-x="0"
     inkscape:window-y="0"
     inkscape:window-maximized="1"
     inkscape:current-layer="svg12"
     inkscape:pagecheckerboard="true" />
  <!-- Generator: Sketch 51.3 (57544) - http://www.bohemiancoding.com/sketch -->
  <title
     id="title2">action-unavailable</title>
  <desc
     id="desc4">Created with Sketch.</desc>
  <g
     style="fill:#2a7fff;fill-opacity:1;fill-rule:evenodd;stroke:#2a7fff;stroke-width:1;filter:url(#filter825)"
     id="g823">
    <g
       style="fill:#2a7fff;fill-opacity:1;fill-rule:nonzero;stroke:#2a7fff"
       transform="translate(5,5)"
       id="g821">
      <path
         inkscape:connector-curvature="0"
         style="fill:#2a7fff;fill-opacity:1;stroke:#2a7fff"
         id="path817"
         d="m 7,0 c 3.863,0 7,3.137 7,7 0,3.863 -3.137,7 -7,7 C 3.137,14 0,10.863 0,7 0,3.137 3.137,0 7,0 Z m 0,13 c 3.313709,0 6,-2.686291 6,-6 C 13,3.6862915 10.313709,1 7,1 3.6862915,1 1,3.6862915 1,7 c 0,3.313709 2.6862915,6 6,6 z" />
      <rect
         style="fill:#2a7fff;fill-opacity:1;stroke:#2a7fff"
         height="13"
         width="1"
         y="0.55077314"
         x="6.6153469"
         transform="rotate(44,7.115347,7.050773)"
         id="rect819" />
    </g>
  </g>
  <defs
     id="defs6">
    <filter
       inkscape:collect="always"
       style="color-interpolation-filters:sRGB"
       id="filter825"
       x="-0.24"
       width="1.48"
       y="-0.24"
       height="1.48">
      <feGaussianBlur
         inkscape:collect="always"
         stdDeviation="1.4"
         id="feGaussianBlur827" />
    </filter>
  </defs>
  <g
     id="action-unavailable"
     style="fill:#2a7fff;fill-opacity:1;fill-rule:evenodd;stroke:none;stroke-width:1">
    <g
       id="60"
       transform="translate(5,5)"
       style="fill:#2a7fff;fill-opacity:1;fill-rule:nonzero">
      <path
         d="m 7,0 c 3.863,0 7,3.137 7,7 0,3.863 -3.137,7 -7,7 C 3.137,14 0,10.863 0,7 0,3.137 3.137,0 7,0 Z m 0,13 c 3.313709,0 6,-2.686291 6,-6 C 13,3.6862915 10.313709,1 7,1 3.6862915,1 1,3.6862915 1,7 c 0,3.313709 2.6862915,6 6,6 z"
         id="Combined-Shape"
         style="fill:#2a7fff;fill-opacity:1"
         inkscape:connector-curvature="0" />
      <rect
         id="Rectangle-4"
         transform="rotate(44,7.115347,7.050773)"
         x="6.6153469"
         y="0.55077314"
         width="1"
         height="13"
         style="fill:#2a7fff;fill-opacity:1" />
    </g>
  </g>
</svg>
