<?xml version="1.0" encoding="UTF-8" standalone="no"?>
<svg
   xmlns:dc="http://purl.org/dc/elements/1.1/"
   xmlns:cc="http://creativecommons.org/ns#"
   xmlns:rdf="http://www.w3.org/1999/02/22-rdf-syntax-ns#"
   xmlns:svg="http://www.w3.org/2000/svg"
   xmlns="http://www.w3.org/2000/svg"
   xmlns:sodipodi="http://sodipodi.sourceforge.net/DTD/sodipodi-0.dtd"
   xmlns:inkscape="http://www.inkscape.org/namespaces/inkscape"
   width="24px"
   height="24px"
   viewBox="0 0 24 24"
   version="1.1"
   id="svg13"
   sodipodi:docname="suspend.svg"
   inkscape:version="0.92.4 5da689c313, 2019-01-14">
  <metadata
     id="metadata17">
    <rdf:RDF>
      <cc:Work
         rdf:about="">
        <dc:format>image/svg+xml</dc:format>
        <dc:type
           rdf:resource="http://purl.org/dc/dcmitype/StillImage" />
        <dc:title>kdenlive-zindex-down</dc:title>
      </cc:Work>
    </rdf:RDF>
  </metadata>
  <sodipodi:namedview
     pagecolor="#ffffff"
     bordercolor="#666666"
     borderopacity="1"
     objecttolerance="10"
     gridtolerance="10"
     guidetolerance="10"
     inkscape:pageopacity="0"
     inkscape:pageshadow="2"
     inkscape:window-width="1920"
     inkscape:window-height="1080"
     id="namedview15"
     showgrid="false"
     inkscape:pagecheckerboard="true"
     inkscape:zoom="9.8333333"
     inkscape:cx="-29.491525"
     inkscape:cy="12"
     inkscape:window-x="0"
     inkscape:window-y="0"
     inkscape:window-maximized="0"
     inkscape:current-layer="svg13" />
  <!-- Generator: Sketch 51.3 (57544) - http://www.bohemiancoding.com/sketch -->
  <title
     id="title2">kdenlive-zindex-down</title>
  <desc
     id="desc4">Created with Sketch.</desc>
  <defs
     id="defs6" />
  <g
     id="kdenlive-zindex-down"
     style="fill:#2a7fff;fill-opacity:1;fill-rule:evenodd;stroke:none;stroke-width:1">
    <g
       id="218"
       transform="translate(5,3)"
       style="fill:#2a7fff;fill-opacity:1;fill-rule:nonzero">
      <path
         d="m 6.5,1.996094 c -0.5522853,0 -1,0.4477148 -1,1 0,0.5522853 0.4477147,1 1,1 0.5522852,0 1,-0.4477147 1,-1 0,-0.5523026 -0.4477021,-1 -1,-1 z m 0,-1 c 1.10457,0 2,0.8954 2,2 0,1.10457 -0.89543,2 -2,2 -1.10457,0 -2,-0.89543 -2,-2 0,-1.10457 0.89543,-2 2,-2 z"
         id="Path"
         style="fill:#2a7fff;fill-opacity:1"
         inkscape:connector-curvature="0" />
      <rect
         id="Rectangle"
         transform="rotate(-90,6.5,10.5)"
         x="2"
         y="10"
         width="9"
         height="1"
         style="fill:#2a7fff;fill-opacity:1" />
      <path
         d="m 3.8754327,13.388791 h 7.0000003 v 1 h -7.0000003 -1 V 6.3887907 h 1 z"
         id="Combined-Shape"
         transform="rotate(-45,6.521879,10.742344)"
         style="fill:#2a7fff;fill-opacity:1"
         inkscape:connector-curvature="0" />
    </g>
  </g>
</svg>
